<?xml version="1.0" encoding="iso-8859-1"?>
<!-- Generator: Adobe Illustrator 19.0.0, SVG Export Plug-In . SVG Version: 6.00 Build 0)  -->
<svg xmlns="http://www.w3.org/2000/svg" xmlns:xlink="http://www.w3.org/1999/xlink" version="1.1" id="Layer_1" x="0px" y="0px" viewBox="0 0 512 512" style="enable-background:new 0 0 512 512;" xml:space="preserve" width="512px" height="512px">
<g>
	<g>
		<path d="M466.126,0h-85.361c-5.632,0-10.199,4.566-10.199,10.199v14.279h-50.31v-7.139c0-5.633-4.567-10.199-10.199-10.199    s-10.199,4.566-10.199,10.199v7.139h-87.713v-7.139c0-5.633-4.567-10.199-10.199-10.199c-5.632,0-10.199,4.566-10.199,10.199    v7.139h-50.486V10.199C141.259,4.566,136.692,0,131.06,0H45.876c-5.632,0-10.199,4.566-10.199,10.199v491.602    c0,5.633,4.567,10.199,10.199,10.199h85.185c5.632,0,10.199-4.566,10.199-10.199V87.713h50.486v37.847    c-20.98,4.671-36.717,23.42-36.717,45.786c0,25.869,21.047,46.916,46.916,46.916s46.916-21.047,46.916-46.916    c0-22.367-15.737-41.115-36.717-45.786V87.713h87.713v37.847c-20.98,4.671-36.717,23.42-36.717,45.786    c0,25.869,21.047,46.916,46.916,46.916s46.916-21.047,46.916-46.916c0-22.367-15.737-41.115-36.717-45.786V87.713h50.309v414.088    c0,5.633,4.567,10.199,10.199,10.199h85.361c5.632,0,10.199-4.566,10.199-10.199V10.199C476.325,4.566,471.758,0,466.126,0z     M120.861,491.602H56.075V20.398h64.786V491.602z M141.259,67.315V44.876h50.486v22.438H141.259z M228.463,171.347    c0,14.622-11.895,26.518-26.518,26.518c-14.623,0-26.518-11.896-26.518-26.518s11.895-26.518,26.518-26.518    C216.567,144.829,228.463,156.725,228.463,171.347z M212.144,67.315V44.876h87.713v22.438H212.144z M336.574,171.347    c0,14.622-11.895,26.518-26.518,26.518s-26.518-11.896-26.518-26.518s11.895-26.518,26.518-26.518    S336.574,156.725,336.574,171.347z M370.564,67.315h-50.309V44.876h50.309V67.315z M455.925,491.602h-64.963V20.398h64.963    V491.602z" fill="#141414"/>
	</g>
</g>
<g>
	<g>
		<path d="M435.507,330.454c-5.632,0-10.199,4.566-10.199,10.199v4.08c0,5.633,4.567,10.199,10.199,10.199    s10.199-4.566,10.199-10.199v-4.08C445.706,335.02,441.139,330.454,435.507,330.454z" fill="#141414"/>
	</g>
</g>
<g>
	<g>
		<path d="M435.507,367.171c-5.632,0-10.199,4.566-10.199,10.199v91.793c0,5.633,4.567,10.199,10.199,10.199    s10.199-4.566,10.199-10.199v-91.793C445.706,371.737,441.139,367.171,435.507,367.171z" fill="#141414"/>
	</g>
</g>
<g>
</g>
<g>
</g>
<g>
</g>
<g>
</g>
<g>
</g>
<g>
</g>
<g>
</g>
<g>
</g>
<g>
</g>
<g>
</g>
<g>
</g>
<g>
</g>
<g>
</g>
<g>
</g>
<g>
</g>
</svg>
