<?xml version="1.0" encoding="UTF-8" standalone="no"?>
<svg
   xmlns:dc="http://purl.org/dc/elements/1.1/"
   xmlns:cc="http://creativecommons.org/ns#"
   xmlns:rdf="http://www.w3.org/1999/02/22-rdf-syntax-ns#"
   xmlns:svg="http://www.w3.org/2000/svg"
   xmlns="http://www.w3.org/2000/svg"
   xml:space="preserve"
   viewBox="0 0 100 100"
   version="1.2"
   id="Layer_1"><metadata
     id="metadata19"><rdf:RDF><cc:Work
         rdf:about=""><dc:format>image/svg+xml</dc:format><dc:type
           rdf:resource="http://purl.org/dc/dcmitype/StillImage" /><dc:title></dc:title></cc:Work></rdf:RDF></metadata><defs
     id="defs17" /><g
     id="g3"><path
       id="path5"
       d="m 98,46.9 -33,0 c -0.7,0 -1.2,0.6 -1.2,1.2 0,7.9 -6.5,24.8 -13.8,24.8 -7.3,0 -13.8,-16.8 -13.8,-24.8 0,-0.7 -0.6,-1.2 -1.2,-1.2 l -33,0 c -0.7,0 -1.2,0.6 -1.2,1.2 0,0.6 0.6,1.2 1.2,1.2 l 31.8,0 c 0.3,4.4 2,10.4 4.5,15.4 3.4,6.8 7.6,10.6 11.7,10.6 4.1,0 8.3,-3.8 11.7,-10.6 2.5,-5 4.2,-11 4.5,-15.4 l 31.8,0 c 0.7,0 1.2,-0.6 1.2,-1.2 0,-0.6 -0.5,-1.2 -1.2,-1.2 z" /></g></svg>