<?xml version="1.0" encoding="iso-8859-1"?>
<!-- Generator: Adobe Illustrator 16.0.0, SVG Export Plug-In . SVG Version: 6.00 Build 0)  -->
<!DOCTYPE svg PUBLIC "-//W3C//DTD SVG 1.1//EN" "http://www.w3.org/Graphics/SVG/1.1/DTD/svg11.dtd">
<svg xmlns="http://www.w3.org/2000/svg" xmlns:xlink="http://www.w3.org/1999/xlink" version="1.1" id="Capa_1" x="0px" y="0px" width="512px" height="512px" viewBox="0 0 235.511 235.511" style="enable-background:new 0 0 235.511 235.511;" xml:space="preserve">
<g>
	<g>
		<path d="M217.94,73.418c-15.537-15.529-37.871-19.446-53.396-20.253c0-0.142,0.128-0.205,0.128-0.338    c0-16.068-20.622-28.661-46.915-28.661c-26.3,0-46.922,12.593-46.922,28.661c0,0.134,0.134,0.196,0.134,0.338    c-15.529,0.815-37.83,4.741-53.401,20.253c-21.588,21.62-23.079,40.279-4.707,58.745c5.47,5.434,14.106,12.703,25.836,12.703    c8.742,0,17.771-4.264,27.395-12.527c-0.399,4-0.886,7.863-0.886,12.527c0,49.071,47.149,87.811,49.143,89.45    c1.013,0.813,2.198,1.194,3.408,1.194c1.202,0,2.393-0.389,3.402-1.194c1.992-1.64,49.144-40.379,49.144-89.45    c0-4.664-0.485-8.527-0.882-12.527c9.626,8.264,18.65,12.527,27.391,12.527c11.729,0,20.37-7.27,25.836-12.703    C241.022,113.688,239.528,95.022,217.94,73.418z M117.758,34.929c21.304,0,36.14,9.412,36.14,17.875    c0,0.03,0.027,0.03,0.027,0.061c-3.174,0.104-5.485,0.26-5.485,0.26c-2.525,0.292-4.557,2.284-4.817,4.803    c-0.12,0.998-1.254,14.471,1.655,30.407c-8.828-4.467-18.719-5.583-27.507-5.583c-8.785,0-18.673,1.116-27.505,5.583    c2.914-15.936,1.775-29.409,1.655-30.407c-0.26-2.519-2.292-4.51-4.803-4.803c0,0-2.326-0.165-5.504-0.26    c0-0.03,0.032-0.03,0.032-0.061C81.613,44.34,96.453,34.929,117.758,34.929z M147.474,185.835c-0.116,0-0.165-0.101-0.261-0.101    H88.304c-0.112,0-0.181,0.101-0.292,0.132c-4.262-7.578-7.754-15.865-9.858-24.693h79.207    C155.224,169.981,151.733,178.261,147.474,185.835z M76.542,150.385c-0.156-1.84-0.547-3.663-0.547-5.519    c0-7.478,0.735-13.557,1.747-19.043h80.05c0.994,5.486,1.731,11.565,1.731,19.043c0,1.855-0.4,3.679-0.537,5.519H76.542z     M154.679,115.023H80.836c1.482-2.621,2.943-5.258,4.082-7.991C92.8,95.93,104.938,93.54,117.771,93.54    c12.844,0,24.97,2.39,32.853,13.493C151.733,109.766,153.192,112.402,154.679,115.023z M63.997,119.828    c-9.476,9.466-17.985,14.282-25.299,14.282c-5.889,0-11.684-3.062-18.2-9.577c-9.357-9.39-17.499-21.286,4.711-43.499    C40.431,65.81,64.946,63.532,78.205,63.532c1.204,0,2.286,0.036,3.228,0.05c0.213,7.67-0.314,23.778-6.255,38.551    c-1.87,2.897-3.603,6.08-5.033,9.871C68.371,114.775,66.391,117.436,63.997,119.828z M117.758,222.972    c-4.945-4.524-14.382-13.994-23.064-26.457h46.1C132.117,208.957,122.68,218.447,117.758,222.972z M215.015,124.533    c-6.521,6.516-12.314,9.577-18.202,9.577c-7.313,0-15.825-4.816-25.299-14.282c-2.393-2.393-4.372-5.053-6.147-7.803    c-1.427-3.783-3.146-6.98-5.029-9.874c-5.942-14.777-6.472-30.899-6.256-38.545c11.346-0.323,39.602,0.815,56.225,17.444    C232.499,103.248,224.372,115.144,215.015,124.533z" fill="#141414"/>
		<circle cx="101.428" cy="9.334" r="9.334" fill="#141414"/>
		<path d="M134.085,0c5.153,0,9.333,4.18,9.333,9.335s-4.18,9.333-9.333,9.333c-5.158,0-9.338-4.178-9.338-9.333    S128.927,0,134.085,0z" fill="#141414"/>
	</g>
</g>
<g>
</g>
<g>
</g>
<g>
</g>
<g>
</g>
<g>
</g>
<g>
</g>
<g>
</g>
<g>
</g>
<g>
</g>
<g>
</g>
<g>
</g>
<g>
</g>
<g>
</g>
<g>
</g>
<g>
</g>
</svg>
