<?xml version="1.0" encoding="iso-8859-1"?>
<!-- Generator: Adobe Illustrator 17.1.0, SVG Export Plug-In . SVG Version: 6.00 Build 0)  -->
<!DOCTYPE svg PUBLIC "-//W3C//DTD SVG 1.1//EN" "http://www.w3.org/Graphics/SVG/1.1/DTD/svg11.dtd">
<svg xmlns="http://www.w3.org/2000/svg" xmlns:xlink="http://www.w3.org/1999/xlink" version="1.1" id="Capa_1" x="0px" y="0px" viewBox="0 0 371.193 371.193" style="enable-background:new 0 0 371.193 371.193;" xml:space="preserve" width="512px" height="512px">
<path id="XMLID_1180_" d="M260.311,131.611c0-4.971,4.029-9,9-9h48.52c4.971,0,9,4.029,9,9s-4.029,9-9,9h-48.52  C264.341,140.611,260.311,136.582,260.311,131.611z M222.453,343.614H31.704c-4.971,0-9,4.029-9,9s4.029,9,9,9h190.749  c4.971,0,9-4.029,9-9S227.424,343.614,222.453,343.614z M68.433,57.062c-3.331-18.886,5.836-37.554,22.81-46.454  c1.651-0.866,3.532-1.198,5.38-0.949c18.997,2.558,33.997,16.967,37.323,35.854c3.333,18.879-5.833,37.547-22.809,46.45  c-1.295,0.679-2.73,1.03-4.18,1.03c-0.4,0-0.801-0.027-1.201-0.081C86.762,90.355,71.763,75.947,68.433,57.062z M86.16,53.936  c1.792,10.165,9.314,18.128,19.127,20.586c8.382-5.667,12.727-15.722,10.933-25.883c-1.792-10.167-9.314-18.132-19.128-20.59  C88.712,33.714,84.367,43.771,86.16,53.936z M342.052,213.839H318.78c-4.971,0-9,4.029-9,9s4.029,9,9,9h23.271c4.971,0,9-4.029,9-9  S347.022,213.839,342.052,213.839z M362.193,167.632H211.607c-4.971,0-9,4.029-9,9s4.029,9,9,9h150.586c4.971,0,9-4.029,9-9  S367.164,167.632,362.193,167.632z M280.27,213.839h-20.03c-2.006,0-3.954,0.67-5.535,1.903  c-15.382,11.998-50.054,37.481-55.52,39.866c-4.732,1.96-8.769,2.009-12.697,0.152c-20.354-9.623-37.418-65.833-55.483-125.342  c-1.041-3.427-2.092-6.889-3.155-10.382c20.067-15.529,43.184-32.619,55.041-31.201c10.21,1.22,15.556,10.509,23.147,25.664  c3.76,7.506,7.647,15.268,12.972,21.678c3.177,3.823,8.851,4.349,12.674,1.172c3.823-3.176,4.348-8.85,1.172-12.674  c-4.003-4.818-7.268-11.336-10.724-18.237c-7.752-15.477-16.539-33.018-37.106-35.475c-20.277-2.423-46.18,17.716-73.601,39.038  c-20.894,16.246-46.897,36.453-59.282,34.839c-10.07-1.322-15.478-10.621-23.188-25.777c-3.798-7.466-7.726-15.188-13.032-21.575  c-3.176-3.824-8.85-4.349-12.674-1.173c-3.824,3.176-4.349,8.851-1.173,12.674c4.021,4.84,7.331,11.347,10.835,18.235  c7.824,15.379,16.691,32.811,36.889,35.462c1.179,0.155,2.376,0.23,3.596,0.23c16.799-0.001,37.333-14.275,59.228-31.08  c0.387,1.275,0.772,2.546,1.157,3.811c21.739,71.612,37.446,123.354,65.013,136.387c4.377,2.069,8.902,3.104,13.541,3.104  c4.483,0,9.073-0.966,13.739-2.899c8.74-3.621,47.038-32.632,57.214-40.398h16.981c4.971,0,9-4.029,9-9  S285.241,213.839,280.27,213.839z M96.884,312.194c-4.97,0-9,4.029-9,8.999c0,4.971,4.028,9,8.999,9.001l20.029,0.003  c0,0,0.001,0,0.001,0c2.797,0,5.436-1.301,7.139-3.519c1.704-2.219,2.278-5.104,1.556-7.807l-1.167-4.357  c-7.877-29.42-12.632-47.178-11.754-56.476c0.545-5.78,2.814-8.633,16.787-16.396c4.345-2.414,5.91-7.893,3.496-12.238  c-2.414-4.345-7.893-5.91-12.238-3.496c-14.27,7.929-24.486,14.753-25.966,30.44c-1.096,11.618,2.703,26.934,10.422,55.848  l-8.303-0.001C96.885,312.194,96.885,312.194,96.884,312.194z" fill="#141414"/>
<g>
</g>
<g>
</g>
<g>
</g>
<g>
</g>
<g>
</g>
<g>
</g>
<g>
</g>
<g>
</g>
<g>
</g>
<g>
</g>
<g>
</g>
<g>
</g>
<g>
</g>
<g>
</g>
<g>
</g>
</svg>
