<?xml version="1.0" encoding="iso-8859-1"?>
<!-- Generator: Adobe Illustrator 17.1.0, SVG Export Plug-In . SVG Version: 6.00 Build 0)  -->
<!DOCTYPE svg PUBLIC "-//W3C//DTD SVG 1.1//EN" "http://www.w3.org/Graphics/SVG/1.1/DTD/svg11.dtd">
<svg xmlns="http://www.w3.org/2000/svg" xmlns:xlink="http://www.w3.org/1999/xlink" version="1.1" id="Capa_1" x="0px" y="0px" viewBox="0 0 175.237 175.237" style="enable-background:new 0 0 175.237 175.237;" xml:space="preserve" width="512px" height="512px">
<path class="svg-style" d="M157.092,175.237h-142c-1.104,0-2-0.896-2-2s0.896-2,2-2h56.395v-21.454c-28.48-1.055-51.325-24.554-51.325-53.288  c0-29.403,23.921-53.325,53.325-53.325c13.706,0,26.517,5.086,36.425,14.393l17.952-56.172C128.128,0.563,128.899,0,129.769,0  s1.641,0.563,1.905,1.391l43.301,135.487c0.194,0.608,0.087,1.273-0.29,1.789s-0.977,0.82-1.615,0.82h-41.301v31.75h25.323  c1.104,0,2,0.896,2,2S158.196,175.237,157.092,175.237z M75.486,171.237h52.282v-31.75h-22.736  c-8.659,6.368-18.824,9.906-29.546,10.297V171.237z M75.486,134.81v10.971c7.876-0.311,15.423-2.458,22.201-6.294H86.467  c-0.639,0-1.238-0.305-1.615-0.82c-0.253-0.347-0.385-0.76-0.385-1.179c0-0.205,0.031-0.41,0.095-0.61l23.988-75.056  c-9.339-9.458-21.744-14.652-35.063-14.652c-27.198,0-49.325,22.127-49.325,49.325c0,26.527,21.052,48.231,47.325,49.285V134.81  l-12.395-12.396c-0.781-0.781-0.781-2.047,0-2.828c0.781-0.781,2.048-0.781,2.828,0l9.567,9.566V88.821c0-1.104,0.896-2,2-2  s2,0.896,2,2v40.332l9.566-9.566c0.781-0.781,2.047-0.781,2.828,0c0.781,0.781,0.781,2.047,0,2.828L75.486,134.81z M131.769,135.487  h38.562L129.769,8.57l-17.038,53.31c-0.002,0.008-0.005,0.016-0.007,0.023l-23.518,73.584h38.563v-3.514l-12.396-12.396  c-0.781-0.781-0.781-2.047,0-2.828c0.781-0.781,2.047-0.781,2.828,0l9.567,9.567v-10.26l-12.396-12.395  c-0.781-0.781-0.781-2.047,0-2.828c0.781-0.781,2.047-0.781,2.828,0l9.567,9.566V88.821c0-1.104,0.896-2,2-2s2,0.896,2,2v21.578  l9.566-9.566c0.781-0.781,2.047-0.781,2.828,0c0.781,0.781,0.781,2.047,0,2.828l-12.395,12.395v10.26l9.566-9.566  c0.781-0.781,2.047-0.781,2.828,0c0.781,0.781,0.781,2.047,0,2.828l-12.395,12.396V135.487z M47.419,36.767H9.267  c-5.017,0-9.099-4.082-9.099-9.099s4.082-9.099,9.099-9.099c0.551,0,1.097,0.05,1.633,0.147C11.252,9.439,18.909,2,28.271,2  c6.705,0,12.755,3.858,15.635,9.785c1.134-0.326,2.31-0.491,3.514-0.491c7.023,0,12.736,5.713,12.736,12.736  C60.155,31.053,54.442,36.767,47.419,36.767z M9.267,22.569c-2.812,0-5.099,2.287-5.099,5.099s2.288,5.099,5.099,5.099h38.152  c4.817,0,8.736-3.919,8.736-8.736c0-4.817-3.919-8.736-8.736-8.736c-1.314,0-2.578,0.285-3.755,0.847  c-0.513,0.244-1.107,0.26-1.632,0.041c-0.525-0.219-0.932-0.652-1.119-1.189C39.045,9.614,33.964,6,28.271,6  c-7.379,0-13.383,6.004-13.383,13.383c0,0.661,0.05,1.33,0.147,1.988c0.115,0.773-0.231,1.543-0.887,1.97  c-0.656,0.428-1.5,0.433-2.161,0.014C11.173,22.841,10.233,22.569,9.267,22.569z" fill="#141414"/>
<g>
</g>
<g>
</g>
<g>
</g>
<g>
</g>
<g>
</g>
<g>
</g>
<g>
</g>
<g>
</g>
<g>
</g>
<g>
</g>
<g>
</g>
<g>
</g>
<g>
</g>
<g>
</g>
<g>
</g>
</svg>
