<?xml version="1.0" encoding="iso-8859-1"?>
<!-- Generator: Adobe Illustrator 19.0.0, SVG Export Plug-In . SVG Version: 6.00 Build 0)  -->
<svg version="1.1" id="Layer_1" xmlns="http://www.w3.org/2000/svg" xmlns:xlink="http://www.w3.org/1999/xlink" x="0px" y="0px"
	 viewBox="0 0 310.948 310.948" style="enable-background:new 0 0 310.948 310.948;" xml:space="preserve">
<g>
	<g>
		<g>
			<path d="M271.762,127.888c-0.012-0.94-0.58-1.784-1.444-2.148c-0.856-0.364-1.864-0.18-2.536,0.472
				c-4.352,4.188-23.656,8.468-52.884,11.04c0.412-0.368,0.7-0.876,0.78-1.468c2.784-22.04-3.388-46.848-16.944-68.072
				c-0.704-1.092-2.16-1.408-3.24-0.716c-1.092,0.7-1.412,2.148-0.716,3.244c12.972,20.312,18.892,43.988,16.24,64.96
				c-0.12,0.94,0.344,1.808,1.1,2.28c-16.26,1.34-35.364,2.172-56.648,2.172c-46.236,0-82.496-3.856-100.596-8.572
				c0-0.004,0.004-0.008,0.004-0.016c0.02-21.548,7.448-42.824,20.912-59.908c1.144-1.456,0.896-3.564-0.56-4.708
				c-1.444-1.136-3.56-0.9-4.708,0.56c-13.956,17.712-21.78,39.648-22.264,61.984c-2.372-0.916-4.14-1.844-5.104-2.772
				c-0.668-0.652-1.672-0.832-2.54-0.472c-0.864,0.364-1.428,1.208-1.432,2.148l-0.204,30.448c-0.004,0.992,0.604,1.876,1.536,2.22
				c2.232,0.824,4.908,1.616,7.988,2.368c-0.02,0.148-0.092,0.284-0.092,0.44c-0.1,16.828-0.716,81.024-1.012,111.452
				c-0.092,9.736-0.152,16.02-0.152,16.212c0,19.684,104.188,19.912,108.624,19.912c4.436,0,108.624-0.228,108.624-19.912
				c0-0.188-0.06-6.436-0.156-16.12c-0.292-30.392-0.912-94.696-1.016-111.544c0-0.228-0.088-0.428-0.132-0.64
				c2.752-0.696,5.208-1.416,7.244-2.172c0.928-0.344,1.54-1.228,1.536-2.22L271.762,127.888z M161.358,227.344
				c0.716-0.468,1.052-1.264,1.016-2.064c3.628,0.64,6.888,2.348,9.4,4.84l-35.74,22.576v-8.72L161.358,227.344z M136.794,237.864
				c2.124-7.416,8.896-12.892,16.984-12.892h2.648L136.794,237.864z M174.598,233.888c1.512,2.608,2.44,5.596,2.44,8.824v0.872
				l-41.004,25.496v-10.832L174.598,233.888z M177.038,303.896c-5.516,0.176-11.336,0.276-17.38,0.308l17.38-11.416V303.896z
				 M177.038,287.172l-25.304,16.616c-0.168,0.112-0.28,0.264-0.408,0.408c-4.512-0.028-8.872-0.1-13.088-0.212l38.8-24.124V287.172
				z M177.038,274.336l-41.004,25.496V289.54c0.324,0.16,0.68,0.264,1.044,0.264c0.428,0,0.864-0.12,1.252-0.36l38.708-24.452
				V274.336z M177.042,260.036h-0.004c-0.492-0.044-1,0.032-1.444,0.316l-39.556,24.988v-11.372
				c0.088,0.008,0.164,0.064,0.252,0.064c0.424,0,0.856-0.112,1.24-0.352l39.512-24.568V260.036z M181.734,303.72v-61.008
				c0-12.372-10.064-22.436-22.436-22.436h-5.52c-12.372,0-22.436,10.064-22.436,22.436v61.068
				c-48.624-1.82-75.644-8.76-77.388-12.748c0-0.292,0.06-6.532,0.152-16.152c0.288-29.912,0.884-92.42,1.008-110.536
				c22.628,4.424,59.96,7.204,100.356,7.204c40.856,0,78.6-2.844,101.148-7.352c0.12,17.936,0.724,80.82,1.012,110.776
				c0.092,9.568,0.152,15.768,0.184,15.868C256.058,294.952,229.498,301.82,181.734,303.72z M155.466,166.852
				c-49.044,0-93.432-4.06-111.784-10.16l0.168-24.52c14.912,7.284,58.636,12.172,111.62,12.172
				c52.988,0,96.712-4.888,111.62-12.172l0.172,24.52C248.902,162.796,204.518,166.852,155.466,166.852z"/>
			<path d="M242.666,235.328c-1.3,0-2.348,1.052-2.348,2.348v47.832c0,1.296,1.048,2.348,2.348,2.348s2.348-1.052,2.348-2.348
				v-47.832C245.014,236.38,243.966,235.328,242.666,235.328z"/>
			<path d="M242.666,206.628c-1.3,0-2.348,1.052-2.348,2.348v15.944c0,1.296,1.048,2.348,2.348,2.348s2.348-1.052,2.348-2.348
				v-15.944C245.014,207.676,243.966,206.628,242.666,206.628z"/>
			<path d="M242.666,175.132c-1.3,0-2.348,1.052-2.348,2.348v21.416c0,1.296,1.048,2.348,2.348,2.348s2.348-1.052,2.348-2.348
				V177.48C245.014,176.184,243.966,175.132,242.666,175.132z"/>
			<path d="M102.062,104.52c-1.216-0.24-2.5,0.592-2.74,1.868c-1.968,10.404-2.412,20.096-1.312,28.804
				c0.148,1.188,1.16,2.052,2.324,2.052c0.1,0,0.196-0.008,0.3-0.02c1.288-0.16,2.196-1.336,2.032-2.62
				c-1.04-8.224-0.608-17.424,1.268-27.344C104.174,105.988,103.338,104.76,102.062,104.52z"/>
			<path d="M54.762,36.444c1.432,0,2.828-0.452,4.14-1.152l19.46,24.768c2.96,2.588,6.144,1.444,7.36,0.316
				c15.956-14.82,37.096-23.72,59.532-25.64c-18.852,14.472-32.904,32.688-40.692,53.072c-0.464,1.208,0.148,2.564,1.36,3.028
				c0.272,0.108,0.56,0.156,0.836,0.156c0.94,0,1.832-0.576,2.196-1.512c8.076-21.148,23.152-39.956,43.596-54.384
				c0.292-0.208,0.508-0.476,0.676-0.768c2.348-0.028,4.7,0.016,7.06,0.144c0.148,0.468,0.408,0.908,0.844,1.216
				c10.052,7.084,18.796,15.156,25.992,23.98c0.468,0.568,1.14,0.864,1.82,0.864c0.52,0,1.048-0.172,1.48-0.528
				c1.004-0.82,1.156-2.296,0.336-3.3c-6.356-7.792-13.928-14.964-22.432-21.456c1.16,0.148,2.324,0.28,3.484,0.468
				c31.468,5.096,57.744,23.052,72.092,49.252c0.608,1.112,1.756,1.744,2.944,1.744c0.54,0,1.096-0.136,1.608-0.416
				c1.62-0.888,2.216-2.928,1.324-4.552c-15.348-28.024-43.376-47.216-76.9-52.652c-23.872-3.872-48.004-0.04-68.476,10.3
				c0.108-0.608-0.016-1.256-0.412-1.796l-17.176-23.34c2.276-3.092,2.42-7.412,0.016-10.644c-1.428-1.916-3.52-3.164-5.892-3.512
				c-2.408-0.356-4.74,0.244-6.652,1.668L49.39,20.292c-3.964,2.948-4.792,8.576-1.84,12.544
				C49.318,35.196,52.026,36.444,54.762,36.444z M100.222,40.376c0.244,0.332,0.572,0.548,0.916,0.712
				c-7.224,3.972-13.952,8.776-19.98,14.376c-0.092,0.084-0.132,0.2-0.212,0.292L63.45,33.484l20.384-15.38L100.222,40.376z
				 M52.202,24.06L77.098,5.536c0.74-0.548,1.62-0.84,2.532-0.84c0.216,0,0.428,0.016,0.64,0.044
				c1.132,0.168,2.128,0.76,2.804,1.668c1.404,1.888,1.012,4.572-0.872,5.976l-24.9,18.524c-1.892,1.404-4.564,1.016-5.972-0.876
				C49.922,28.144,50.318,25.464,52.202,24.06z"/>
		</g>
	</g>
</g>
<g>
</g>
<g>
</g>
<g>
</g>
<g>
</g>
<g>
</g>
<g>
</g>
<g>
</g>
<g>
</g>
<g>
</g>
<g>
</g>
<g>
</g>
<g>
</g>
<g>
</g>
<g>
</g>
<g>
</g>
</svg>
