<?xml version="1.0" encoding="iso-8859-1"?>
<!-- Generator: Adobe Illustrator 19.0.0, SVG Export Plug-In . SVG Version: 6.00 Build 0)  -->
<svg xmlns="http://www.w3.org/2000/svg" xmlns:xlink="http://www.w3.org/1999/xlink" version="1.1" id="Capa_1" x="0px" y="0px" viewBox="0 0 480 480" style="enable-background:new 0 0 480 480;" xml:space="preserve" width="512px" height="512px">
<g id="XMLID_1083_">
	<rect id="XMLID_1084_" x="135" y="383.75" width="20" height="20" fill="#141414"/>
	<rect id="XMLID_1085_" x="95" y="353.75" width="20" height="20" fill="#141414"/>
	<path id="XMLID_1086_" d="M480,230H275V0h-70v230h-30v-39.231c0-22.418-11.349-42.879-30-54.769V40H75v96   c-18.651,11.89-30,32.35-30,54.769V230H0v70h19.931l14.295,121.511C38.021,453.762,67.527,480,100,480h280   c32.473,0,61.979-26.238,65.774-58.489l2.089-17.761H480V230z M460,281.25h-31.25V250H460V281.25z M377.5,383.75V352.5h31.25v31.25   H377.5z M357.5,281.25h-31.25V250h31.25V281.25z M377.5,250h31.25v31.25H377.5V250z M275,301.25h31.25v31.25H275V301.25z    M326.25,301.25h31.25v31.25h-31.25V301.25z M306.25,281.25H275V250h31.25V281.25z M275,352.5h31.25v31.25H275V352.5z    M326.25,352.5h31.25v31.25h-31.25V352.5z M377.5,332.5v-31.25h31.25v31.25H377.5z M428.75,301.25H460v31.25h-31.25V301.25z    M225,20h30v210h-30V20z M125,60v31.785H95V60H125z M65,190.769c0-16.978,9.408-32.336,24.553-40.081L95,147.902v-36.118h30v36.118   l5.447,2.786C145.592,158.433,155,173.792,155,190.769V230H65V190.769z M20,250h235v30H20V250z M425.911,419.174   C423.307,441.304,402.283,460,380,460H100c-22.283,0-43.307-18.696-45.911-40.826L40.069,300H255v103.75h172.725L425.911,419.174z    M428.75,383.75V352.5H460v31.25H428.75z" fill="#141414"/>
</g>
<g>
</g>
<g>
</g>
<g>
</g>
<g>
</g>
<g>
</g>
<g>
</g>
<g>
</g>
<g>
</g>
<g>
</g>
<g>
</g>
<g>
</g>
<g>
</g>
<g>
</g>
<g>
</g>
<g>
</g>
</svg>
