<?xml version="1.0" encoding="iso-8859-1"?>
<!-- Generator: Adobe Illustrator 19.0.0, SVG Export Plug-In . SVG Version: 6.00 Build 0)  -->
<svg version="1.1" id="Capa_1" xmlns="http://www.w3.org/2000/svg" xmlns:xlink="http://www.w3.org/1999/xlink" x="0px" y="0px"
	 viewBox="0 0 512.002 512.002" style="enable-background:new 0 0 512.002 512.002;" xml:space="preserve">
<g>
	<g>
		<path d="M510.392,363.189l-54.006-79.837v-0.119L350.295,134.199H169.094L58.033,283.114v0.137L1.714,363.035
			c-2.983,4.225-1.974,10.072,2.251,13.054c1.643,1.159,3.529,1.714,5.393,1.714c2.943,0,5.838-1.379,7.662-3.965l41.013-58.103
			v62.069h398.357v-61.016l38.484,56.901c1.811,2.674,4.763,4.115,7.767,4.115c1.806,0,3.63-0.52,5.238-1.608
			C512.168,373.296,513.291,367.476,510.392,363.189z M164.424,359.07H76.762v-69.735l87.662-117.551V359.07z M262.352,359.074
			h-79.194v-185.32l79.194,115.374V359.074z M191.582,152.928h149.061l88.217,123.93H276.648L191.582,152.928z M437.658,359.074
			H281.085v-63.483h156.573V359.074z"/>
	</g>
</g>
<g>
</g>
<g>
</g>
<g>
</g>
<g>
</g>
<g>
</g>
<g>
</g>
<g>
</g>
<g>
</g>
<g>
</g>
<g>
</g>
<g>
</g>
<g>
</g>
<g>
</g>
<g>
</g>
<g>
</g>
</svg>
