<?xml version="1.0" encoding="iso-8859-1"?>
<!-- Generator: Adobe Illustrator 18.0.0, SVG Export Plug-In . SVG Version: 6.00 Build 0)  -->
<!DOCTYPE svg PUBLIC "-//W3C//DTD SVG 1.1//EN" "http://www.w3.org/Graphics/SVG/1.1/DTD/svg11.dtd">
<svg xmlns="http://www.w3.org/2000/svg" xmlns:xlink="http://www.w3.org/1999/xlink" version="1.1" id="Capa_1" x="0px" y="0px" viewBox="0 0 358.861 358.861" style="enable-background:new 0 0 358.861 358.861;" xml:space="preserve" width="512px" height="512px">
<path d="M353.947,165.708c-0.106-3.236-2.76-5.803-5.997-5.803h-71.138l-1.845-49.334h24.574c3.314,0,6-2.686,6-6V43.485  c0-3.314-2.686-6-6-6h-29.589c-3.117,0-5.715,2.387-5.978,5.492l-1.534,18.057h-21.797l-1.534-18.057  c-0.264-3.105-2.862-5.492-5.979-5.492h-35.289c-3.117,0-5.715,2.387-5.979,5.492l-1.534,18.057h-21.797l-1.534-18.057  c-0.264-3.105-2.862-5.492-5.979-5.492h-35.288c-3.117,0-5.715,2.387-5.979,5.492l-1.534,18.057H96.422l-1.534-18.057  c-0.264-3.105-2.862-5.492-5.979-5.492H59.321c-3.314,0-6,2.686-6,6v61.086c0,3.314,2.686,6,6,6h24.573l-1.845,49.334H10.911  c-3.237,0-5.891,2.566-5.997,5.803L0.003,315.178c-0.054,1.625,0.555,3.201,1.685,4.371c1.13,1.168,2.686,1.826,4.312,1.826h27.215  h45.978h3.044h194.387c0.007,0,0.013,0,0.02,0h3.024h45.978h27.215c1.626,0,3.181-0.658,4.312-1.826  c1.13-1.17,1.739-2.746,1.685-4.371L353.947,165.708z M65.321,49.485h18.077l1.534,18.057c0.264,3.105,2.862,5.492,5.979,5.492  h32.822c3.117,0,5.715-2.387,5.978-5.492l1.534-18.057h24.264l1.534,18.057c0.264,3.105,2.862,5.492,5.979,5.492h32.821  c3.117,0,5.715-2.387,5.979-5.492l1.534-18.057h24.265l1.534,18.057c0.264,3.105,2.862,5.492,5.979,5.492h32.821  c3.117,0,5.715-2.387,5.979-5.492l1.534-18.057h18.077v49.086h-24.802H90.122H65.321V49.485z M12.2,309.376l4.517-137.471H81.6  l-5.142,137.471H33.215H12.2z M228.36,309.376v-94.719c0-26.686-21.712-48.398-48.399-48.398H178.9  c-26.688,0-48.399,21.713-48.399,48.4v94.717H88.466l7.437-198.805h167.056l7.437,198.805H228.36z M325.646,309.376h-43.243  l-5.142-137.471h64.883l4.517,137.471H325.646z" fill="#141414"/>
<g>
</g>
<g>
</g>
<g>
</g>
<g>
</g>
<g>
</g>
<g>
</g>
<g>
</g>
<g>
</g>
<g>
</g>
<g>
</g>
<g>
</g>
<g>
</g>
<g>
</g>
<g>
</g>
<g>
</g>
</svg>
