<?xml version="1.0" encoding="iso-8859-1"?>
<!-- Generator: Adobe Illustrator 18.0.0, SVG Export Plug-In . SVG Version: 6.00 Build 0)  -->
<!DOCTYPE svg PUBLIC "-//W3C//DTD SVG 1.1//EN" "http://www.w3.org/Graphics/SVG/1.1/DTD/svg11.dtd">
<svg xmlns="http://www.w3.org/2000/svg" xmlns:xlink="http://www.w3.org/1999/xlink" version="1.1" id="Capa_1" x="0px" y="0px" viewBox="0 0 366.771 366.771" style="enable-background:new 0 0 366.771 366.771;" xml:space="preserve" width="512px" height="512px">
<g>
	<g>
		<path d="M337.163,256.079c-1.441-32.63-7.521-112.434-32.827-153.665c-4.362-16.955-16.545-32.426-35.378-44.547    c-10.505-6.761-22.576-12.112-35.65-15.949v-5.844C233.307,16.183,217.124,0,197.233,0h-27.584    c-19.893,0-36.074,16.183-36.074,36.074v5.844c-13.076,3.837-25.145,9.188-35.65,15.949    c-18.723,12.051-30.877,27.41-35.305,44.249c-25.457,41.14-31.566,121.252-33.012,153.963    c-1.035,23.466,3.664,40.45,13.965,50.479c5.732,5.58,12.066,7.913,17.17,8.822v6.82c0,29.261,61.725,44.57,122.699,44.57    c60.973,0,122.697-15.31,122.697-44.57v-6.844c5.094-0.926,11.418-3.279,17.124-8.863    C333.52,296.456,338.197,279.493,337.163,256.079z M60.743,299.939c-2.162-0.734-4.51-1.992-6.705-4.129    c-7.006-6.819-10.271-20.33-9.443-39.069c1.928-43.647,7.676-82.499,16.148-111.416V299.939z M148.575,36.074    c0-11.62,9.453-21.074,21.074-21.074h27.584c11.619,0,21.074,9.454,21.074,21.074v2.186c-11.18-2.173-22.896-3.302-34.865-3.302    c-11.971,0-23.688,1.129-34.867,3.303V36.074z M291.139,322.201c0,4.923-8.824,12.729-28.538,19.073    c-21.035,6.77-49.147,10.497-79.159,10.497c-30.013,0-58.125-3.728-79.16-10.497c-19.715-6.344-28.539-14.15-28.539-19.073    v-97.525h215.397V322.201z M260.473,209.676H106.407v-82.93c0-11.893,7.572-23.315,21.319-32.163    c14.77-9.506,34.558-14.741,55.716-14.741s40.943,5.235,55.714,14.741c13.747,8.848,21.317,20.27,21.317,32.163V209.676z     M291.139,209.676h-15.666v-82.93c0-17.171-10.015-33.072-28.199-44.776c-17.162-11.045-39.831-17.128-63.832-17.128    c-24.001,0-46.671,6.083-63.834,17.128c-18.186,11.703-28.201,27.605-28.201,44.776v82.93H75.743V116.6    c0-17.165,10.76-33.544,30.301-46.119c20.562-13.233,48.049-20.521,77.398-20.521c29.348,0,56.836,7.288,77.397,20.521    c19.538,12.575,30.3,28.954,30.3,46.119V209.676z M312.772,295.773c-2.168,2.121-4.489,3.38-6.633,4.125v-154.2    c8.412,28.878,14.119,67.585,16.038,111.043C323.004,275.446,319.751,288.943,312.772,295.773z" fill="#141414"/>
		<path d="M267.973,241.957H98.907c-4.141,0-7.5,3.357-7.5,7.5c0,4.143,3.359,7.5,7.5,7.5H236.54v16.4c0,4.143,3.357,7.5,7.5,7.5    c4.142,0,7.5-3.357,7.5-7.5v-16.4h16.434c4.143,0,7.5-3.357,7.5-7.5C275.473,245.314,272.116,241.957,267.973,241.957z" fill="#141414"/>
	</g>
</g>
<g>
</g>
<g>
</g>
<g>
</g>
<g>
</g>
<g>
</g>
<g>
</g>
<g>
</g>
<g>
</g>
<g>
</g>
<g>
</g>
<g>
</g>
<g>
</g>
<g>
</g>
<g>
</g>
<g>
</g>
</svg>
