<?xml version="1.0" encoding="iso-8859-1"?>
<!-- Generator: Adobe Illustrator 18.0.0, SVG Export Plug-In . SVG Version: 6.00 Build 0)  -->
<!DOCTYPE svg PUBLIC "-//W3C//DTD SVG 1.1//EN" "http://www.w3.org/Graphics/SVG/1.1/DTD/svg11.dtd">
<svg xmlns="http://www.w3.org/2000/svg" xmlns:xlink="http://www.w3.org/1999/xlink" version="1.1" id="Capa_1" x="0px" y="0px" viewBox="0 0 458.979 458.979" style="enable-background:new 0 0 458.979 458.979;" xml:space="preserve" width="512px" height="512px">
<path d="M368.661,261.288c-2.038-2.622-5.416-3.816-8.649-3.061c-1.928,0.451-45.08,10.973-108.965,59.725v-43.066  c9.525-1.159,18.651-4.645,26.245-10.11c10.454-7.523,17.782-18.447,21.194-31.591l16.16-62.28  c1.48-5.704,2.255-11.492,2.317-17.269c21.925-15.994,34.875-41.31,34.875-68.646c0-22.706-8.839-44.05-24.89-60.101  C310.9,8.839,289.556,0,266.85,0H137.73c-27.129,0-49.2,22.066-49.2,49.19c0,13.143,5.118,25.499,14.41,34.79  c7.958,7.959,18.351,12.922,29.475,14.121c17.206,11.318,29.482,28.445,34.668,48.434l22.49,86.649  c3.409,13.141,10.734,24.064,21.184,31.588c6.804,4.899,14.841,8.202,23.292,9.671v176.035c0,4.694,3.806,8.5,8.5,8.5  s8.5-3.806,8.5-8.5v-32.492c0.186,0.005,0.366,0.028,0.553,0.028c1.043,0,2.107-0.073,3.188-0.221  c10.604-1.451,22.917-10.373,37.641-27.277c10.776-12.37,22.976-29.149,36.261-49.871c22.446-35.01,40.62-69.873,40.8-70.221  C371.023,267.478,370.699,263.909,368.661,261.288z M137.73,81.39c-0.619,0-1.286-0.021-1.982-0.064c-0.001,0-0.003,0-0.005,0  c-7.836-0.474-15.217-3.8-20.783-9.366c-6.082-6.081-9.431-14.167-9.431-22.769c0-17.75,14.445-32.19,32.2-32.19h129.12  c18.165,0,35.24,7.071,48.08,19.91c12.839,12.84,19.91,29.915,19.91,48.08c0,18.582-7.482,35.998-20.494,48.665  c-6.868-24.64-26.59-43.794-51.316-50.068V54.99c0-12.131-9.869-22-22-22s-22,9.869-22,22v26.4H137.73z M246.029,81.403  c-0.214-0.002-0.425-0.013-0.64-0.013h-9.36v-26.4c0-2.757,2.243-5,5-5s5,2.243,5,5V81.403z M206.027,228.915l-22.49-86.649  c-4.324-16.67-12.741-31.687-24.386-43.876h86.239c28.907,0,52.839,22.549,54.483,51.335c0,0.007,0.001,0.014,0.001,0.021  c0.335,5.614-0.231,11.296-1.683,16.889l-16.16,62.279c-5.634,21.703-23.994,29.403-38.006,29.403c-0.001,0-0.003,0-0.004,0  C230.012,258.316,211.656,250.615,206.027,228.915z M314.32,331.563c-12.828,20.003-24.517,36.093-34.74,47.823  c-15.948,18.299-24.262,21.177-27.096,21.564c-0.548,0.075-1.013,0.081-1.437,0.02V339.54c40.356-32.36,73.196-49.276,92.835-57.583  C336.555,295.086,326.026,313.311,314.32,331.563z" fill="#141414"/>
<g>
</g>
<g>
</g>
<g>
</g>
<g>
</g>
<g>
</g>
<g>
</g>
<g>
</g>
<g>
</g>
<g>
</g>
<g>
</g>
<g>
</g>
<g>
</g>
<g>
</g>
<g>
</g>
<g>
</g>
</svg>
