<?xml version="1.0" encoding="UTF-8" standalone="no"?>
<!-- Created with Inkscape (http://www.inkscape.org/) -->

<svg
   xmlns:dc="http://purl.org/dc/elements/1.1/"
   xmlns:cc="http://creativecommons.org/ns#"
   xmlns:rdf="http://www.w3.org/1999/02/22-rdf-syntax-ns#"
   xmlns:svg="http://www.w3.org/2000/svg"
   xmlns="http://www.w3.org/2000/svg"
   xmlns:sodipodi="http://sodipodi.sourceforge.net/DTD/sodipodi-0.dtd"
   xmlns:inkscape="http://www.inkscape.org/namespaces/inkscape"
   id="svg4187"
   version="1.1"
   inkscape:version="0.91 r13725"
   width="100"
   height="100"
   viewBox="0 0 100 100"
   sodipodi:docname="facebook.svg">
  <metadata
     id="metadata4193">
    <rdf:RDF>
      <cc:Work
         rdf:about="">
        <dc:format>image/svg+xml</dc:format>
        <dc:type
           rdf:resource="http://purl.org/dc/dcmitype/StillImage" />
        <dc:title></dc:title>
      </cc:Work>
    </rdf:RDF>
  </metadata>
  <defs
     id="defs4191" />
  <sodipodi:namedview
     pagecolor="#ffffff"
     bordercolor="#666666"
     borderopacity="1"
     objecttolerance="10"
     gridtolerance="10"
     guidetolerance="10"
     inkscape:pageopacity="0"
     inkscape:pageshadow="2"
     inkscape:window-width="2560"
     inkscape:window-height="1407"
     id="namedview4189"
     showgrid="true"
     inkscape:zoom="6.22"
     inkscape:cx="12.894313"
     inkscape:cy="59.43875"
     inkscape:window-x="0"
     inkscape:window-y="33"
     inkscape:window-maximized="1"
     inkscape:current-layer="svg4187"
     showguides="true">
    <inkscape:grid
       type="xygrid"
       id="grid4226" />
  </sodipodi:namedview>
  <path
     style="fill:#d4e7df;fill-opacity:1"
     d="M 50.134766 4.1660156 A 45.927837 45.927837 0 0 0 4.2070312 50.09375 A 45.927837 45.927837 0 0 0 50.134766 96.021484 A 45.927837 45.927837 0 0 0 96.0625 50.09375 A 45.927837 45.927837 0 0 0 50.134766 4.1660156 z M 61.056641 25.041016 L 61.533203 25.085938 L 61.582031 30.896484 L 60.962891 30.896484 C 57.850399 30.896484 55.021056 30.760801 53.794922 31.78125 C 52.600227 32.801701 52.662109 33.258939 52.662109 35.912109 L 52.662109 41.724609 L 61.474609 41.855469 L 61.474609 47.197266 L 52.662109 47.197266 L 52.539062 76.962891 L 44.021484 76.917969 L 43.9375 47.197266 L 38.708984 47.236328 L 38.785156 41.763672 L 43.9375 41.724609 L 44.021484 35.748047 C 44.087264 30.97801 44.688608 29.533691 47.423828 27.365234 C 50.15905 25.171267 55.114609 25.041016 61.056641 25.041016 z "
     id="path4203" />
</svg>
