<?xml version="1.0" encoding="UTF-8" standalone="no"?>
<svg
   xmlns:dc="http://purl.org/dc/elements/1.1/"
   xmlns:cc="http://creativecommons.org/ns#"
   xmlns:rdf="http://www.w3.org/1999/02/22-rdf-syntax-ns#"
   xmlns:svg="http://www.w3.org/2000/svg"
   xmlns="http://www.w3.org/2000/svg"
   xmlns:sodipodi="http://sodipodi.sourceforge.net/DTD/sodipodi-0.dtd"
   xmlns:inkscape="http://www.inkscape.org/namespaces/inkscape"
   version="1.1"
   id="svg2"
   viewBox="0 0 160.58484 219.89345"
   height="219.89345"
   width="160.58484"
   inkscape:version="0.91 r13725"
   sodipodi:docname="hebankowy-logo-with-tag.svg">
  <sodipodi:namedview
     pagecolor="#ffffff"
     bordercolor="#666666"
     borderopacity="1"
     objecttolerance="10"
     gridtolerance="10"
     guidetolerance="10"
     inkscape:pageopacity="0"
     inkscape:pageshadow="2"
     inkscape:window-width="2560"
     inkscape:window-height="1407"
     id="namedview3400"
     showgrid="false"
     inkscape:zoom="3.5932985"
     inkscape:cx="122.06376"
     inkscape:cy="73.701256"
     inkscape:window-x="0"
     inkscape:window-y="33"
     inkscape:window-maximized="1"
     inkscape:current-layer="layer1"
     fit-margin-top="0"
     fit-margin-left="0"
     fit-margin-right="0"
     fit-margin-bottom="0" />
  <defs
     id="defs4" />
  <metadata
     id="metadata7">
    <rdf:RDF>
      <cc:Work
         rdf:about="">
        <dc:format>image/svg+xml</dc:format>
        <dc:type
           rdf:resource="http://purl.org/dc/dcmitype/StillImage" />
        <dc:title></dc:title>
      </cc:Work>
    </rdf:RDF>
  </metadata>
  <g
     id="g3402">
    <g
       id="layer1"
       transform="translate(-3.4048862,-893.58407)">
      <g
         style="font-style:normal;font-weight:normal;font-size:40px;line-height:125%;font-family:sans-serif;letter-spacing:0px;word-spacing:0px;fill:#000000;fill-opacity:1;stroke:none;stroke-width:1px;stroke-linecap:butt;stroke-linejoin:miter;stroke-opacity:1"
         id="flowRoot3336" />
      <g
         transform="scale(0.97085833,1.0300164)"
         style="font-style:normal;font-variant:normal;font-weight:normal;font-stretch:normal;font-size:72.81437683px;line-height:69.99999881%;font-family:Lato;-inkscape-font-specification:'Lato, Normal';text-align:start;letter-spacing:0px;word-spacing:0px;writing-mode:lr-tb;text-anchor:start;fill:#d4e7df;fill-opacity:1;stroke:none;stroke-width:1px;stroke-linecap:butt;stroke-linejoin:miter;stroke-opacity:1"
         id="text3344">
        <path
           d="m 4.5993043,921.17133 0,-53.62779 6.5168867,0 0,21.69868 q 2.366467,-2.51209 5.242635,-4.00479 2.876168,-1.5291 6.626108,-1.5291 3.021797,0 5.31545,1.0194 2.33006,0.98299 3.859162,2.83976 1.565509,1.82036 2.366467,4.40527 0.800958,2.58491 0.800958,5.71593 l 0,23.48264 -6.516886,0 0,-23.48264 q 0,-4.18683 -1.929581,-6.48048 -1.893174,-2.33006 -5.788743,-2.33006 -2.912575,0 -5.424671,1.38347 -2.475689,1.38348 -4.550899,3.74994 l 0,27.15977 -6.5168867,0 z"
           style="letter-spacing:-5.60634136px;fill:#d4e7df;fill-opacity:1"
           id="path4168" />
        <path
           d="m 54.775602,883.70833 q 3.313054,0 6.116407,1.12862 2.839761,1.09222 4.878564,3.20383 2.075209,2.07521 3.240239,5.16982 1.16503,3.05821 1.16503,6.99019 0,1.5291 -0.327664,2.0388 -0.327665,0.5097 -1.237845,0.5097 l -24.647666,0 q 0.07281,3.49509 0.946587,6.08 0.873772,2.58491 2.402874,4.33245 1.529102,1.71114 3.640719,2.58491 2.111617,0.83737 4.732934,0.83737 2.439282,0 4.186827,-0.54611 1.783952,-0.58251 3.058204,-1.23784 1.274251,-0.65533 2.111617,-1.20144 0.873772,-0.58251 1.492694,-0.58251 0.800959,0 1.237845,0.61892 l 1.820359,2.36646 q -1.201437,1.45629 -2.876168,2.54851 -1.67473,1.05581 -3.604311,1.74754 -1.893174,0.69174 -3.931977,1.0194 -2.038802,0.36408 -4.041198,0.36408 -3.822754,0 -7.062994,-1.27426 -3.203833,-1.31065 -5.5703,-3.78634 -2.33006,-2.5121 -3.640719,-6.18922 -1.310659,-3.67713 -1.310659,-8.44647 0,-3.85916 1.165031,-7.20863 1.201437,-3.34946 3.422275,-5.78874 2.220839,-2.47569 5.424671,-3.85916 3.203833,-1.41988 7.208624,-1.41988 z m 0.145628,4.76934 q -4.696527,0 -7.390659,2.73054 -2.694132,2.69413 -3.349461,7.49988 l 20.169582,0 q 0,-2.25725 -0.655329,-4.11401 -0.618922,-1.89318 -1.856767,-3.24024 -1.201437,-1.38347 -2.948982,-2.11162 -1.747545,-0.76455 -3.968384,-0.76455 z"
           style="letter-spacing:-5.60634136px;fill:#d4e7df;fill-opacity:1"
           id="path4170" />
        <path
           d="m 72.458481,921.17133 0,-53.62779 6.516887,0 0,22.09916 q 2.293653,-2.73054 5.242635,-4.33245 2.948982,-1.60192 6.771737,-1.60192 3.24024,0 5.82515,1.23784 2.621318,1.23785 4.44168,3.60431 1.82036,2.33006 2.76694,5.67953 0.983,3.34946 0.983,7.53628 0,4.47809 -1.09222,8.15521 -1.09221,3.67713 -3.16742,6.29845 -2.038806,2.58491 -4.987789,4.0412 -2.948982,1.41988 -6.626108,1.41988 -3.640719,0 -6.152815,-1.34707 -2.475688,-1.38347 -4.332455,-3.89557 l -0.327665,3.34946 q -0.291257,1.38348 -1.67473,1.38348 l -4.186827,0 z m 16.383235,-32.29318 q -3.167426,0 -5.533893,1.45629 -2.366467,1.45628 -4.332455,4.11401 l 0,17.83952 q 1.783952,2.40288 3.895569,3.38587 2.148024,0.98299 4.696527,0.98299 5.206228,0 7.973174,-3.67712 2.766947,-3.67713 2.766947,-10.95857 0,-6.77173 -2.475689,-9.93916 -2.439282,-3.20383 -6.99018,-3.20383 z"
           style="letter-spacing:-5.60634136px;fill:#d4e7df;fill-opacity:1"
           id="path4172" />
        <path
           d="m 131.11424,921.17133 q -0.94658,0 -1.45628,-0.29126 -0.5097,-0.32767 -0.80096,-1.23785 l -0.72815,-3.45868 q -1.45628,1.31066 -2.87616,2.36647 -1.38348,1.0194 -2.91258,1.74754 -1.49269,0.69174 -3.24024,1.05581 -1.71114,0.40048 -3.82275,0.40048 -2.14803,0 -4.0412,-0.58251 -1.89317,-0.61893 -3.31306,-1.82036 -1.38347,-1.20144 -2.22083,-3.0218 -0.80096,-1.85677 -0.80096,-4.36886 0,-2.18443 1.20144,-4.18683 1.20143,-2.0388 3.89556,-3.60431 2.69414,-1.56551 7.02659,-2.5485 4.33246,-1.01941 10.6309,-1.16503 l 0,-2.87617 q 0,-4.29605 -1.85677,-6.48048 -1.85676,-2.22084 -5.42467,-2.22084 -2.40287,0 -4.04119,0.61892 -1.60192,0.58252 -2.80336,1.34707 -1.16503,0.72814 -2.0388,1.34706 -0.83737,0.58252 -1.67473,0.58252 -0.65533,0 -1.12862,-0.32767 -0.4733,-0.36407 -0.80096,-0.87377 l -1.16503,-2.07521 q 3.0582,-2.94898 6.5897,-4.40527 3.5315,-1.45629 7.82754,-1.45629 3.09462,0 5.49749,1.01941 2.40287,1.0194 4.0412,2.83976 1.63832,1.82036 2.47569,4.40527 0.83736,2.58491 0.83736,5.67952 l 0,23.59186 -2.87617,0 z m -13.90754,-3.96839 q 1.71114,0 3.13102,-0.32766 1.41988,-0.36407 2.65772,-0.983 1.27425,-0.65533 2.40288,-1.56551 1.16503,-0.94658 2.25724,-2.11161 l 0,-7.64551 q -4.47808,0.14563 -7.64551,0.72814 -3.13102,0.54611 -5.13341,1.45629 -1.96599,0.91018 -2.87617,2.14802 -0.87377,1.23785 -0.87377,2.76695 0,1.45629 0.47329,2.5121 0.47329,1.0558 1.27425,1.74754 0.83737,0.65533 1.92958,0.98299 1.12863,0.29126 2.40288,0.29126 z"
           style="letter-spacing:-5.60634136px;fill:#d4e7df;fill-opacity:1"
           id="path4174" />
        <path
           d="m 138.18443,921.17133 0,-36.88049 3.89557,0 q 1.38348,0 1.71114,1.34707 l 0.5097,4.00479 q 2.40288,-2.65772 5.38826,-4.29605 2.98539,-1.63832 6.88096,-1.63832 3.0218,0 5.31545,1.0194 2.33006,0.98299 3.85916,2.83976 1.56551,1.82036 2.36647,4.40527 0.80096,2.58491 0.80096,5.71593 l 0,23.48264 -6.51689,0 0,-23.48264 q 0,-4.18683 -1.92958,-6.48048 -1.89317,-2.33006 -5.78874,-2.33006 -2.91258,0 -5.42467,1.38347 -2.47569,1.38348 -4.5509,3.74994 l 0,27.15977 -6.51689,0 z"
           style="letter-spacing:-5.60634136px;fill:#d4e7df;fill-opacity:1"
           id="path4176" />
        <path
           d="m 11.116191,918.51363 0,31.56503 1.674731,0 q 0.728143,0 1.201437,-0.18203 0.509701,-0.21845 1.055808,-0.83737 L 26.698468,936.5716 q 0.5097,-0.61893 1.055808,-0.94659 0.582515,-0.36407 1.529102,-0.36407 l 5.861557,0 -13.579881,14.45365 q -0.982994,1.23784 -2.111617,1.92958 0.65533,0.43689 1.16503,1.0194 0.546108,0.54611 1.019401,1.27425 l 14.417247,18.2036 -5.788743,0 q -0.837365,0 -1.456287,-0.25485 -0.582515,-0.29126 -1.019402,-1.0194 L 15.66709,955.75818 q -0.546108,-0.76455 -1.092216,-0.98299 -0.509701,-0.25485 -1.601916,-0.25485 l -1.856767,0 0,17.62108 -6.5168867,0 0,-53.62779 6.5168867,0 z"
           style="letter-spacing:-0.12626907px;fill:#d4e7df;fill-opacity:1"
           id="path4178" />
        <path
           d="m 54.861719,934.67842 q 4.041198,0 7.281438,1.34707 3.240239,1.34706 5.533892,3.82275 2.293653,2.47569 3.49509,6.00719 1.237845,3.49509 1.237845,7.82754 0,4.36887 -1.237845,7.86396 -1.201437,3.49509 -3.49509,5.97078 -2.293653,2.47568 -5.533892,3.82275 -3.24024,1.31066 -7.281438,1.31066 -4.077605,0 -7.354252,-1.31066 -3.24024,-1.34707 -5.533893,-3.82275 -2.293653,-2.47569 -3.531497,-5.97078 -1.201437,-3.49509 -1.201437,-7.86396 0,-4.33245 1.201437,-7.82754 1.237844,-3.5315 3.531497,-6.00719 2.293653,-2.47569 5.533893,-3.82275 3.276647,-1.34707 7.354252,-1.34707 z m 0,32.9121 q 5.461078,0 8.15521,-3.64072 2.694132,-3.67712 2.694132,-10.23042 0,-6.5897 -2.694132,-10.26683 -2.694132,-3.67712 -8.15521,-3.67712 -2.766946,0 -4.842156,0.94658 -2.038803,0.94659 -3.422276,2.73054 -1.347066,1.78396 -2.038802,4.40527 -0.65533,2.58491 -0.65533,5.86156 0,6.5533 2.694132,10.23042 2.730539,3.64072 8.264432,3.64072 z"
           style="letter-spacing:-0.12626907px;fill:#d4e7df;fill-opacity:1"
           id="path4180" />
        <path
           d="m 75.931259,935.26094 5.097007,0 q 0.764551,0 1.274251,0.40048 0.546108,0.40047 0.728144,0.94658 l 7.062994,23.73749 q 0.291258,1.27425 0.546108,2.5121 0.254851,1.20143 0.436887,2.40287 0.291257,-1.20144 0.655329,-2.40287 0.364072,-1.23785 0.764551,-2.5121 l 7.79114,-23.88312 q 0.18203,-0.5461 0.61892,-0.91018 0.47329,-0.36407 1.12862,-0.36407 l 2.83976,0 q 0.72815,0 1.20144,0.36407 0.47329,0.36408 0.65533,0.91018 l 7.6091,23.88312 q 0.36407,1.27425 0.69174,2.5121 0.32766,1.23784 0.61892,2.43928 0.21844,-1.20144 0.4733,-2.40288 0.29125,-1.23784 0.61892,-2.5485 l 7.20862,-23.73749 q 0.18204,-0.58251 0.69174,-0.94658 0.5097,-0.40048 1.20143,-0.40048 l 4.87857,0 -11.94156,36.88048 -5.13341,0 q -0.94659,0 -1.31066,-1.23785 l -8.15521,-25.01173 q -0.29126,-0.83737 -0.4733,-1.67474 -0.18203,-0.87377 -0.36407,-1.71113 -0.18203,0.83736 -0.40048,1.71113 -0.18203,0.87378 -0.43688,1.71114 l -8.300842,24.97533 q -0.327665,1.23785 -1.456288,1.23785 l -4.878563,0 -11.941558,-36.88048 z"
           style="letter-spacing:-0.12626907px;fill:#d4e7df;fill-opacity:1"
           id="path4182" />
        <path
           d="m 148.15744,983.02717 q -0.32766,0.72814 -0.83736,1.16503 -0.47329,0.43688 -1.4927,0.43688 l -4.80574,0 6.73533,-14.63569 -15.21821,-34.73245 5.60671,0 q 0.83736,0 1.31066,0.43688 0.5097,0.40048 0.69173,0.91018 l 9.86635,23.22779 q 0.29126,0.83736 0.54611,1.63832 0.25485,0.76455 0.43689,1.60192 0.47329,-1.63832 1.09221,-3.27665 l 9.57509,-23.19138 q 0.21844,-0.58251 0.72815,-0.94658 0.5461,-0.40048 1.20143,-0.40048 l 5.13342,0 -20.57007,47.76623 z"
           style="letter-spacing:-0.12626907px;fill:#d4e7df;fill-opacity:1"
           id="path4184" />
        <path
           d="m 3.5070886,1019.1067 q 0,-0.9466 0.3276647,-1.7839 0.3640719,-0.8374 0.9465869,-1.4563 0.6189222,-0.6189 1.4562876,-0.983 0.8373653,-0.3641 1.7839522,-0.3641 0.9465869,0 1.7839522,0.3641 0.8373658,0.3641 1.4562878,0.983 0.618922,0.6189 0.982994,1.4563 0.364072,0.8373 0.364072,1.7839 0,0.983 -0.364072,1.8204 -0.364072,0.8009 -0.982994,1.4199 -0.618922,0.6189 -1.4562878,0.9465 -0.8373653,0.3641 -1.7839522,0.3641 -0.9465869,0 -1.7839522,-0.3641 -0.8373654,-0.3276 -1.4562876,-0.9465 -0.582515,-0.619 -0.9465869,-1.4199 -0.3276647,-0.8374 -0.3276647,-1.8204 z"
           style="letter-spacing:-2.52538157px;fill:#d4e7df;fill-opacity:1"
           id="path4186" />
        <path
           d="m 19.282009,1035.5992 0,-49.36817 3.895569,0 q 1.383474,0 1.711138,1.34707 l 0.546108,4.36886 q 2.366467,-2.87617 5.424671,-4.62371 3.058204,-1.74755 6.99018,-1.74755 3.203833,0 5.788743,1.23784 2.584911,1.20144 4.40527,3.60432 1.820359,2.36646 2.803354,5.89796 0.982994,3.5315 0.982994,8.11878 0,4.0776 -1.092216,7.6091 -1.092216,3.4951 -3.167425,6.08 -2.038803,2.5485 -5.024192,4.0412 -2.948983,1.4563 -6.662516,1.4563 -3.385868,0 -5.82515,-1.1286 -2.402874,-1.1286 -4.259641,-3.2038 l 0,16.3104 -6.516887,0 z m 16.456049,-44.78086 q -3.167425,0 -5.570299,1.45628 -2.366468,1.45629 -4.368863,4.11401 l 0,17.83957 q 1.747545,2.4028 3.859162,3.3858 2.148024,0.983 4.769342,0.983 5.16982,0 7.936767,-3.6771 2.766946,-3.6771 2.766946,-10.4853 0,-3.6043 -0.655329,-6.1892 -0.618923,-2.58491 -1.82036,-4.22323 -1.201437,-1.67473 -2.948982,-2.43928 -1.747545,-0.76455 -3.968384,-0.76455 z"
           style="letter-spacing:-2.52538157px;fill:#d4e7df;fill-opacity:1"
           id="path4188" />
        <path
           d="m 64.271421,969.48372 0,53.62778 -6.480479,0 0,-53.62778 6.480479,0 z"
           style="letter-spacing:-2.52538157px;fill:#d4e7df;fill-opacity:1"
           id="path4190" />
      </g>
      <g
         style="font-style:normal;font-weight:normal;font-size:40px;line-height:125%;font-family:sans-serif;letter-spacing:0px;word-spacing:0px;fill:none;fill-opacity:1;stroke:none;stroke-width:1px;stroke-linecap:butt;stroke-linejoin:miter;stroke-opacity:1"
         id="text3727" />
      <g
         style="font-style:normal;font-weight:normal;font-size:38.65113068px;line-height:89.99999762%;font-family:sans-serif;letter-spacing:0px;word-spacing:0px;fill:#d4e7df;fill-opacity:1;stroke:none;stroke-width:1px;stroke-linecap:butt;stroke-linejoin:miter;stroke-opacity:1"
         id="text4531">
        <path
           d="m 3.9349771,1079.1698 1.5218882,0 q 0.2282832,0 0.3804721,0.1196 0.1630594,0.1196 0.2174126,0.2826 l 2.1089022,7.0877 q 0.086965,0.3805 0.1630595,0.7501 0.076094,0.3587 0.1304476,0.7174 0.086965,-0.3587 0.1956713,-0.7174 0.1087063,-0.3696 0.2282832,-0.7501 l 2.3263152,-7.1312 q 0.05435,-0.163 0.1848,-0.2717 0.141319,-0.1087 0.33699,-0.1087 l 0.847909,0 q 0.217413,0 0.358731,0.1087 0.141318,0.1087 0.195671,0.2717 l 2.271962,7.1312 q 0.108706,0.3805 0.206542,0.7501 0.09784,0.3696 0.184801,0.7283 0.06522,-0.3587 0.141318,-0.7175 0.08697,-0.3696 0.184801,-0.7609 l 2.152384,-7.0877 q 0.05435,-0.1739 0.206542,-0.2826 0.152189,-0.1196 0.358731,-0.1196 l 1.456665,0 -3.565567,11.012 -1.532759,0 q -0.282636,0 -0.391343,-0.3696 l -2.435021,-7.4682 q -0.08696,-0.25 -0.141318,-0.5 -0.05435,-0.2609 -0.108706,-0.5109 -0.05435,0.25 -0.119577,0.5109 -0.05435,0.2609 -0.130448,0.5109 l -2.4785035,7.4573 q -0.097836,0.3696 -0.4348253,0.3696 l -1.4566644,0 -3.5655667,-11.012 z"
           style="font-style:normal;font-variant:normal;font-weight:normal;font-stretch:normal;font-size:21.74126053px;font-family:Lato;-inkscape-font-specification:Lato;letter-spacing:0.39617404px"
           id="path4194" />
        <path
           d="m 22.575464,1090.1818 0,-11.012 1.108805,0 q 0.315248,0 0.434825,0.1196 0.119577,0.1196 0.163059,0.4131 l 0.119577,1.6741 q 0.521791,-1.1306 1.282735,-1.7611 0.771814,-0.6414 1.869748,-0.6414 0.34786,0 0.663109,0.076 0.326118,0.076 0.576143,0.2392 l -0.141318,1.4458 q -0.06522,0.2718 -0.326119,0.2718 -0.152189,0 -0.445696,-0.065 -0.293507,-0.065 -0.663108,-0.065 -0.521791,0 -0.934875,0.1631 -0.413084,0.1522 -0.739203,0.4565 -0.315248,0.2935 -0.565272,0.7284 -0.250025,0.4348 -0.456567,1.0001 l 0,6.9572 -1.945843,0 z"
           style="font-style:normal;font-variant:normal;font-weight:normal;font-stretch:normal;font-size:21.74126053px;font-family:Lato;-inkscape-font-specification:Lato;letter-spacing:0.39617404px"
           id="path4196" />
        <path
           d="m 35.086957,1078.9959 q 1.20664,0 2.174126,0.4022 0.967486,0.4022 1.652336,1.1414 0.68485,0.7392 1.043581,1.7937 0.369601,1.0435 0.369601,2.3372 0,1.3044 -0.369601,2.348 -0.358731,1.0436 -1.043581,1.7828 -0.68485,0.7392 -1.652336,1.1414 -0.967486,0.3914 -2.174126,0.3914 -1.21751,0 -2.195867,-0.3914 -0.967486,-0.4022 -1.652336,-1.1414 -0.684849,-0.7392 -1.054451,-1.7828 -0.358731,-1.0436 -0.358731,-2.348 0,-1.2937 0.358731,-2.3372 0.369602,-1.0545 1.054451,-1.7937 0.68485,-0.7392 1.652336,-1.1414 0.978357,-0.4022 2.195867,-0.4022 z m 0,9.827 q 1.630595,0 2.435022,-1.087 0.804426,-1.098 0.804426,-3.0547 0,-1.9676 -0.804426,-3.0655 -0.804427,-1.0979 -2.435022,-1.0979 -0.826168,0 -1.445793,0.2826 -0.608756,0.2826 -1.02184,0.8153 -0.402213,0.5327 -0.608755,1.3154 -0.195671,0.7718 -0.195671,1.7501 0,1.9567 0.804426,3.0547 0.815298,1.087 2.467633,1.087 z"
           style="font-style:normal;font-variant:normal;font-weight:normal;font-stretch:normal;font-size:21.74126053px;font-family:Lato;-inkscape-font-specification:Lato;letter-spacing:0.39617404px"
           id="path4198" />
        <path
           d="m 50.819552,1081.1265 q -0.08696,0.1196 -0.17393,0.1848 -0.08697,0.065 -0.239154,0.065 -0.163059,0 -0.35873,-0.1305 -0.195672,-0.1413 -0.489179,-0.3044 -0.282636,-0.163 -0.706591,-0.2935 -0.413084,-0.1413 -1.021839,-0.1413 -0.815297,0 -1.434923,0.2935 -0.619626,0.2826 -1.043581,0.8262 -0.413084,0.5435 -0.630496,1.3153 -0.206542,0.7718 -0.206542,1.7285 0,1.0001 0.228283,1.7827 0.228283,0.7719 0.641367,1.3045 0.423955,0.5218 1.010969,0.8044 0.597885,0.2718 1.337087,0.2718 0.706591,0 1.163158,-0.1631 0.456566,-0.1739 0.750073,-0.3804 0.304378,-0.2066 0.500049,-0.3696 0.206542,-0.174 0.402214,-0.174 0.239154,0 0.369601,0.1848 l 0.543532,0.7066 q -0.358731,0.4457 -0.815298,0.761 -0.456566,0.3152 -0.989227,0.5326 -0.52179,0.2066 -1.097934,0.3044 -0.576143,0.098 -1.174028,0.098 -1.03271,0 -1.924101,-0.3805 -0.880521,-0.3805 -1.532759,-1.098 -0.652238,-0.7283 -1.021839,-1.7827 -0.369602,-1.0545 -0.369602,-2.4024 0,-1.2284 0.33699,-2.272 0.34786,-1.0436 1.000098,-1.7937 0.663108,-0.7609 1.619724,-1.1849 0.967486,-0.4239 2.217608,-0.4239 1.163158,0 2.043679,0.3805 0.891391,0.3696 1.576241,1.0544 l -0.51092,0.6957 z"
           style="font-style:normal;font-variant:normal;font-weight:normal;font-stretch:normal;font-size:21.74126053px;font-family:Lato;-inkscape-font-specification:Lato;letter-spacing:0.39617404px"
           id="path4200" />
        <path
           d="m 56.750237,1074.1693 0,5.9245 2.043678,-0.8696 0,1.0979 q 0,0.3587 -0.293507,0.4783 l -1.750171,0.7718 0,8.6096 -1.934973,0 0,-7.903 -1.967584,0.8588 0,-1.1414 q 0,-0.2935 0.271766,-0.4348 l 1.695818,-0.761 0,-6.6311 1.934973,0 z"
           style="font-style:normal;font-variant:normal;font-weight:normal;font-stretch:normal;font-size:21.74126053px;font-family:Lato;-inkscape-font-specification:Lato;letter-spacing:0.39617404px"
           id="path4202" />
        <path
           d="m 68.019077,1090.1818 q -0.282637,0 -0.434826,-0.087 -0.152188,-0.098 -0.239153,-0.3696 l -0.217413,-1.0327 q -0.434825,0.3913 -0.85878,0.7066 -0.413084,0.3044 -0.86965,0.5218 -0.445696,0.2065 -0.967486,0.3152 -0.51092,0.1196 -1.141416,0.1196 -0.641368,0 -1.20664,-0.1739 -0.565273,-0.1848 -0.989228,-0.5436 -0.413084,-0.3587 -0.663108,-0.9022 -0.239154,-0.5544 -0.239154,-1.3045 0,-0.6522 0.358731,-1.2501 0.358731,-0.6088 1.163157,-1.0762 0.804427,-0.4675 2.098032,-0.761 1.293605,-0.3043 3.174224,-0.3478 l 0,-0.8588 q 0,-1.2827 -0.554402,-1.935 -0.554402,-0.6631 -1.619724,-0.6631 -0.717462,0 -1.20664,0.1848 -0.478308,0.1739 -0.837039,0.4022 -0.34786,0.2174 -0.608755,0.4022 -0.250025,0.174 -0.500049,0.174 -0.195671,0 -0.33699,-0.098 -0.141318,-0.1087 -0.239153,-0.2609 l -0.347861,-0.6196 q 0.913133,-0.8805 1.967585,-1.3153 1.054451,-0.4349 2.337185,-0.4349 0.924004,0 1.641465,0.3044 0.717462,0.3044 1.20664,0.8479 0.489178,0.5436 0.739203,1.3154 0.250024,0.7718 0.250024,1.6958 l 0,7.0442 -0.858779,0 z m -4.152581,-1.1849 q 0.51092,0 0.934874,-0.098 0.423955,-0.1087 0.793556,-0.2935 0.380472,-0.1957 0.717462,-0.4674 0.34786,-0.2827 0.673979,-0.6305 l 0,-2.2828 q -1.337088,0.043 -2.282833,0.2174 -0.934874,0.163 -1.532758,0.4348 -0.587014,0.2718 -0.85878,0.6414 -0.260895,0.3696 -0.260895,0.8261 0,0.4349 0.141318,0.7501 0.141318,0.3152 0.380472,0.5218 0.250024,0.1957 0.576143,0.2935 0.33699,0.087 0.717462,0.087 z"
           style="font-style:normal;font-variant:normal;font-weight:normal;font-stretch:normal;font-size:21.74126053px;font-family:Lato;-inkscape-font-specification:Lato;letter-spacing:0.39617404px"
           id="path4204" />
        <path
           d="m 71.02624,1079.1698 1.521888,0 q 0.228283,0 0.380472,0.1196 0.16306,0.1196 0.217413,0.2826 l 2.108902,7.0877 q 0.08697,0.3805 0.16306,0.7501 0.07609,0.3587 0.130447,0.7174 0.08696,-0.3587 0.195671,-0.7174 0.108707,-0.3696 0.228284,-0.7501 l 2.326315,-7.1312 q 0.05435,-0.163 0.1848,-0.2717 0.141318,-0.1087 0.33699,-0.1087 l 0.847909,0 q 0.217413,0 0.358731,0.1087 0.141318,0.1087 0.195671,0.2717 l 2.271962,7.1312 q 0.108706,0.3805 0.206542,0.7501 0.09784,0.3696 0.1848,0.7283 0.06522,-0.3587 0.141319,-0.7175 0.08696,-0.3696 0.1848,-0.7609 l 2.152385,-7.0877 q 0.05435,-0.1739 0.206542,-0.2826 0.152189,-0.1196 0.358731,-0.1196 l 1.456664,0 -3.565566,11.012 -1.532759,0 q -0.282637,0 -0.391343,-0.3696 l -2.435021,-7.4682 q -0.08697,-0.25 -0.141318,-0.5 -0.05435,-0.2609 -0.108707,-0.5109 -0.05435,0.25 -0.119576,0.5109 -0.05435,0.2609 -0.130448,0.5109 l -2.478504,7.4573 q -0.09783,0.3696 -0.434825,0.3696 l -1.456664,0 -3.565567,-11.012 z"
           style="font-style:normal;font-variant:normal;font-weight:normal;font-stretch:normal;font-size:21.74126053px;font-family:Lato;-inkscape-font-specification:Lato;letter-spacing:0.39617404px"
           id="path4206" />
        <path
           d="m 95.953013,1080.9852 q -0.130448,0.2392 -0.402213,0.2392 -0.16306,0 -0.369602,-0.1196 -0.206542,-0.1196 -0.510919,-0.2609 -0.293507,-0.1522 -0.706591,-0.2718 -0.413084,-0.1304 -0.978357,-0.1304 -0.489178,0 -0.880521,0.1304 -0.391343,0.1196 -0.673979,0.337 -0.271766,0.2174 -0.423955,0.5109 -0.141318,0.2827 -0.141318,0.6197 0,0.4239 0.239154,0.7066 0.250024,0.2826 0.652238,0.4891 0.402213,0.2066 0.913133,0.3696 0.510919,0.1522 1.04358,0.337 0.543532,0.174 1.054451,0.3914 0.51092,0.2174 0.913133,0.5435 0.402214,0.3261 0.641367,0.8044 0.250025,0.4675 0.250025,1.1306 0,0.7609 -0.271766,1.4131 -0.271766,0.6414 -0.804426,1.1197 -0.532661,0.4675 -1.304476,0.7392 -0.771815,0.2718 -1.782783,0.2718 -1.152287,0 -2.087161,-0.3696 -0.934875,-0.3805 -1.587113,-0.9675 l 0.456567,-0.7392 q 0.08697,-0.1413 0.206542,-0.2174 0.119577,-0.076 0.304378,-0.076 0.195671,0 0.413084,0.1522 0.217412,0.1522 0.52179,0.337 0.315248,0.1848 0.760944,0.337 0.445696,0.1522 1.108804,0.1522 0.565273,0 0.989228,-0.1414 0.423954,-0.1522 0.706591,-0.4022 0.282636,-0.25 0.413083,-0.5761 0.141319,-0.3261 0.141319,-0.6957 0,-0.4566 -0.250025,-0.7501 -0.239154,-0.3044 -0.641367,-0.5109 -0.402213,-0.2174 -0.924004,-0.3696 -0.510919,-0.1631 -1.054451,-0.337 -0.532661,-0.174 -1.054451,-0.3914 -0.510919,-0.2283 -0.913133,-0.5652 -0.402213,-0.337 -0.652238,-0.8262 -0.239153,-0.5001 -0.239153,-1.2067 0,-0.6304 0.260895,-1.2066 0.260895,-0.587 0.760944,-1.0218 0.500049,-0.4457 1.228381,-0.7066 0.728332,-0.2609 1.663206,-0.2609 1.087063,0 1.945843,0.3478 0.869651,0.337 1.500147,0.9349 l -0.434825,0.7066 z"
           style="font-style:normal;font-variant:normal;font-weight:normal;font-stretch:normal;font-size:21.74126053px;font-family:Lato;-inkscape-font-specification:Lato;letter-spacing:0.39617404px"
           id="path4208" />
        <path
           d="m 101.30823,1074.1693 0,9.4249 0.50005,0 q 0.21741,0 0.35873,-0.054 0.15219,-0.065 0.31525,-0.25 l 3.4786,-3.7286 q 0.15219,-0.1848 0.31525,-0.2827 0.17393,-0.1087 0.45656,-0.1087 l 1.75017,0 -4.05474,4.3157 q -0.29351,0.3696 -0.6305,0.5761 0.19567,0.1304 0.34786,0.3044 0.16306,0.163 0.30438,0.3804 l 4.30477,5.4354 -1.72843,0 q -0.25003,0 -0.43483,-0.076 -0.17393,-0.087 -0.30437,-0.3044 l -3.61992,-4.5113 q -0.16306,-0.2283 -0.32612,-0.2935 -0.15219,-0.076 -0.47831,-0.076 l -0.5544,0 0,5.2614 -1.945845,0 0,-16.0125 1.945845,0 z"
           style="font-style:normal;font-variant:normal;font-weight:normal;font-stretch:normal;font-size:21.74126053px;font-family:Lato;-inkscape-font-specification:Lato;letter-spacing:0.39617404px"
           id="path4210" />
        <path
           d="m 112.84272,1079.1698 0,11.012 -1.93497,0 0,-11.012 1.93497,0 z m 0.41309,-3.4568 q 0,0.2826 -0.11958,0.5326 -0.10871,0.2392 -0.30438,0.4348 -0.1848,0.1848 -0.44569,0.2935 -0.25003,0.1088 -0.53266,0.1088 -0.28264,0 -0.53266,-0.1088 -0.23916,-0.1087 -0.42396,-0.2935 -0.1848,-0.1956 -0.29351,-0.4348 -0.1087,-0.25 -0.1087,-0.5326 0,-0.2827 0.1087,-0.5327 0.10871,-0.2609 0.29351,-0.4457 0.1848,-0.1957 0.42396,-0.3044 0.25002,-0.1087 0.53266,-0.1087 0.28263,0 0.53266,0.1087 0.26089,0.1087 0.44569,0.3044 0.19567,0.1848 0.30438,0.4457 0.11958,0.25 0.11958,0.5327 z"
           style="font-style:normal;font-variant:normal;font-weight:normal;font-stretch:normal;font-size:21.74126053px;font-family:Lato;-inkscape-font-specification:Lato;letter-spacing:0.39617404px"
           id="path4212" />
        <path
           d="m 122.37709,1090.1818 0,-16.0125 1.94585,0 0,6.5985 q 0.68485,-0.8153 1.56537,-1.2936 0.88052,-0.4783 2.02194,-0.4783 0.96748,0 1.7393,0.3696 0.78268,0.3696 1.32621,1.0762 0.54353,0.6957 0.82617,1.6958 0.29351,1.0001 0.29351,2.2502 0,1.3371 -0.32612,2.435 -0.32612,1.098 -0.94575,1.8807 -0.60875,0.7718 -1.48927,1.2066 -0.88052,0.424 -1.97846,0.424 -1.08706,0 -1.83713,-0.4023 -0.73921,-0.413 -1.29361,-1.1631 l -0.0978,1.0001 q -0.087,0.4131 -0.50005,0.4131 l -1.25013,0 z m 4.89179,-9.6423 q -0.94575,0 -1.65234,0.4348 -0.70659,0.4349 -1.2936,1.2284 l 0,5.3266 q 0.53266,0.7175 1.16315,1.011 0.64137,0.2935 1.40232,0.2935 1.5545,0 2.38066,-1.0979 0.82617,-1.098 0.82617,-3.2721 0,-2.0219 -0.7392,-2.9677 -0.72833,-0.9566 -2.08716,-0.9566 z"
           style="font-style:normal;font-variant:normal;font-weight:normal;font-stretch:normal;font-size:21.74126053px;font-family:Lato;-inkscape-font-specification:Lato;letter-spacing:0.39617404px"
           id="path4214" />
        <path
           d="m 136.96046,1074.1693 0,16.0125 -1.93497,0 0,-16.0125 1.93497,0 z"
           style="font-style:normal;font-variant:normal;font-weight:normal;font-stretch:normal;font-size:21.74126053px;font-family:Lato;-inkscape-font-specification:Lato;letter-spacing:0.39617404px"
           id="path4216" />
        <path
           d="m 145.13628,1078.9959 q 1.20664,0 2.17412,0.4022 0.96749,0.4022 1.65234,1.1414 0.68485,0.7392 1.04358,1.7937 0.3696,1.0435 0.3696,2.3372 0,1.3044 -0.3696,2.348 -0.35873,1.0436 -1.04358,1.7828 -0.68485,0.7392 -1.65234,1.1414 -0.96748,0.3914 -2.17412,0.3914 -1.21751,0 -2.19587,-0.3914 -0.96749,-0.4022 -1.65234,-1.1414 -0.68485,-0.7392 -1.05445,-1.7828 -0.35873,-1.0436 -0.35873,-2.348 0,-1.2937 0.35873,-2.3372 0.3696,-1.0545 1.05445,-1.7937 0.68485,-0.7392 1.65234,-1.1414 0.97836,-0.4022 2.19587,-0.4022 z m 0,9.827 q 1.63059,0 2.43502,-1.087 0.80443,-1.098 0.80443,-3.0547 0,-1.9676 -0.80443,-3.0655 -0.80443,-1.0979 -2.43502,-1.0979 -0.82617,0 -1.4458,0.2826 -0.60875,0.2826 -1.02184,0.8153 -0.40221,0.5327 -0.60875,1.3154 -0.19567,0.7718 -0.19567,1.7501 0,1.9567 0.80442,3.0547 0.8153,1.087 2.46764,1.087 z"
           style="font-style:normal;font-variant:normal;font-weight:normal;font-stretch:normal;font-size:21.74126053px;font-family:Lato;-inkscape-font-specification:Lato;letter-spacing:0.39617404px"
           id="path4218" />
        <path
           d="m 157.04241,1078.985 q 0.71746,0 1.33708,0.1631 0.61963,0.1522 1.13055,0.4565 l 2.98942,0 0,0.7175 q 0,0.3587 -0.45656,0.4566 l -1.25013,0.1739 q 0.36961,0.7066 0.36961,1.5762 0,0.8045 -0.31525,1.4676 -0.30438,0.6522 -0.84791,1.1196 -0.54353,0.4675 -1.30448,0.7175 -0.76094,0.25 -1.65233,0.25 -0.78269,0 -1.46754,-0.1848 -0.34786,0.2174 -0.53266,0.4675 -0.17393,0.25 -0.17393,0.4891 0,0.3914 0.31525,0.5979 0.32612,0.1957 0.84791,0.2827 0.52179,0.087 1.1849,0.1087 0.67398,0.022 1.3697,0.076 0.70659,0.043 1.3697,0.163 0.67397,0.1196 1.19577,0.3914 0.52179,0.2717 0.83703,0.75 0.32612,0.4784 0.32612,1.2393 0,0.7066 -0.35873,1.3697 -0.34786,0.6631 -1.01097,1.174 -0.66311,0.5218 -1.63059,0.8262 -0.95662,0.3152 -2.16326,0.3152 -1.20664,0 -2.1089,-0.2391 -0.90226,-0.2392 -1.50015,-0.6414 -0.59788,-0.4022 -0.90226,-0.9349 -0.29351,-0.5217 -0.29351,-1.0979 0,-0.8153 0.51092,-1.3806 0.51092,-0.5652 1.39144,-0.9022 -0.48917,-0.2174 -0.77181,-0.5762 -0.28264,-0.3696 -0.28264,-0.9892 0,-0.2391 0.087,-0.4892 0.087,-0.2609 0.26089,-0.5109 0.1848,-0.25 0.4457,-0.4783 0.26089,-0.2283 0.60876,-0.4022 -0.8153,-0.4566 -1.27187,-1.2175 -0.45657,-0.761 -0.45657,-1.7611 0,-0.8044 0.30438,-1.4566 0.31525,-0.6631 0.86965,-1.1197 0.55441,-0.4674 1.31535,-0.7175 0.77181,-0.25 1.68495,-0.25 z m 3.48947,11.7946 q 0,-0.4022 -0.22828,-0.6522 -0.22829,-0.25 -0.61963,-0.3913 -0.38047,-0.1414 -0.89139,-0.1957 -0.51092,-0.065 -1.08706,-0.098 -0.56528,-0.033 -1.15229,-0.065 -0.58702,-0.033 -1.13055,-0.1087 -0.60875,0.2827 -1.00009,0.7066 -0.38048,0.424 -0.38048,1.011 0,0.3696 0.1848,0.6848 0.19568,0.3262 0.58702,0.5544 0.39134,0.2392 0.97835,0.3696 0.59789,0.1414 1.40232,0.1414 0.78268,0 1.40231,-0.1414 0.61962,-0.1413 1.04358,-0.4022 0.43482,-0.2609 0.66311,-0.6196 0.22828,-0.3587 0.22828,-0.7936 z m -3.48947,-5.9788 q 0.58701,0 1.03271,-0.1631 0.44569,-0.163 0.75007,-0.4565 0.30438,-0.2935 0.45657,-0.6957 0.15219,-0.4131 0.15219,-0.9023 0,-1.011 -0.61963,-1.6089 -0.60876,-0.5978 -1.77191,-0.5978 -1.17403,0 -1.79366,0.5978 -0.60875,0.5979 -0.60875,1.6089 0,0.4892 0.15219,0.9023 0.16306,0.4022 0.46743,0.6957 0.30438,0.2935 0.75008,0.4565 0.44569,0.1631 1.03271,0.1631 z"
           style="font-style:normal;font-variant:normal;font-weight:normal;font-stretch:normal;font-size:21.74126053px;font-family:Lato;-inkscape-font-specification:Lato;letter-spacing:0.39617404px"
           id="path4220" />
        <path
           d="m 9.7507643,1098.563 q 1.2066397,0 2.1741257,0.4022 0.967486,0.4022 1.652336,1.1414 0.68485,0.7393 1.043581,1.7937 0.369601,1.0436 0.369601,2.3372 0,1.3045 -0.369601,2.348 -0.358731,1.0436 -1.043581,1.7828 -0.68485,0.7392 -1.652336,1.1414 -0.967486,0.3914 -2.1741257,0.3914 -1.2175106,0 -2.1958674,-0.3914 -0.9674861,-0.4022 -1.6523358,-1.1414 -0.6848497,-0.7392 -1.0544511,-1.7828 -0.3587308,-1.0435 -0.3587308,-2.348 0,-1.2936 0.3587308,-2.3372 0.3696014,-1.0544 1.0544511,-1.7937 0.6848497,-0.7392 1.6523358,-1.1414 0.9783568,-0.4022 2.1958674,-0.4022 z m 0,9.8271 q 1.6305947,0 2.4350207,-1.0871 0.804427,-1.0979 0.804427,-3.0546 0,-1.9676 -0.804427,-3.0656 -0.804426,-1.0979 -2.4350207,-1.0979 -0.8261679,0 -1.4457939,0.2826 -0.6087553,0.2827 -1.0218392,0.8153 -0.4022133,0.5327 -0.6087553,1.3154 -0.1956714,0.7718 -0.1956714,1.7502 0,1.9567 0.8044267,3.0546 0.8152973,1.0871 2.4676331,1.0871 z"
           style="font-style:normal;font-variant:normal;font-weight:normal;font-stretch:normal;font-size:21.74126053px;line-height:89.99999762%;font-family:Lato;-inkscape-font-specification:Lato;letter-spacing:-1.08223152px;word-spacing:-3.15972877px"
           id="path4222" />
        <path
           d="m 17.661904,1113.4775 0,-14.7406 1.163158,0 q 0.413084,0 0.51092,0.4023 l 0.163059,1.3044 q 0.706591,-0.8587 1.619724,-1.3805 0.913133,-0.5218 2.087161,-0.5218 0.956615,0 1.72843,0.3696 0.771815,0.3587 1.315346,1.0762 0.543532,0.7066 0.837039,1.761 0.293507,1.0545 0.293507,2.4242 0,1.2175 -0.326119,2.2719 -0.326119,1.0436 -0.945745,1.8154 -0.608755,0.761 -1.500147,1.2067 -0.880521,0.4348 -1.989325,0.4348 -1.010969,0 -1.739301,-0.337 -0.717462,-0.337 -1.271864,-0.9566 l 0,4.87 -1.945843,0 z m 4.913525,-13.3709 q -0.945744,0 -1.663206,0.4349 -0.706591,0.4348 -1.304476,1.2284 l 0,5.3266 q 0.521791,0.7174 1.152287,1.0109 0.641367,0.2935 1.424053,0.2935 1.543629,0 2.369797,-1.0979 0.826168,-1.0979 0.826168,-3.1307 0,-1.0762 -0.195671,-1.848 -0.184801,-0.7719 -0.543532,-1.261 -0.358731,-0.5001 -0.880521,-0.7284 -0.52179,-0.2283 -1.184899,-0.2283 z"
           style="font-style:normal;font-variant:normal;font-weight:normal;font-stretch:normal;font-size:21.74126053px;line-height:89.99999762%;font-family:Lato;-inkscape-font-specification:Lato;letter-spacing:-1.08223152px;word-spacing:-3.15972877px"
           id="path4224" />
        <path
           d="m 33.408428,1098.563 q 1.20664,0 2.174126,0.4022 0.967486,0.4022 1.652335,1.1414 0.68485,0.7393 1.043581,1.7937 0.369601,1.0436 0.369601,2.3372 0,1.3045 -0.369601,2.348 -0.358731,1.0436 -1.043581,1.7828 -0.684849,0.7392 -1.652335,1.1414 -0.967486,0.3914 -2.174126,0.3914 -1.217511,0 -2.195868,-0.3914 -0.967486,-0.4022 -1.652336,-1.1414 -0.684849,-0.7392 -1.054451,-1.7828 -0.35873,-1.0435 -0.35873,-2.348 0,-1.2936 0.35873,-2.3372 0.369602,-1.0544 1.054451,-1.7937 0.68485,-0.7392 1.652336,-1.1414 0.978357,-0.4022 2.195868,-0.4022 z m 0,9.8271 q 1.630594,0 2.435021,-1.0871 0.804426,-1.0979 0.804426,-3.0546 0,-1.9676 -0.804426,-3.0656 -0.804427,-1.0979 -2.435021,-1.0979 -0.826168,0 -1.445794,0.2826 -0.608756,0.2827 -1.021839,0.8153 -0.402214,0.5327 -0.608756,1.3154 -0.195671,0.7718 -0.195671,1.7502 0,1.9567 0.804427,3.0546 0.815297,1.0871 2.467633,1.0871 z"
           style="font-style:normal;font-variant:normal;font-weight:normal;font-stretch:normal;font-size:21.74126053px;line-height:89.99999762%;font-family:Lato;-inkscape-font-specification:Lato;letter-spacing:-1.08223152px;word-spacing:-3.15972877px"
           id="path4226" />
        <path
           d="m 47.956123,1109.7489 q -0.413084,0 -0.52179,-0.4022 l -0.173931,-1.3371 q -0.706591,0.8588 -1.619723,1.3806 -0.902263,0.5109 -2.076291,0.5109 -0.945745,0 -1.717559,-0.3587 -0.771815,-0.3696 -1.315347,-1.0762 -0.543531,-0.7066 -0.837038,-1.7611 -0.293507,-1.0544 -0.293507,-2.4241 0,-1.2175 0.326119,-2.2611 0.326119,-1.0545 0.934874,-1.8263 0.608755,-0.7718 1.489276,-1.2066 0.891392,-0.4457 2.000196,-0.4457 1.010969,0 1.72843,0.3478 0.728333,0.337 1.293605,0.9567 l 0,-6.1093 1.934973,0 0,16.0124 -1.152287,0 z m -3.761238,-1.4132 q 0.956615,0 1.663206,-0.4348 0.717462,-0.4348 1.315346,-1.2284 l 0,-5.3157 q -0.543531,-0.7175 -1.174028,-1.011 -0.630496,-0.2935 -1.413182,-0.2935 -1.532758,0 -2.358926,1.0979 -0.826168,1.098 -0.826168,3.1308 0,1.0762 0.1848,1.848 0.184801,0.7609 0.543532,1.261 0.358731,0.4891 0.880521,0.7174 0.52179,0.2283 1.184899,0.2283 z"
           style="font-style:normal;font-variant:normal;font-weight:normal;font-stretch:normal;font-size:21.74126053px;line-height:89.99999762%;font-family:Lato;-inkscape-font-specification:Lato;letter-spacing:-1.08223152px;word-spacing:-3.15972877px"
           id="path4228" />
        <path
           d="m 51.103584,1109.7489 0,-11.012 1.108805,0 q 0.315248,0 0.434825,0.1196 0.119577,0.1196 0.163059,0.4131 l 0.119577,1.6741 q 0.521791,-1.1306 1.282735,-1.7611 0.771814,-0.6413 1.869748,-0.6413 0.34786,0 0.663109,0.076 0.326118,0.076 0.576143,0.2391 l -0.141318,1.4458 q -0.06522,0.2718 -0.326119,0.2718 -0.152189,0 -0.445696,-0.065 -0.293507,-0.065 -0.663108,-0.065 -0.521791,0 -0.934875,0.1631 -0.413084,0.1522 -0.739202,0.4566 -0.315249,0.2935 -0.565273,0.7283 -0.250025,0.4348 -0.456567,1.0001 l 0,6.9572 -1.945843,0 z"
           style="font-style:normal;font-variant:normal;font-weight:normal;font-stretch:normal;font-size:21.74126053px;line-height:89.99999762%;font-family:Lato;-inkscape-font-specification:Lato;letter-spacing:-1.08223152px;word-spacing:-3.15972877px"
           id="path4230" />
        <path
           d="m 56.875285,1109.7489 0,0 z m 5.261385,-11.1859 q 1.20664,0 2.174127,0.4022 0.967486,0.4022 1.652335,1.1414 0.68485,0.7393 1.043581,1.7937 0.369601,1.0436 0.369601,2.3372 0,1.3045 -0.369601,2.348 -0.358731,1.0436 -1.043581,1.7828 -0.684849,0.7392 -1.652335,1.1414 -0.967487,0.3914 -2.174127,0.3914 -1.21751,0 -2.195867,-0.3914 -0.967486,-0.4022 -1.652336,-1.1414 -0.684849,-0.7392 -1.054451,-1.7828 -0.358731,-1.0435 -0.358731,-2.348 0,-1.2936 0.358731,-2.3372 0.369602,-1.0544 1.054451,-1.7937 0.68485,-0.7392 1.652336,-1.1414 0.978357,-0.4022 2.195867,-0.4022 z m 0,9.8271 q 1.630595,0 2.435022,-1.0871 0.804426,-1.0979 0.804426,-3.0546 0,-1.9676 -0.804426,-3.0656 -0.804427,-1.0979 -2.435022,-1.0979 -0.826167,0 -1.445793,0.2826 -0.608756,0.2827 -1.02184,0.8153 -0.402213,0.5327 -0.608755,1.3154 -0.195671,0.7718 -0.195671,1.7502 0,1.9567 0.804426,3.0546 0.815298,1.0871 2.467633,1.0871 z m 3.174225,-14.3927 -2.532857,2.8046 q -0.152189,0.163 -0.304378,0.2391 -0.141318,0.065 -0.369601,0.065 l -1.152287,0 1.608853,-2.6307 q 0.152189,-0.2501 0.326119,-0.3588 0.184801,-0.1195 0.532661,-0.1195 l 1.89149,0 z"
           style="font-style:normal;font-variant:normal;font-weight:normal;font-stretch:normal;font-size:21.74126053px;line-height:89.99999762%;font-family:Lato;-inkscape-font-specification:Lato;letter-spacing:-1.08223152px;word-spacing:-3.15972877px"
           id="path4232" />
        <path
           d="m 67.612489,1109.7489 0,0 z m 8.500833,-10.1858 q 0,0.2066 -0.07609,0.4022 -0.06522,0.1957 -0.184801,0.337 l -5.967976,7.9356 6.022329,0 0,1.511 -8.294291,0 0,-0.8044 q 0,-0.1413 0.06522,-0.3261 0.06522,-0.1957 0.195671,-0.3697 l 6.000588,-7.9899 -5.924493,0 0,-1.5219 8.163843,0 0,0.8262 z m -2.59808,-4.3591 q 0,0.2826 -0.119577,0.5327 -0.108707,0.2391 -0.304378,0.4239 -0.184801,0.1848 -0.434825,0.2935 -0.250025,0.1087 -0.532661,0.1087 -0.282637,0 -0.532661,-0.1087 -0.239154,-0.1087 -0.423955,-0.2935 -0.1848,-0.1848 -0.293507,-0.4239 -0.108706,-0.2501 -0.108706,-0.5327 0,-0.2826 0.108706,-0.5327 0.108707,-0.2609 0.293507,-0.4457 0.184801,-0.1956 0.423955,-0.3043 0.250024,-0.1087 0.532661,-0.1087 0.282636,0 0.532661,0.1087 0.250024,0.1087 0.434825,0.3043 0.195671,0.1848 0.304378,0.4457 0.119577,0.2501 0.119577,0.5327 z"
           style="font-style:normal;font-variant:normal;font-weight:normal;font-stretch:normal;font-size:21.74126053px;line-height:89.99999762%;font-family:Lato;-inkscape-font-specification:Lato;letter-spacing:-1.08223152px;word-spacing:-3.15972877px"
           id="path4234" />
        <path
           d="m 84.242252,1109.7489 q -0.282637,0 -0.434825,-0.087 -0.152189,-0.098 -0.239154,-0.3696 l -0.217413,-1.0327 q -0.434825,0.3914 -0.85878,0.7066 -0.413084,0.3044 -0.86965,0.5218 -0.445696,0.2065 -0.967486,0.3152 -0.51092,0.1196 -1.141416,0.1196 -0.641368,0 -1.20664,-0.1739 -0.565273,-0.1848 -0.989228,-0.5435 -0.413084,-0.3588 -0.663108,-0.9023 -0.239154,-0.5544 -0.239154,-1.3045 0,-0.6522 0.358731,-1.2501 0.358731,-0.6088 1.163157,-1.0762 0.804427,-0.4674 2.098032,-0.7609 1.293605,-0.3044 3.174224,-0.3479 l 0,-0.8588 q 0,-1.2827 -0.554402,-1.9349 -0.554402,-0.6632 -1.619724,-0.6632 -0.717462,0 -1.20664,0.1848 -0.478308,0.174 -0.837039,0.4023 -0.34786,0.2174 -0.608755,0.4022 -0.250024,0.1739 -0.500049,0.1739 -0.195671,0 -0.336989,-0.098 -0.141319,-0.1087 -0.239154,-0.2609 l -0.347861,-0.6197 q 0.913133,-0.8805 1.967585,-1.3153 1.054451,-0.4348 2.337185,-0.4348 0.924004,0 1.641465,0.3044 0.717462,0.3043 1.20664,0.8479 0.489179,0.5435 0.739203,1.3153 0.250025,0.7718 0.250025,1.6958 l 0,7.0442 -0.85878,0 z m -4.152581,-1.1849 q 0.51092,0 0.934874,-0.098 0.423955,-0.1087 0.793556,-0.2935 0.380472,-0.1957 0.717462,-0.4675 0.34786,-0.2826 0.673979,-0.6305 l 0,-2.2828 q -1.337088,0.043 -2.282832,0.2174 -0.934875,0.1631 -1.532759,0.4348 -0.587014,0.2718 -0.85878,0.6414 -0.260895,0.3696 -0.260895,0.8262 0,0.4348 0.141318,0.75 0.141318,0.3153 0.380472,0.5218 0.250024,0.1957 0.576143,0.2935 0.33699,0.087 0.717462,0.087 z"
           style="font-style:normal;font-variant:normal;font-weight:normal;font-stretch:normal;font-size:21.74126053px;line-height:89.99999762%;font-family:Lato;-inkscape-font-specification:Lato;letter-spacing:-1.08223152px;word-spacing:-3.15972877px"
           id="path4236" />
        <path
           d="m 94.608829,1100.6937 q -0.08697,0.1195 -0.173931,0.1848 -0.08697,0.065 -0.239153,0.065 -0.16306,0 -0.358731,-0.1305 -0.195672,-0.1413 -0.489179,-0.3043 -0.282636,-0.1631 -0.706591,-0.2935 -0.413084,-0.1414 -1.021839,-0.1414 -0.815297,0 -1.434923,0.2935 -0.619626,0.2827 -1.043581,0.8262 -0.413083,0.5435 -0.630496,1.3154 -0.206542,0.7718 -0.206542,1.7284 0,1.0001 0.228283,1.7828 0.228283,0.7718 0.641367,1.3044 0.423955,0.5218 1.010969,0.8045 0.597885,0.2717 1.337088,0.2717 0.70659,0 1.163157,-0.163 0.456566,-0.174 0.750073,-0.3805 0.304378,-0.2065 0.500049,-0.3696 0.206542,-0.1739 0.402214,-0.1739 0.239154,0 0.369601,0.1848 l 0.543532,0.7066 q -0.358731,0.4457 -0.815298,0.7609 -0.456566,0.3153 -0.989227,0.5327 -0.52179,0.2065 -1.097934,0.3043 -0.576143,0.098 -1.174028,0.098 -1.03271,0 -1.924101,-0.3805 -0.880521,-0.3805 -1.532759,-1.0979 -0.652238,-0.7284 -1.021839,-1.7828 -0.369602,-1.0545 -0.369602,-2.4024 0,-1.2284 0.33699,-2.272 0.34786,-1.0436 1.000098,-1.7936 0.663108,-0.761 1.619724,-1.1849 0.967486,-0.424 2.217608,-0.424 1.163158,0 2.043679,0.3805 0.891391,0.3696 1.576241,1.0544 l -0.510919,0.6958 z"
           style="font-style:normal;font-variant:normal;font-weight:normal;font-stretch:normal;font-size:21.74126053px;line-height:89.99999762%;font-family:Lato;-inkscape-font-specification:Lato;letter-spacing:-1.08223152px;word-spacing:-3.15972877px"
           id="path4238" />
        <path
           d="m 96.223873,1109.7489 0,-16.0124 1.945843,0 0,6.4789 q 0.706591,-0.7501 1.565371,-1.1958 0.858783,-0.4566 1.978453,-0.4566 0.90226,0 1.58711,0.3044 0.69572,0.2935 1.15229,0.8479 0.46744,0.5435 0.70659,1.3154 0.23916,0.7718 0.23916,1.7066 l 0,7.0116 -1.94585,0 0,-7.0116 q 0,-1.2501 -0.57614,-1.9349 -0.56527,-0.6958 -1.72843,-0.6958 -0.86965,0 -1.619725,0.4131 -0.739203,0.4131 -1.358829,1.1197 l 0,8.1095 -1.945843,0 z"
           style="font-style:normal;font-variant:normal;font-weight:normal;font-stretch:normal;font-size:21.74126053px;line-height:89.99999762%;font-family:Lato;-inkscape-font-specification:Lato;letter-spacing:-1.08223152px;word-spacing:-3.15972877px"
           id="path4240" />
        <path
           d="m 116.20549,1099.5631 q 0,0.2066 -0.0761,0.4022 -0.0652,0.1957 -0.1848,0.337 l -5.96798,7.9356 6.02233,0 0,1.511 -8.29429,0 0,-0.8044 q 0,-0.1413 0.0652,-0.3261 0.0652,-0.1957 0.19568,-0.3697 l 6.00058,-7.9899 -5.92449,0 0,-1.5219 8.16384,0 0,0.8262 z"
           style="font-style:normal;font-variant:normal;font-weight:normal;font-stretch:normal;font-size:21.74126053px;line-height:89.99999762%;font-family:Lato;-inkscape-font-specification:Lato;letter-spacing:-1.08223152px;word-spacing:-3.15972877px"
           id="path4242" />
        <path
           d="m 118.65448,1113.4775 0,-14.7406 1.16315,0 q 0.41309,0 0.51092,0.4023 l 0.16306,1.3044 q 0.70659,-0.8587 1.61973,-1.3805 0.91313,-0.5218 2.08716,-0.5218 0.95661,0 1.72843,0.3696 0.77181,0.3587 1.31534,1.0762 0.54354,0.7066 0.83704,1.761 0.29351,1.0545 0.29351,2.4242 0,1.2175 -0.32612,2.2719 -0.32612,1.0436 -0.94574,1.8154 -0.60876,0.761 -1.50015,1.2067 -0.88052,0.4348 -1.98933,0.4348 -1.01096,0 -1.7393,-0.337 -0.71746,-0.337 -1.27186,-0.9566 l 0,4.87 -1.94584,0 z m 4.91352,-13.3709 q -0.94574,0 -1.66321,0.4349 -0.70659,0.4348 -1.30447,1.2284 l 0,5.3266 q 0.52179,0.7174 1.15229,1.0109 0.64136,0.2935 1.42405,0.2935 1.54363,0 2.3698,-1.0979 0.82616,-1.0979 0.82616,-3.1307 0,-1.0762 -0.19567,-1.848 -0.1848,-0.7719 -0.54353,-1.261 -0.35873,-0.5001 -0.88052,-0.7284 -0.52179,-0.2283 -1.1849,-0.2283 z"
           style="font-style:normal;font-variant:normal;font-weight:normal;font-stretch:normal;font-size:21.74126053px;line-height:89.99999762%;font-family:Lato;-inkscape-font-specification:Lato;letter-spacing:-1.08223152px;word-spacing:-3.15972877px"
           id="path4244" />
        <path
           d="m 136.17292,1100.5523 q -0.13045,0.2392 -0.40222,0.2392 -0.16306,0 -0.3696,-0.1196 -0.20654,-0.1196 -0.51092,-0.2609 -0.29351,-0.1522 -0.70659,-0.2717 -0.41308,-0.1305 -0.97836,-0.1305 -0.48918,0 -0.88052,0.1305 -0.39134,0.1195 -0.67398,0.3369 -0.27176,0.2175 -0.42395,0.511 -0.14132,0.2826 -0.14132,0.6196 0,0.4239 0.23915,0.7066 0.25003,0.2826 0.65224,0.4892 0.40222,0.2065 0.91313,0.3696 0.51092,0.1522 1.04359,0.337 0.54353,0.1739 1.05445,0.3913 0.51092,0.2174 0.91313,0.5435 0.40221,0.3261 0.64137,0.8045 0.25002,0.4674 0.25002,1.1305 0,0.7609 -0.27176,1.4132 -0.27177,0.6414 -0.80443,1.1197 -0.53266,0.4674 -1.30448,0.7392 -0.77181,0.2717 -1.78278,0.2717 -1.15229,0 -2.08716,-0.3696 -0.93488,-0.3804 -1.58711,-0.9675 l 0.45656,-0.7392 q 0.087,-0.1413 0.20654,-0.2174 0.11958,-0.076 0.30438,-0.076 0.19567,0 0.41309,0.1522 0.21741,0.1522 0.52179,0.337 0.31525,0.1848 0.76094,0.337 0.4457,0.1522 1.10881,0.1522 0.56527,0 0.98922,-0.1413 0.42396,-0.1522 0.70659,-0.4022 0.28264,-0.2501 0.41309,-0.5762 0.14132,-0.3261 0.14132,-0.6957 0,-0.4566 -0.25003,-0.7501 -0.23915,-0.3044 -0.64137,-0.5109 -0.40221,-0.2174 -0.924,-0.3696 -0.51092,-0.1631 -1.05445,-0.337 -0.53266,-0.1739 -1.05445,-0.3913 -0.51092,-0.2283 -0.91313,-0.5653 -0.40222,-0.337 -0.65224,-0.8262 -0.23916,-0.5 -0.23916,-1.2066 0,-0.6305 0.2609,-1.2067 0.26089,-0.587 0.76094,-1.0218 0.50005,-0.4457 1.22838,-0.7066 0.72834,-0.2609 1.66321,-0.2609 1.08706,0 1.94584,0.3479 0.86965,0.337 1.50015,0.9349 l -0.43482,0.7065 z"
           style="font-style:normal;font-variant:normal;font-weight:normal;font-stretch:normal;font-size:21.74126053px;line-height:89.99999762%;font-family:Lato;-inkscape-font-specification:Lato;letter-spacing:-1.08223152px;word-spacing:-3.15972877px"
           id="path4246" />
        <path
           d="m 142.6152,1098.563 q 0.98923,0 1.82627,0.337 0.84791,0.3261 1.45667,0.9566 0.61962,0.6196 0.96748,1.5437 0.34786,0.9131 0.34786,2.0871 0,0.4566 -0.0978,0.6088 -0.0978,0.1522 -0.36961,0.1522 l -7.35941,0 q 0.0217,1.0435 0.28263,1.8154 0.2609,0.7718 0.71747,1.2936 0.45656,0.5109 1.08706,0.7718 0.6305,0.25 1.41318,0.25 0.72833,0 1.25012,-0.1631 0.53266,-0.1739 0.91314,-0.3696 0.38047,-0.1956 0.63049,-0.3587 0.2609,-0.1739 0.4457,-0.1739 0.23915,0 0.3696,0.1848 l 0.54353,0.7066 q -0.35873,0.4348 -0.85878,0.7609 -0.50005,0.3153 -1.07619,0.5218 -0.56527,0.2065 -1.17403,0.3044 -0.60875,0.1087 -1.20664,0.1087 -1.14141,0 -2.1089,-0.3805 -0.95662,-0.3913 -1.66321,-1.1305 -0.69572,-0.7501 -1.08706,-1.848 -0.39134,-1.098 -0.39134,-2.522 0,-1.1523 0.34786,-2.1524 0.35873,-1.0001 1.02184,-1.7284 0.6631,-0.7392 1.61972,-1.1523 0.95662,-0.424 2.15238,-0.424 z m 0.0435,1.4241 q -1.40231,0 -2.20674,0.8153 -0.80443,0.8044 -1.0001,2.2393 l 6.02233,0 q 0,-0.674 -0.19567,-1.2284 -0.1848,-0.5652 -0.5544,-0.9674 -0.35873,-0.4131 -0.88052,-0.6305 -0.52179,-0.2283 -1.1849,-0.2283 z"
           style="font-style:normal;font-variant:normal;font-weight:normal;font-stretch:normal;font-size:21.74126053px;line-height:89.99999762%;font-family:Lato;-inkscape-font-specification:Lato;letter-spacing:-1.08223152px;word-spacing:-3.15972877px"
           id="path4248" />
        <path
           d="m 148.48677,1109.7489 0,-11.012 1.16315,0 q 0.41309,0 0.51092,0.4023 l 0.14132,1.1305 q 0.60876,-0.7501 1.3697,-1.2284 0.76095,-0.4783 1.76104,-0.4783 1.10881,0 1.79366,0.6196 0.69572,0.6197 1.0001,1.6741 0.23915,-0.5979 0.60875,-1.0327 0.38047,-0.4348 0.84791,-0.7175 0.46744,-0.2826 0.98923,-0.413 0.53266,-0.1305 1.07619,-0.1305 0.86965,0 1.54363,0.2827 0.68485,0.2717 1.15229,0.8044 0.4783,0.5326 0.72833,1.3153 0.25002,0.7718 0.25002,1.7719 l 0,7.0116 -1.94584,0 0,-7.0116 q 0,-1.2936 -0.56527,-1.9567 -0.56528,-0.674 -1.6306,-0.674 -0.4783,0 -0.91313,0.174 -0.42395,0.163 -0.75007,0.4892 -0.32612,0.3261 -0.52179,0.8261 -0.1848,0.4892 -0.1848,1.1414 l 0,7.0116 -1.94585,0 0,-7.0116 q 0,-1.3262 -0.53266,-1.9784 -0.53266,-0.6523 -1.5545,-0.6523 -0.71746,0 -1.32622,0.3914 -0.60875,0.3805 -1.11967,1.0436 l 0,8.2073 -1.94584,0 z"
           style="font-style:normal;font-variant:normal;font-weight:normal;font-stretch:normal;font-size:21.74126053px;line-height:89.99999762%;font-family:Lato;-inkscape-font-specification:Lato;letter-spacing:-1.08223152px;word-spacing:-3.15972877px"
           id="path4250" />
      </g>
    </g>
  </g>
</svg>
