<?xml version="1.0" encoding="UTF-8" standalone="no"?>
<svg
   xmlns:dc="http://purl.org/dc/elements/1.1/"
   xmlns:cc="http://creativecommons.org/ns#"
   xmlns:rdf="http://www.w3.org/1999/02/22-rdf-syntax-ns#"
   xmlns:svg="http://www.w3.org/2000/svg"
   xmlns="http://www.w3.org/2000/svg"
   version="1.1"
   id="svg2"
   viewBox="0 0 571.39006 101.51953"
   width="161.25897mm"
   height="28.651068mm">
  <defs
     id="defs8" />
  <metadata
     id="metadata4">
    <rdf:RDF>
      <cc:Work
         rdf:about="">
        <dc:format>image/svg+xml</dc:format>
        <dc:type
           rdf:resource="http://purl.org/dc/dcmitype/StillImage" />
        <dc:title></dc:title>
      </cc:Work>
    </rdf:RDF>
  </metadata>
  <flowRoot
     transform="translate(-64.553325,-370.87305)"
     style="font-style:normal;font-weight:normal;font-size:40px;line-height:125%;font-family:sans-serif;letter-spacing:0px;word-spacing:0px;fill:#000000;fill-opacity:1;stroke:none;stroke-width:1px;stroke-linecap:butt;stroke-linejoin:miter;stroke-opacity:1"
     id="flowRoot3140"
     xml:space="preserve"><flowRegion
       id="flowRegion3142"><rect
         y="294.91541"
         x="231.91489"
         height="219.14894"
         width="474.46808"
         id="rect3144" /></flowRegion><flowPara
       id="flowPara3146"></flowPara></flowRoot>  <path
     id="path4084"
     d="m 37.630265,0 c -0.49362,0 -0.99547,0.035 -1.48828,0.10351 -3.79545,0.52767 -7.086032,3.00192 -9.265622,6.96485 -2.16757,3.93608 -2.976796,8.87246 -2.28125,13.90234 1.32458,9.55614 8.040677,17.04297 15.291012,17.04297 0.49361,0 0.99317,-0.0355 1.48438,-0.10352 3.89161,-0.53609 7.23233,-3.08314 9.40429,-7.17187 2.06781,-3.89242 2.82961,-8.75373 2.14649,-13.68945 C 51.598705,7.48907 44.882205,0 37.630265,0 Z m 35.8711,0 c -7.25194,0 -13.96804,7.48868 -15.29102,17.04883 -0.68152,4.93612 0.0821,9.79744 2.15039,13.68945 2.17238,4.08913 5.50999,6.63618 9.40039,7.17187 0.48761,0.0673 0.98415,0.10157 1.47657,0.10157 7.25554,0 13.97854,-7.48679 15.30273,-17.04493 0.69394,-5.02508 -0.11683,-9.96154 -2.2832,-13.89843 -2.18439,-3.97134 -5.477,-6.44559 -9.26563,-6.96485 C 74.499985,0.03461 73.997785,0 73.501365,0 Z m -35.8711,3.66406 c 5.37044,0 10.60082,6.22971 11.66016,13.88672 0.57815,4.17848 -0.0428,8.25146 -1.75195,11.46875 -1.60504,3.02138 -3.97388,4.89031 -6.66992,5.26172 -0.32654,0.0453 -0.65669,0.0684 -0.98243,0.0684 -5.369237,0 -10.600007,-6.22745 -11.660153,-13.88086 -0.588569,-4.2534 0.07198,-8.38502 1.861328,-11.63477 1.60905,-2.92482 3.938228,-4.73696 6.560545,-5.10156 0.32614,-0.0453 0.65748,-0.0684 0.98242,-0.0684 z m 35.8711,0 c 0.32694,0 0.65738,0.0242 0.98633,0.0703 2.61711,0.35899 4.94478,2.16919 6.55664,5.09961 1.78934,3.25055 2.45219,7.38032 1.86523,11.62891 -1.07858,7.78522 -6.20566,13.88476 -11.67187,13.88476 -0.32533,0 -0.65404,-0.0223 -0.97657,-0.0664 -2.69324,-0.37101 -5.06057,-2.24034 -6.66601,-5.26172 -1.70922,-3.21729 -2.33281,-7.29027 -1.75586,-11.46875 1.05974,-7.65661 6.29207,-13.88672 11.66211,-13.88672 z M 10.173237,25.5664 c -0.7544424,0 -1.5135364,0.0929 -2.2675784,0.28125 -3.079071,0.7909 -5.508402,3.08132 -6.841796,6.44727 -1.25366502,3.16481 -1.40419302,7.00428 -0.42578202,10.81055 1.79655902,7.00914 6.90253602,11.90429 12.41601642,11.90429 0.751638,0 1.50958,-0.0949 2.265625,-0.2832 C 21.472254,53.14395 24.663519,45.56477 22.5873,37.47265 20.791543,30.4619 15.687118,25.5664 10.173237,25.5664 Z m 90.787103,0 c -5.514685,0 -10.619855,4.8955 -12.416005,11.90625 -2.07382,8.09332 1.12025,15.67241 7.2832,17.25782 0.74162,0.1851 1.49762,0.27929 2.24805,0.27929 4.1e-4,0 0.0109,-4.1e-4 0.0117,0 5.508665,0 10.610845,-4.89671 12.408205,-11.90625 2.07461,-8.09533 -1.1183,-15.67361 -7.28125,-17.25781 -0.74163,-0.18511 -1.50027,-0.2793 -2.25391,-0.2793 z m 276.28125,1.89844 c -2.12,0 -4.05411,0.36628 -5.80078,1.09961 -1.73333,0.72 -3.22713,1.7262 -4.48047,3.01953 -1.25333,1.29333 -2.22659,2.84063 -2.91992,4.64063 -0.68,1.8 -1.01953,3.76705 -1.01953,5.90039 0,2.14666 0.33953,4.11992 1.01953,5.91992 0.69333,1.8 1.66659,3.34534 2.91992,4.63867 1.25334,1.29333 2.74714,2.30148 4.48047,3.02148 1.74667,0.72 3.68078,1.08008 5.80078,1.08008 2.12,0 4.05216,-0.36008 5.79883,-1.08008 1.74667,-0.71999 3.24047,-1.72815 4.48047,-3.02148 1.24,-1.29333 2.19891,-2.83867 2.8789,-4.63867 0.69334,-1.8 1.04102,-3.77326 1.04102,-5.91992 0,-2.13334 -0.34768,-4.10039 -1.04102,-5.90039 -0.68,-1.8 -1.6389,-3.3473 -2.8789,-4.64063 -1.24,-1.29333 -2.7338,-2.29953 -4.48047,-3.01953 -1.74667,-0.73333 -3.67883,-1.09961 -5.79883,-1.09961 z m -234.80469,0.32031 0,28.69922 4.14063,0 0,-12.98047 15.13867,0 0,12.98047 4.14063,0 0,-28.69922 -4.14063,0 0,12.71875 -15.13867,0 0,-12.71875 -4.14063,0 z m 40.78125,0 0,28.69922 17.75977,0 0.0195,-3.35937 -13.63867,0 0,-9.5 10.97851,0 0,-3.24024 -10.97851,0 0,-9.24023 13.61914,0 0,-3.35938 -17.75977,0 z m 33.20313,0 0,28.69922 10.25977,0 c 1.61333,0 3.04744,-0.19961 4.30078,-0.59961 1.26666,-0.4 2.33255,-0.95969 3.19922,-1.67969 0.86666,-0.72 1.52713,-1.58007 1.98046,-2.58007 0.45334,-1.01334 0.67969,-2.13466 0.67969,-3.36133 0,-1.76 -0.53294,-3.18596 -1.59961,-4.2793 -1.05333,-1.10666 -2.61302,-1.86596 -4.67969,-2.2793 0.89334,-0.28 1.67318,-0.64007 2.33985,-1.08007 0.66666,-0.45334 1.22015,-0.95334 1.66015,-1.5 0.44,-0.56 0.76519,-1.16078 0.97852,-1.80078 0.22667,-0.65334 0.3418,-1.3262 0.3418,-2.01954 0,-1.16 -0.20157,-2.20729 -0.60157,-3.14062 -0.38666,-0.93333 -0.99364,-1.71938 -1.82031,-2.35938 -0.82666,-0.65333 -1.8782,-1.15333 -3.1582,-1.5 -1.28,-0.34666 -2.8149,-0.51953 -4.60156,-0.51953 l -9.2793,0 z m 42.68555,0 -11.43946,28.69922 3.19922,0 c 0.34667,0 0.64086,-0.10078 0.88086,-0.30078 0.25333,-0.2 0.42,-0.42635 0.5,-0.67969 l 2.58008,-6.74023 12.74023,0 2.58008,6.74023 c 0.12,0.29334 0.29287,0.53404 0.51953,0.72071 0.22667,0.17333 0.51891,0.25976 0.87891,0.25976 l 3.20117,0 -11.46094,-28.69922 -4.17968,0 z m 28.0957,0 0,28.69922 3.61914,0 0,-19.93945 c 0,-0.29333 -0.0124,-0.60807 -0.0391,-0.94141 -0.0133,-0.34666 -0.0339,-0.69239 -0.0605,-1.03906 l 16.36133,21.17969 c 0.21333,0.26666 0.42534,0.46008 0.63867,0.58008 0.22667,0.10666 0.50031,0.16015 0.82031,0.16015 l 2.08008,0 0,-28.69922 -3.61914,0 0,19.79883 c 0,0.30667 0.006,0.64 0.0195,1 l 0.0801,1.08008 -16.33984,-21.17969 c -0.22667,-0.30666 -0.43443,-0.50008 -0.6211,-0.58008 -0.17333,-0.08 -0.43883,-0.11914 -0.79883,-0.11914 l -2.14062,0 z m 40.78125,0 0,28.69922 4.11914,0 0,-13.06054 1.74023,0 c 0.62667,-1e-5 1.09373,0.074 1.4004,0.2207 0.32,0.14666 0.61419,0.38737 0.88085,0.7207 l 9.59961,11.25977 c 0.18667,0.26666 0.40683,0.47867 0.66016,0.63867 0.25333,0.14667 0.64635,0.2207 1.17969,0.2207 l 3.58008,0 -11.16016,-13.56054 c -0.54667,-0.76 -1.18039,-1.2662 -1.90039,-1.51954 0.53333,-0.26666 1.06008,-0.71937 1.58008,-1.35937 l 10.7207,-12.25977 -3.5,0 c -0.44,0 -0.81443,0.0721 -1.12109,0.21875 -0.30667,0.13334 -0.59891,0.37404 -0.87891,0.72071 l -9.28125,10.67968 c -0.25333,0.30667 -0.53938,0.52683 -0.85937,0.66016 -0.30667,0.12 -0.71404,0.17969 -1.22071,0.17969 l -1.41992,0 0,-12.45899 -4.11914,0 z m 75.96484,0 8.95899,28.69922 3.7207,0 7.14063,-21.48047 c 0.14666,-0.42666 0.27843,-0.92047 0.39843,-1.48047 0.0667,0.26667 0.13451,0.52792 0.20118,0.78125 0.08,0.25334 0.15208,0.48589 0.21874,0.69922 l 7.10157,21.48047 3.69922,0 8.96093,-28.69922 -3.2207,0 c -0.34667,0 -0.65325,0.0988 -0.91992,0.29883 -0.25333,0.18667 -0.4138,0.41302 -0.48047,0.67969 l -5.75977,19.4414 c -0.0933,0.36 -0.18596,0.74683 -0.27929,1.16016 -0.08,0.41333 -0.15404,0.85169 -0.22071,1.31836 -0.17333,-0.90667 -0.38729,-1.73185 -0.64062,-2.47852 l -6.53906,-19.4414 c -0.12,-0.29333 -0.29287,-0.52589 -0.51953,-0.69922 -0.22667,-0.18667 -0.52086,-0.2793 -0.88086,-0.2793 l -1.19922,0 c -0.34667,0 -0.64706,0.0988 -0.90039,0.29883 -0.25334,0.2 -0.42,0.42636 -0.5,0.67969 l -6.56055,19.4414 c -0.13333,0.37334 -0.25271,0.77875 -0.35937,1.21876 -0.0933,0.42666 -0.18792,0.88132 -0.28126,1.36132 -0.0933,-0.46666 -0.18596,-0.92133 -0.27929,-1.36132 -0.08,-0.44001 -0.16643,-0.84542 -0.25977,-1.21876 L 408.808,28.76367 c -0.08,-0.30667 -0.24667,-0.54542 -0.5,-0.71875 -0.24,-0.17333 -0.54039,-0.25977 -0.90039,-0.25977 l -3.45899,0 z m 49.49805,0 10.51953,17.33985 0,11.35937 4.11914,0 0,-11.35937 10.52149,-17.33985 -3.66016,0 c -0.34667,0 -0.63466,0.0988 -0.86133,0.29883 -0.22666,0.2 -0.40573,0.42016 -0.53906,0.66016 l -6.32031,10.85937 c -0.24,0.48 -0.46016,0.94086 -0.66016,1.38086 -0.18667,0.42667 -0.35333,0.85263 -0.5,1.2793 -0.16,-0.42667 -0.33906,-0.85263 -0.53906,-1.2793 -0.2,-0.42666 -0.42636,-0.88752 -0.67969,-1.38086 l -6.33984,-10.85937 c -0.14667,-0.29334 -0.33388,-0.52589 -0.56055,-0.69922 -0.21333,-0.17333 -0.50133,-0.25977 -0.86133,-0.25977 l -3.63867,0 z M 10.173237,29.23047 c 3.839523,0 7.48416,3.76347 8.865235,9.15234 1.566179,6.10366 -0.469507,11.72326 -4.619141,12.79102 -0.452746,0.11259 -0.911687,0.16992 -1.365234,0.16992 -3.8395234,0 -7.4861144,-3.76232 -8.8671884,-9.15039 -0.787698,-3.06304 -0.687194,-6.0988 0.283204,-8.54883 0.889865,-2.2469 2.433254,-3.75573 4.333984,-4.24414 0.451544,-0.11258 0.913189,-0.16992 1.3691404,-0.16992 z m 90.789053,0 c 0.45515,0 0.9148,0.0566 1.35352,0.16601 4.16166,1.07016 6.19504,6.69278 4.63086,12.79883 -1.38147,5.38727 -5.02505,9.14884 -8.859375,9.14844 l -0.008,0 c -0.45395,0 -0.91324,-0.0571 -1.35156,-0.16602 -4.16165,-1.07057 -6.19698,-6.69046 -4.63281,-12.79492 1.38028,-5.38847 5.02726,-9.15234 8.867175,-9.15234 z m 119.57813,1.79296 5.16016,0 c 2.06666,0 3.59341,0.38683 4.58007,1.16016 1,0.76 1.5,1.96776 1.5,3.62109 0,0.72 -0.12557,1.37232 -0.3789,1.95899 -0.25334,0.58667 -0.64016,1.08667 -1.16016,1.5 -0.50666,0.41333 -1.15278,0.73427 -1.93945,0.96094 -0.78667,0.22666 -1.71458,0.33984 -2.78125,0.33984 l -4.98047,0 0,-9.54102 z m 156.70117,0.0215 c 1.52,0 2.89248,0.2531 4.11914,0.75976 1.22667,0.50667 2.27396,1.23922 3.14063,2.19922 0.88,0.94667 1.55286,2.10714 2.01953,3.48047 0.46667,1.37334 0.69922,2.92063 0.69922,4.64063 0,1.73333 -0.23255,3.28682 -0.69922,4.66015 -0.46667,1.37334 -1.13953,2.53185 -2.01953,3.47852 -0.86667,0.94667 -1.91396,1.67497 -3.14063,2.18164 -1.22666,0.50667 -2.59914,0.75976 -4.11914,0.75976 -1.52,0 -2.90062,-0.25309 -4.14062,-0.75976 -1.22667,-0.50667 -2.28016,-1.23497 -3.16016,-2.18164 -0.86667,-0.94667 -1.53953,-2.10518 -2.01953,-3.47852 -0.46667,-1.37333 -0.70117,-2.92682 -0.70117,-4.66015 0,-1.72 0.2345,-3.26729 0.70117,-4.64063 0.48,-1.37333 1.15286,-2.5338 2.01953,-3.48047 0.88,-0.96 1.93349,-1.69255 3.16016,-2.19922 1.24,-0.50666 2.62062,-0.75976 4.14062,-0.75976 z M 261.1869,31.70508 c 0.14667,0.56 0.29279,1.0786 0.43946,1.5586 0.16,0.46667 0.31427,0.88023 0.46093,1.24023 l 4.33985,11.30078 -10.46094,0 4.33985,-11.28125 c 0.14666,-0.36 0.29473,-0.77976 0.4414,-1.25976 0.14667,-0.48 0.29279,-0.9986 0.43945,-1.5586 z m -40.64648,11.7793 6.08008,0 c 2.06666,0 3.60776,0.41977 4.62109,1.25977 1.01334,0.84 1.51953,1.97992 1.51953,3.41992 0,0.73333 -0.11937,1.4062 -0.35937,2.01953 -0.22667,0.61333 -0.58675,1.14823 -1.08008,1.60156 -0.49333,0.44 -1.12706,0.78573 -1.90039,1.03907 -0.77333,0.25333 -1.70745,0.38085 -2.80078,0.38085 l -6.08008,0 0,-9.7207 z M 42.075585,45.54884 c -7.863358,0 -14.823173,5.75537 -16.923832,13.99414 -1.125454,4.41287 -1.34345,11.46354 4.009766,20 4.953758,7.89901 13.540556,15.21914 25.521486,21.7539 0.27365,0.14945 0.57486,0.22266 0.87695,0.22266 0.3017,0 0.6033,-0.0732 0.87695,-0.22266 11.98374,-6.53516 20.57394,-13.85489 25.5293,-21.7539 5.35522,-8.53646 5.13872,-15.58753 4.01367,-20 -2.10106,-8.23877 -9.06197,-13.99415 -16.92773,-13.99414 -5.20978,0 -9.92111,2.52391 -13.49219,7.16796 -3.56868,-4.64365 -8.2762,-7.16796 -13.48437,-7.16796 z m -0.002,3.66601 c 4.6797,0 8.91222,2.7331 11.91797,7.69727 0.33215,0.5485 0.92731,0.88476 1.56836,0.88476 0.64106,0 1.23426,-0.33431 1.56641,-0.88281 3.00815,-4.96498 7.24447,-7.69922 11.92578,-7.69922 6.1894,0 11.68863,4.61833 13.375,11.23242 1.16953,4.58956 2.64462,20.72579 -26.86719,37.14844 C 26.056532,81.17467 27.532167,65.03643 28.702494,60.44727 30.388871,53.83318 35.887395,49.21485 42.073585,49.21485 Z m 441.958985,20.81641 0,18.82031 1.38867,0 0,-18.82031 -1.38867,0 z m -283.67188,0.59961 0,6.09961 -1.56054,0.70117 c -0.16667,0.0867 -0.25,0.21843 -0.25,0.39843 l 0,1.05079 1.81054,-0.79102 0,7.27149 1.7793,0 0,-7.91993 1.60937,-0.71093 c 0.18,-0.0733 0.27149,-0.21946 0.27149,-0.43946 l 0,-1.00976 -1.88086,0.79882 0,-5.44921 -1.7793,0 z m 197.06055,0 0,14.73047 1.78906,0 0,-4.83985 0.50977,0 c 0.2,0 0.34807,0.0217 0.4414,0.0684 0.1,0.04 0.19883,0.13149 0.29883,0.27149 l 3.33008,4.14843 c 0.08,0.13334 0.17458,0.22792 0.28125,0.28125 0.11333,0.0467 0.2451,0.0703 0.39844,0.0703 l 1.59179,0 -3.96093,-5 c -0.0867,-0.13334 -0.1793,-0.25157 -0.2793,-0.35157 -0.0933,-0.10666 -0.20031,-0.19929 -0.32031,-0.27929 0.20666,-0.12667 0.40008,-0.30263 0.58008,-0.5293 l 3.73046,-3.9707 -1.61132,0 c -0.17334,0 -0.31326,0.0329 -0.41993,0.0996 -0.1,0.06 -0.19572,0.14644 -0.28906,0.25977 l -3.20117,3.43164 c -0.1,0.11333 -0.19573,0.18852 -0.28906,0.22852 -0.0867,0.0333 -0.19675,0.0508 -0.33008,0.0508 l -0.46094,0 0,-8.66992 -1.78906,0 z m 144.73633,0 0,6.09961 -1.56055,0.70117 c -0.16667,0.0867 -0.25,0.21843 -0.25,0.39843 l 0,1.05079 1.81055,-0.79102 0,7.27149 1.77929,0 0,-7.91993 1.60938,-0.71093 c 0.18,-0.0733 0.27148,-0.21946 0.27148,-0.43946 l 0,-1.00976 -1.88086,0.79882 0,-5.44921 -1.77929,0 z m -222.47852,0.14062 c -0.17333,0 -0.33495,0.0329 -0.48828,0.0996 -0.14667,0.0667 -0.27729,0.1593 -0.39062,0.2793 -0.11334,0.11333 -0.20287,0.25015 -0.26954,0.41015 -0.0667,0.15334 -0.10156,0.3169 -0.10156,0.49024 0,0.17333 0.0349,0.3369 0.10156,0.49023 0.0667,0.14667 0.1562,0.28039 0.26954,0.40039 0.11333,0.11334 0.24395,0.20287 0.39062,0.26953 0.15333,0.0667 0.31495,0.0996 0.48828,0.0996 0.17334,0 0.3369,-0.0329 0.49024,-0.0996 0.16,-0.0667 0.29682,-0.15619 0.41015,-0.26953 0.12,-0.12 0.21459,-0.25372 0.28125,-0.40039 0.0733,-0.15333 0.10938,-0.3169 0.10938,-0.49023 0,-0.17334 -0.036,-0.3369 -0.10938,-0.49024 -0.0667,-0.16 -0.16125,-0.29682 -0.28125,-0.41015 -0.11333,-0.12 -0.25015,-0.21263 -0.41015,-0.2793 -0.15334,-0.0667 -0.3169,-0.0996 -0.49024,-0.0996 z m 44.80469,0 c -0.17333,0 -0.33495,0.0329 -0.48828,0.0996 -0.14667,0.0667 -0.27729,0.1593 -0.39063,0.2793 -0.11333,0.11333 -0.20286,0.25015 -0.26953,0.41015 -0.0667,0.15334 -0.10156,0.3169 -0.10156,0.49024 0,0.17333 0.0349,0.3369 0.10156,0.49023 0.0667,0.14667 0.1562,0.28039 0.26953,0.40039 0.11334,0.11334 0.24396,0.20287 0.39063,0.26953 0.15333,0.0667 0.31495,0.0996 0.48828,0.0996 0.17333,0 0.3369,-0.0329 0.49023,-0.0996 0.16,-0.0667 0.29683,-0.15619 0.41016,-0.26953 0.12,-0.12 0.21458,-0.25372 0.28125,-0.40039 0.0733,-0.15333 0.10937,-0.3169 0.10937,-0.49023 1e-5,-0.17334 -0.036,-0.3369 -0.10937,-0.49024 -0.0667,-0.16 -0.16125,-0.29682 -0.28125,-0.41015 -0.11333,-0.12 -0.25016,-0.21263 -0.41016,-0.2793 -0.15333,-0.0667 -0.3169,-0.0996 -0.49023,-0.0996 z m 44.0625,0 c -0.17333,0 -0.33495,0.0329 -0.48828,0.0996 -0.14667,0.0667 -0.27729,0.1593 -0.39063,0.2793 -0.11333,0.11333 -0.20286,0.25015 -0.26953,0.41015 -0.0667,0.15334 -0.10156,0.3169 -0.10156,0.49024 0,0.17333 0.0349,0.3369 0.10156,0.49023 0.0667,0.14667 0.1562,0.28039 0.26953,0.40039 0.11334,0.11334 0.24396,0.20287 0.39063,0.26953 0.15333,0.0667 0.31495,0.0996 0.48828,0.0996 0.17333,0 0.3369,-0.0329 0.49023,-0.0996 0.16,-0.0667 0.29683,-0.15619 0.41016,-0.26953 0.12,-0.12 0.21458,-0.25372 0.28125,-0.40039 0.0733,-0.15333 0.10937,-0.3169 0.10937,-0.49023 1e-5,-0.17334 -0.036,-0.3369 -0.10937,-0.49024 -0.0667,-0.16 -0.16125,-0.29682 -0.28125,-0.41015 -0.11333,-0.12 -0.25016,-0.21263 -0.41016,-0.2793 -0.15333,-0.0667 -0.3169,-0.0996 -0.49023,-0.0996 z m -266.36914,0.25977 0,14.33008 1.92969,0 0,-5.36133 2.30078,0 c 0.86667,0 1.62907,-0.11008 2.28906,-0.33008 0.66667,-0.22667 1.22326,-0.53945 1.66992,-0.93945 0.45334,-0.4 0.79792,-0.87636 1.03125,-1.42969 0.23334,-0.55334 0.34961,-1.16341 0.34961,-1.83008 0,-0.67333 -0.11008,-1.28341 -0.33008,-1.83008 -0.21333,-0.54666 -0.54047,-1.01372 -0.98047,-1.40039 -0.44,-0.38667 -0.99658,-0.682 -1.66992,-0.88867 -0.66666,-0.21333 -1.45271,-0.32031 -2.35937,-0.32031 l -4.23047,0 z m 350.47265,0 4.46876,14.33008 1.74023,0 3.65039,-10.92969 c 0.0333,-0.1 0.0632,-0.21008 0.0898,-0.33008 0.0333,-0.12667 0.0663,-0.25729 0.0996,-0.39063 0.06,0.27334 0.12784,0.51404 0.20117,0.72071 l 3.62891,10.92969 1.74024,0 4.4707,-14.33008 -1.50977,0 c -0.16666,0 -0.31164,0.0453 -0.43164,0.13867 -0.11333,0.0933 -0.18541,0.20031 -0.21875,0.32031 l -2.9707,9.96094 c -0.0467,0.17333 -0.0889,0.35859 -0.12891,0.55859 -0.04,0.2 -0.0811,0.40776 -0.12109,0.6211 -0.04,-0.21334 -0.0873,-0.4211 -0.14063,-0.6211 -0.0467,-0.2 -0.0982,-0.38526 -0.1582,-0.55859 l -3.36133,-9.96094 c -0.0533,-0.13333 -0.13356,-0.24341 -0.24023,-0.33008 -0.10667,-0.0867 -0.24659,-0.1289 -0.41992,-0.1289 l -0.5586,0 c -0.16666,0 -0.31164,0.0504 -0.43164,0.15039 -0.11333,0.0933 -0.18851,0.19526 -0.22851,0.30859 l -3.3711,9.96094 c -0.06,0.17333 -0.11659,0.36674 -0.16992,0.58008 -0.0467,0.20666 -0.092,0.42372 -0.13867,0.65039 -0.04,-0.22667 -0.0842,-0.44373 -0.13086,-0.65039 -0.04,-0.20667 -0.0842,-0.40008 -0.13086,-0.58008 l -2.95898,-9.96094 c -0.0333,-0.13333 -0.11047,-0.24341 -0.23047,-0.33008 -0.11334,-0.0867 -0.25636,-0.1289 -0.42969,-0.1289 l -1.60938,0 z m -348.54296,1.52929 2.30078,0 c 1.14666,0 1.99859,0.2562 2.55859,0.76953 0.56667,0.51334 0.85156,1.2273 0.85156,2.14063 0,0.44 -0.074,0.84427 -0.2207,1.21094 -0.14667,0.36666 -0.36682,0.68255 -0.66016,0.94922 -0.28666,0.26 -0.64364,0.4627 -1.07031,0.60937 -0.42,0.14667 -0.90565,0.2207 -1.45898,0.2207 l -2.30078,0 0,-5.90039 z m 91.38867,2.49024 c -0.78667,0 -1.50373,0.13372 -2.15039,0.40039 -0.64667,0.26667 -1.2486,0.66898 -1.8086,1.20898 l 0.32032,0.57032 c 0.06,0.0933 0.13208,0.17356 0.21875,0.24023 0.0867,0.06 0.19054,0.0898 0.31054,0.0898 0.15334,0 0.30565,-0.0535 0.45899,-0.16015 0.16,-0.11334 0.34721,-0.23581 0.56054,-0.36914 0.22,-0.14 0.4762,-0.26443 0.76954,-0.3711 0.3,-0.11333 0.67132,-0.16992 1.11132,-0.16992 0.65334,0 1.15024,0.20466 1.49024,0.61133 0.34,0.4 0.50976,0.99263 0.50976,1.7793 l 0,0.78906 c -1.15333,0.0267 -2.12658,0.13364 -2.91992,0.32031 -0.79333,0.18 -1.43635,0.41451 -1.92969,0.70117 -0.49333,0.28667 -0.85031,0.6169 -1.07031,0.99024 -0.22,0.36666 -0.33008,0.74844 -0.33008,1.14843 0,0.46 0.0721,0.86118 0.21875,1.20118 0.15334,0.33333 0.358,0.61007 0.61133,0.83008 0.26,0.22 0.56349,0.38666 0.91016,0.5 0.34666,0.10666 0.71604,0.16015 1.10937,0.16015 0.38667,0 0.73745,-0.038 1.05078,-0.11133 0.32,-0.0667 0.61534,-0.16239 0.88868,-0.28906 0.28,-0.13333 0.54744,-0.2938 0.80078,-0.48047 0.26,-0.19333 0.52239,-0.41039 0.78906,-0.65039 l 0.20117,0.95117 c 0.0533,0.16667 0.12542,0.27985 0.21875,0.33985 0.0933,0.0533 0.22706,0.0801 0.40039,0.0801 l 0.79102,0 0,-6.48047 c 0,-0.56667 -0.0771,-1.08722 -0.23047,-1.56055 -0.15333,-0.47333 -0.37969,-0.87565 -0.67969,-1.20898 -0.3,-0.33334 -0.67133,-0.59459 -1.11133,-0.78126 -0.44,-0.18666 -0.9431,-0.27929 -1.50976,-0.27929 z m 25.11133,0 c -0.72,0 -1.35993,0.16047 -1.91993,0.48047 -0.56,0.32 -1.0569,0.74286 -1.49023,1.26953 l -0.15039,-1.19922 c -0.06,-0.24667 -0.21542,-0.37109 -0.46875,-0.37109 l -1.07031,0 0,13.56054 1.78906,0 0,-4.48047 c 0.34,0.38 0.72992,0.6742 1.16992,0.88086 0.44667,0.20667 0.98156,0.3086 1.60156,0.3086 0.68,0 1.29008,-0.13177 1.83008,-0.39844 0.54667,-0.27333 1.00557,-0.64466 1.37891,-1.11133 0.38,-0.47333 0.67109,-1.02992 0.87109,-1.66992 0.20001,-0.64667 0.29883,-1.34318 0.29883,-2.08984 0,-0.84 -0.0895,-1.58381 -0.26953,-2.23047 -0.18,-0.64667 -0.4362,-1.18581 -0.76953,-1.61914 -0.33334,-0.44 -0.73761,-0.77024 -1.21094,-0.99024 -0.47334,-0.22666 -1.00318,-0.33984 -1.58984,-0.33984 z m 9.81054,0 c -0.78666,0 -1.50372,0.13372 -2.15039,0.40039 -0.64666,0.26667 -1.24859,0.66898 -1.80859,1.20898 l 0.32031,0.57032 c 0.06,0.0933 0.13208,0.17356 0.21875,0.24023 0.0867,0.06 0.19055,0.0898 0.31055,0.0898 0.15333,0 0.30565,-0.0535 0.45898,-0.16015 0.16,-0.11334 0.34722,-0.23581 0.56055,-0.36914 0.22,-0.14 0.4762,-0.26443 0.76953,-0.3711 0.3,-0.11333 0.67133,-0.16992 1.11133,-0.16992 0.65333,0 1.15023,0.20466 1.49023,0.61133 0.34,0.4 0.50977,0.99263 0.50977,1.7793 l 0,0.78906 c -1.15333,0.0267 -2.12659,0.13364 -2.91992,0.32031 -0.79334,0.18 -1.43636,0.41451 -1.92969,0.70117 -0.49333,0.28667 -0.85031,0.6169 -1.07031,0.99024 -0.22,0.36666 -0.33008,0.74843 -0.33008,1.14843 0,0.46 0.0721,0.86118 0.21875,1.20118 0.15333,0.33333 0.35799,0.61008 0.61133,0.83008 0.26,0.22 0.56349,0.38666 0.91015,0.5 0.34667,0.10666 0.71604,0.16015 1.10938,0.16015 0.38666,0 0.73745,-0.038 1.05078,-0.11133 0.32,-0.0667 0.61534,-0.16239 0.88867,-0.28906 0.28,-0.13333 0.54745,-0.2938 0.80078,-0.48047 0.26,-0.19333 0.5224,-0.41039 0.78906,-0.65039 l 0.20118,0.95117 c 0.0533,0.16667 0.12541,0.27985 0.21875,0.33985 0.0933,0.0533 0.22705,0.0801 0.40039,0.0801 l 0.79101,0 0,-6.48047 c 0,-0.56667 -0.0771,-1.08722 -0.23047,-1.56055 -0.15333,-0.47333 -0.37968,-0.87565 -0.67968,-1.20898 -0.3,-0.33334 -0.67133,-0.59459 -1.11133,-0.78126 -0.44,-0.18666 -0.9431,-0.27929 -1.50977,-0.27929 z m 30.68555,0 c -0.67333,0 -1.24737,0.19651 -1.7207,0.58984 -0.46667,0.38667 -0.85969,0.92581 -1.17969,1.61914 l -0.10938,-1.53906 c -0.0267,-0.18 -0.077,-0.30753 -0.15039,-0.38086 -0.0733,-0.0733 -0.20705,-0.10937 -0.40039,-0.10937 l -1.01953,0 0,10.13086 1.78906,0 0,-6.4004 c 0.12667,-0.34666 0.26659,-0.65325 0.41993,-0.91992 0.15333,-0.26666 0.32815,-0.48992 0.52148,-0.66992 0.2,-0.18667 0.42635,-0.32659 0.67969,-0.41992 0.25333,-0.1 0.53937,-0.15039 0.85937,-0.15039 0.22667,0 0.42938,0.0205 0.60938,0.0605 0.18,0.04 0.31682,0.0586 0.41015,0.0586 0.16,0 0.26079,-0.0833 0.30079,-0.25 l 0.1289,-1.33008 c -0.15333,-0.1 -0.32929,-0.17208 -0.5293,-0.21875 -0.19333,-0.0467 -0.39604,-0.0703 -0.60937,-0.0703 z m 135.63672,0 c -0.72,0 -1.35992,0.16047 -1.91992,0.48047 -0.56,0.32 -1.0569,0.74286 -1.49024,1.26953 l -0.15039,-1.19922 c -0.06,-0.24667 -0.21541,-0.37109 -0.46875,-0.37109 l -1.07031,0 0,13.56054 1.78906,0 0,-4.48047 c 0.34,0.38 0.72992,0.6742 1.16992,0.88086 0.44667,0.20667 0.98157,0.3086 1.60157,0.3086 0.68,0 1.29007,-0.13177 1.83007,-0.39844 0.54667,-0.27333 1.00558,-0.64466 1.37891,-1.11133 0.38,-0.47333 0.67109,-1.02992 0.87109,-1.66992 0.2,-0.64667 0.29883,-1.34318 0.29883,-2.08984 0,-0.84 -0.0895,-1.58381 -0.26953,-2.23047 -0.18,-0.64667 -0.4362,-1.18581 -0.76953,-1.61914 -0.33333,-0.44 -0.7376,-0.77024 -1.21094,-0.99024 -0.47333,-0.22666 -1.00317,-0.33984 -1.58984,-0.33984 z m 81.43359,0 c -0.67333,0 -1.24737,0.19651 -1.7207,0.58984 -0.46667,0.38667 -0.85969,0.92581 -1.17969,1.61914 l -0.10937,-1.53906 c -0.0267,-0.18 -0.0771,-0.30753 -0.15039,-0.38086 -0.0733,-0.0733 -0.20706,-0.10937 -0.40039,-0.10937 l -1.01954,0 0,10.13086 1.78907,0 0,-6.4004 c 0.12666,-0.34666 0.26659,-0.65325 0.41992,-0.91992 0.15333,-0.26666 0.32815,-0.48992 0.52148,-0.66992 0.2,-0.18667 0.42636,-0.32659 0.67969,-0.41992 0.25333,-0.1 0.53938,-0.15039 0.85938,-0.15039 0.22666,0 0.42937,0.0205 0.60937,0.0605 0.18,0.04 0.31682,0.0586 0.41016,0.0586 0.16,0 0.26078,-0.0833 0.30078,-0.25 l 0.1289,-1.33008 c -0.15333,-0.1 -0.32929,-0.17208 -0.52929,-0.21875 -0.19334,-0.0467 -0.39604,-0.0703 -0.60938,-0.0703 z m 33.02539,0 c -0.78666,0 -1.50372,0.13372 -2.15039,0.40039 -0.64666,0.26667 -1.24859,0.66898 -1.80859,1.20898 l 0.32031,0.57032 c 0.06,0.0933 0.13208,0.17356 0.21875,0.24023 0.0867,0.06 0.19055,0.0898 0.31055,0.0898 0.15333,0 0.30565,-0.0535 0.45898,-0.16015 0.16,-0.11334 0.34722,-0.23581 0.56055,-0.36914 0.22,-0.14 0.4762,-0.26443 0.76953,-0.3711 0.3,-0.11333 0.67133,-0.16992 1.11133,-0.16992 0.65333,0 1.15023,0.20466 1.49023,0.61133 0.34,0.4 0.50977,0.99263 0.50977,1.7793 l 0,0.78906 c -1.15333,0.0267 -2.12659,0.13364 -2.91992,0.32031 -0.79334,0.18 -1.43636,0.41451 -1.92969,0.70117 -0.49333,0.28667 -0.85031,0.6169 -1.07031,0.99024 -0.22,0.36666 -0.33008,0.74844 -0.33008,1.14843 0,0.46001 0.0721,0.86118 0.21875,1.20118 0.15333,0.33333 0.35799,0.61008 0.61133,0.83008 0.26,0.22 0.56349,0.38666 0.91015,0.5 0.34667,0.10666 0.71604,0.16015 1.10938,0.16015 0.38666,0 0.73745,-0.038 1.05078,-0.11133 0.32,-0.0667 0.61534,-0.16239 0.88867,-0.28906 0.28,-0.13333 0.54745,-0.2938 0.80078,-0.48047 0.26,-0.19333 0.5224,-0.41039 0.78907,-0.65039 l 0.20117,0.95117 c 0.0533,0.16667 0.12541,0.27985 0.21875,0.33985 0.0933,0.0533 0.22705,0.0801 0.40039,0.0801 l 0.79101,0 0,-6.48047 c 0,-0.56667 -0.0771,-1.08722 -0.23047,-1.56055 -0.15333,-0.47333 -0.37968,-0.87565 -0.67968,-1.20898 -0.3,-0.33334 -0.67133,-0.59459 -1.11133,-0.78126 -0.44,-0.18666 -0.9431,-0.27929 -1.50977,-0.27929 z m -393.72656,0.0195 c -0.74667,0 -1.41953,0.12443 -2.01953,0.37109 -0.59333,0.24667 -1.09953,0.5955 -1.51953,1.04883 -0.42,0.45333 -0.74404,1.00373 -0.97071,1.65039 -0.21999,0.64 -0.33007,1.35706 -0.33007,2.15039 0,0.8 0.11008,1.52016 0.33007,2.16016 0.22667,0.64 0.55071,1.18534 0.97071,1.63867 0.42,0.45333 0.9262,0.80412 1.51953,1.05078 0.6,0.24 1.27286,0.35938 2.01953,0.35938 0.74,0 1.40667,-0.11938 2,-0.35938 0.59333,-0.24666 1.09953,-0.59745 1.51953,-1.05078 0.42,-0.45333 0.74094,-0.99867 0.96094,-1.63867 0.22667,-0.64 0.33984,-1.36016 0.33984,-2.16016 0,-0.79333 -0.11317,-1.51039 -0.33984,-2.15039 -0.22,-0.64666 -0.54094,-1.19706 -0.96094,-1.65039 -0.42,-0.45333 -0.9262,-0.80216 -1.51953,-1.04883 -0.59333,-0.24666 -1.26,-0.37109 -2,-0.37109 z m 11.60742,0 c -0.61333,0 -1.15247,0.14612 -1.61914,0.43945 -0.46666,0.29334 -0.88643,0.67086 -1.25976,1.13086 l -0.13086,-1.03906 c -0.06,-0.24667 -0.21542,-0.37109 -0.46875,-0.37109 l -1.07032,0 0,10.13086 1.78907,0 0,-7.55079 c 0.31333,-0.40666 0.65791,-0.72565 1.03125,-0.95898 0.37333,-0.24 0.77875,-0.36133 1.21875,-0.36133 0.62666,0 1.10302,0.19961 1.42968,0.59961 0.32667,0.4 0.49024,1.00698 0.49024,1.82031 l 0,6.45118 1.79101,0 0,-6.45118 c 0,-0.4 0.0566,-0.74882 0.16993,-1.04882 0.12,-0.30667 0.28046,-0.55977 0.48047,-0.75977 0.2,-0.2 0.42945,-0.35117 0.68945,-0.45117 0.26666,-0.10667 0.54651,-0.16016 0.83984,-0.16016 0.65334,0 1.15334,0.20776 1.5,0.6211 0.34667,0.40666 0.51953,1.00549 0.51953,1.79882 l 0,6.45118 1.79102,0 0,-6.45118 c 0,-0.61333 -0.0771,-1.15557 -0.23047,-1.6289 -0.15333,-0.48 -0.37659,-0.88427 -0.66992,-1.21094 -0.28667,-0.32667 -0.64055,-0.57357 -1.06055,-0.74024 -0.41333,-0.17333 -0.88659,-0.25976 -1.41992,-0.25976 -0.33333,0 -0.66357,0.0411 -0.99024,0.12109 -0.32,0.08 -0.62348,0.20558 -0.91015,0.37891 -0.28667,0.17333 -0.54596,0.39349 -0.7793,0.66016 -0.22666,0.26666 -0.41388,0.5845 -0.56055,0.95117 -0.18666,-0.64667 -0.49325,-1.16102 -0.91992,-1.54102 -0.42,-0.38 -0.97039,-0.57031 -1.65039,-0.57031 z m 24.90821,0 c -0.57334,0 -1.08263,0.0802 -1.5293,0.24023 -0.44667,0.16 -0.82419,0.37706 -1.13086,0.65039 -0.30667,0.26667 -0.53922,0.57946 -0.69922,0.93946 -0.16,0.35333 -0.24023,0.72271 -0.24023,1.10937 0,0.43334 0.074,0.80466 0.2207,1.11133 0.15333,0.3 0.35294,0.5531 0.59961,0.75977 0.24667,0.20666 0.52651,0.37953 0.83984,0.51953 0.32,0.13333 0.64404,0.25271 0.97071,0.35937 0.33333,0.10667 0.65541,0.21055 0.96875,0.31055 0.32,0.0933 0.60489,0.20651 0.85156,0.33984 0.24666,0.12667 0.44318,0.28404 0.58984,0.47071 0.15334,0.18 0.22852,0.40945 0.22852,0.68945 0,0.22667 -0.0422,0.44062 -0.12891,0.64062 -0.08,0.2 -0.20752,0.37597 -0.38086,0.5293 -0.17333,0.15333 -0.38844,0.27776 -0.64844,0.3711 -0.26,0.0867 -0.56349,0.1289 -0.91015,0.1289 -0.40667,0 -0.74815,-0.0453 -1.02149,-0.13867 -0.27333,-0.0933 -0.50588,-0.19721 -0.69921,-0.31055 -0.18667,-0.11333 -0.34714,-0.21721 -0.48047,-0.31054 -0.13334,-0.0933 -0.25891,-0.14063 -0.37891,-0.14063 -0.11333,0 -0.20792,0.0236 -0.28125,0.0703 -0.0733,0.0467 -0.13612,0.11451 -0.18945,0.20118 l -0.41992,0.67968 c 0.39999,0.36 0.88565,0.65729 1.45898,0.89063 0.57333,0.22666 1.21521,0.33984 1.92187,0.33984 0.62,0 1.16534,-0.0833 1.63868,-0.25 0.47333,-0.16667 0.8745,-0.39497 1.20117,-0.68164 0.32666,-0.29333 0.57161,-0.63596 0.73828,-1.0293 0.16667,-0.4 0.25,-0.83411 0.25,-1.30078 0,-0.40666 -0.0752,-0.75239 -0.22852,-1.03906 -0.14666,-0.29333 -0.34317,-0.54023 -0.58984,-0.74023 -0.24667,-0.2 -0.52651,-0.36667 -0.83984,-0.5 -0.31334,-0.13334 -0.63737,-0.25271 -0.97071,-0.35938 -0.32666,-0.11333 -0.6476,-0.21721 -0.96093,-0.31055 -0.31334,-0.1 -0.59318,-0.21317 -0.83985,-0.33984 -0.24666,-0.12667 -0.44627,-0.27589 -0.59961,-0.44922 -0.14666,-0.17333 -0.2207,-0.39039 -0.2207,-0.65039 0,-0.20667 0.0442,-0.39698 0.13086,-0.57031 0.0933,-0.18 0.22396,-0.33737 0.39062,-0.47071 0.17334,-0.13333 0.37914,-0.23526 0.61914,-0.30859 0.24,-0.08 0.51055,-0.12109 0.81055,-0.12109 0.34667,0 0.64706,0.0411 0.90039,0.12109 0.25334,0.0733 0.46844,0.15667 0.64844,0.25 0.18667,0.0867 0.34404,0.16495 0.4707,0.23828 0.12667,0.0733 0.23985,0.11133 0.33985,0.11133 0.16666,0 0.29109,-0.074 0.37109,-0.2207 l 0.39844,-0.65039 c -0.38667,-0.36667 -0.84558,-0.65271 -1.37891,-0.85938 -0.52667,-0.21333 -1.12435,-0.32031 -1.79101,-0.32031 z m 31.68554,0 c -0.71333,0 -1.342,0.15117 -1.88867,0.45117 -0.54667,0.3 -1.04047,0.69302 -1.48047,1.17969 l -0.14062,-1.09961 c -0.06,-0.24667 -0.21542,-0.37109 -0.46875,-0.37109 l -1.07032,0 0,10.13086 1.78907,0 0,-7.46094 c 0.38,-0.43334 0.79666,-0.77597 1.25,-1.0293 0.46,-0.25333 0.9569,-0.38086 1.49023,-0.38086 0.71333,0 1.24318,0.21396 1.58985,0.64063 0.35333,0.42 0.53124,1.01263 0.53124,1.77929 l 0,6.45118 1.78907,0 0,-6.45118 c 0,-0.57333 -0.074,-1.09698 -0.22071,-1.57031 -0.14666,-0.47333 -0.36177,-0.87565 -0.64843,-1.20898 -0.28,-0.34 -0.63388,-0.5993 -1.06055,-0.7793 -0.42,-0.18667 -0.9076,-0.28125 -1.46094,-0.28125 z m 24.29102,0 c -0.57334,0 -1.08263,0.0802 -1.5293,0.24023 -0.44667,0.16 -0.82419,0.37706 -1.13086,0.65039 -0.30666,0.26667 -0.53922,0.57946 -0.69922,0.93946 -0.16,0.35333 -0.24023,0.72271 -0.24023,1.10937 0,0.43334 0.074,0.80466 0.2207,1.11133 0.15334,0.3 0.35294,0.5531 0.59961,0.75977 0.24667,0.20666 0.52651,0.37953 0.83984,0.51953 0.32,0.13333 0.64404,0.25271 0.97071,0.35937 0.33333,0.10667 0.65541,0.21055 0.96875,0.31055 0.32,0.0933 0.60489,0.20651 0.85156,0.33984 0.24667,0.12667 0.44318,0.28404 0.58984,0.47071 0.15334,0.18 0.22852,0.40945 0.22852,0.68945 0,0.22667 -0.0422,0.44062 -0.12891,0.64062 -0.08,0.2 -0.20752,0.37597 -0.38086,0.5293 -0.17333,0.15333 -0.38843,0.27776 -0.64843,0.3711 -0.26,0.0867 -0.56349,0.1289 -0.91016,0.1289 -0.40667,0 -0.74815,-0.0453 -1.02148,-0.13867 -0.27334,-0.0933 -0.50589,-0.19721 -0.69922,-0.31055 -0.18667,-0.11333 -0.34714,-0.21721 -0.48047,-0.31054 -0.13333,-0.0933 -0.25891,-0.14063 -0.37891,-0.14063 -0.11333,0 -0.20791,0.0236 -0.28125,0.0703 -0.0733,0.0467 -0.13612,0.11451 -0.18945,0.20118 l -0.41992,0.67968 c 0.4,0.36 0.88565,0.65729 1.45898,0.89063 0.57334,0.22666 1.21521,0.33984 1.92188,0.33984 0.62,0 1.16534,-0.0833 1.63867,-0.25 0.47333,-0.16667 0.8745,-0.39497 1.20117,-0.68164 0.32667,-0.29333 0.57162,-0.63596 0.73828,-1.0293 0.16667,-0.4 0.25,-0.83411 0.25,-1.30078 0,-0.40666 -0.0752,-0.75239 -0.22851,-1.03906 -0.14667,-0.29333 -0.34318,-0.54023 -0.58985,-0.74023 -0.24666,-0.2 -0.52651,-0.36667 -0.83984,-0.5 -0.31333,-0.13334 -0.63737,-0.25271 -0.9707,-0.35938 -0.32667,-0.11333 -0.64761,-0.21721 -0.96094,-0.31055 -0.31334,-0.1 -0.59318,-0.21317 -0.83985,-0.33984 -0.24666,-0.12667 -0.44627,-0.27589 -0.59961,-0.44922 -0.14666,-0.17333 -0.2207,-0.39039 -0.2207,-0.65039 0,-0.20667 0.0442,-0.39698 0.13086,-0.57031 0.0933,-0.18 0.22396,-0.33737 0.39063,-0.47071 0.17333,-0.13333 0.37914,-0.23526 0.61914,-0.30859 0.24,-0.08 0.51054,-0.12109 0.81054,-0.12109 0.34667,0 0.64706,0.0411 0.90039,0.12109 0.25334,0.0733 0.46844,0.15667 0.64844,0.25 0.18667,0.0867 0.34404,0.16495 0.4707,0.23828 0.12667,0.0733 0.23985,0.11133 0.33985,0.11133 0.16667,0 0.29109,-0.074 0.37109,-0.2207 l 0.39844,-0.65039 c -0.38667,-0.36667 -0.84557,-0.65271 -1.37891,-0.85938 -0.52666,-0.21333 -1.12435,-0.32031 -1.79101,-0.32031 z m 30.86523,0 c -0.76666,0 -1.44573,0.13062 -2.03906,0.39062 -0.58667,0.26 -1.08357,0.62318 -1.49023,1.08985 -0.4,0.46 -0.70659,1.01039 -0.91993,1.65039 -0.20666,0.64 -0.31054,1.33651 -0.31054,2.08984 0,0.82667 0.11317,1.56232 0.33984,2.20899 0.22667,0.64666 0.53945,1.19396 0.93945,1.64062 0.4,0.44 0.87016,0.77643 1.41016,1.00977 0.54667,0.23333 1.13815,0.34961 1.77148,0.34961 0.36667,0 0.7248,-0.0298 1.07813,-0.0898 0.35333,-0.06 0.69172,-0.15263 1.01172,-0.27929 0.32666,-0.13334 0.63015,-0.2969 0.91015,-0.49024 0.28,-0.19333 0.53,-0.42588 0.75,-0.69922 l -0.5,-0.65039 c -0.08,-0.11333 -0.19513,-0.16992 -0.34179,-0.16992 -0.12,0 -0.24248,0.0535 -0.36914,0.16016 -0.12,0.1 -0.27427,0.21317 -0.46094,0.33984 -0.18,0.12667 -0.40945,0.24294 -0.68945,0.34961 -0.28,0.1 -0.63698,0.15039 -1.07032,0.15039 -0.45333,0 -0.86185,-0.0833 -1.22851,-0.25 -0.36,-0.17333 -0.67164,-0.42023 -0.93164,-0.74023 -0.25334,-0.32667 -0.44985,-0.72589 -0.58985,-1.19922 -0.14,-0.48 -0.20898,-1.02729 -0.20898,-1.64063 0,-0.58666 0.0628,-1.11651 0.18945,-1.58984 0.13334,-0.47333 0.32675,-0.87761 0.58008,-1.21094 0.26,-0.33333 0.58094,-0.58643 0.96094,-0.75976 0.38,-0.18 0.81836,-0.26954 1.31836,-0.26954 0.37333,0 0.68807,0.0422 0.9414,0.12891 0.26,0.08 0.47706,0.17149 0.65039,0.27149 0.18,0.1 0.32922,0.19263 0.44922,0.27929 0.12,0.08 0.23008,0.11914 0.33008,0.11914 0.0933,0 0.16737,-0.0186 0.2207,-0.0586 0.0533,-0.04 0.10487,-0.0966 0.15821,-0.16992 l 0.4707,-0.64063 c -0.42,-0.42 -0.90255,-0.74403 -1.44922,-0.9707 -0.54,-0.23333 -1.16752,-0.34961 -1.88086,-0.34961 z m 9.29688,0 c -0.73334,0 -1.3938,0.13062 -1.98047,0.39062 -0.58667,0.25334 -1.08357,0.60722 -1.49024,1.06055 -0.40666,0.44667 -0.71944,0.97651 -0.93945,1.58985 -0.21333,0.61333 -0.32031,1.27184 -0.32031,1.97851 0,0.87333 0.11937,1.64698 0.35937,2.32031 0.24,0.67334 0.57334,1.24117 1,1.70118 0.43334,0.45333 0.94458,0.79906 1.53125,1.03906 0.59334,0.23333 1.23946,0.34961 1.93946,0.34961 0.36666,0 0.73604,-0.0329 1.10937,-0.0996 0.37334,-0.06 0.73341,-0.15263 1.08008,-0.2793 0.35333,-0.12667 0.68357,-0.28713 0.99023,-0.48047 0.30667,-0.2 0.56907,-0.43255 0.78907,-0.69922 l -0.5,-0.65039 c -0.08,-0.11333 -0.19319,-0.16992 -0.33985,-0.16992 -0.11334,0 -0.25015,0.0535 -0.41015,0.16016 -0.15334,0.1 -0.34479,0.21008 -0.57813,0.33008 -0.23333,0.11999 -0.51513,0.23317 -0.8418,0.33984 -0.31999,0.1 -0.70176,0.15039 -1.14843,0.15039 -0.48,0 -0.91412,-0.0771 -1.30078,-0.23047 -0.38667,-0.16 -0.72,-0.3976 -1,-0.71094 -0.28,-0.32 -0.50017,-0.71612 -0.66016,-1.18945 -0.16001,-0.47333 -0.24643,-1.02992 -0.25977,-1.66992 l 6.76954,0 c 0.16666,0 0.27984,-0.0473 0.33984,-0.14063 0.06,-0.0933 0.0898,-0.27859 0.0898,-0.55859 0,-0.72 -0.10502,-1.35992 -0.31836,-1.91992 -0.21334,-0.56667 -0.51062,-1.04188 -0.89062,-1.42188 -0.37333,-0.38666 -0.81985,-0.6789 -1.33984,-0.8789 -0.51333,-0.20667 -1.07302,-0.31055 -1.67969,-0.31055 z m 68.04687,0 c -0.76666,0 -1.44573,0.13062 -2.03906,0.39062 -0.58667,0.26 -1.08357,0.62318 -1.49023,1.08985 -0.4,0.46 -0.70659,1.01039 -0.91993,1.65039 -0.20666,0.64 -0.31054,1.33651 -0.31054,2.08984 0,0.82667 0.11317,1.56232 0.33984,2.20899 0.22667,0.64666 0.53945,1.19396 0.93945,1.64062 0.4,0.44 0.87016,0.77643 1.41016,1.00977 0.54667,0.23333 1.13815,0.34961 1.77148,0.34961 0.36667,0 0.7248,-0.0298 1.07813,-0.0898 0.35333,-0.06 0.69172,-0.15263 1.01172,-0.27929 0.32666,-0.13334 0.63015,-0.2969 0.91015,-0.49024 0.28,-0.19333 0.53,-0.42588 0.75,-0.69922 l -0.5,-0.65039 c -0.08,-0.11333 -0.19513,-0.16992 -0.34179,-0.16992 -0.12,0 -0.24248,0.0535 -0.36914,0.16016 -0.12,0.1 -0.27427,0.21317 -0.46094,0.33984 -0.18,0.12667 -0.40945,0.24294 -0.68945,0.34961 -0.28,0.1 -0.63698,0.15039 -1.07032,0.15039 -0.45333,0 -0.86185,-0.0833 -1.22851,-0.25 -0.36,-0.17333 -0.67164,-0.42023 -0.93164,-0.74023 -0.25334,-0.32667 -0.44985,-0.72589 -0.58985,-1.19922 -0.14,-0.48 -0.20898,-1.02729 -0.20898,-1.64063 0,-0.58666 0.0628,-1.11651 0.18945,-1.58984 0.13334,-0.47333 0.32675,-0.87761 0.58008,-1.21094 0.26,-0.33333 0.58094,-0.58643 0.96094,-0.75976 0.38,-0.18 0.81836,-0.26954 1.31836,-0.26954 0.37333,0 0.68807,0.0422 0.9414,0.12891 0.26,0.08 0.47706,0.17149 0.65039,0.27149 0.18,0.1 0.32922,0.19263 0.44922,0.27929 0.12,0.08 0.23008,0.11914 0.33008,0.11914 0.0933,0 0.16737,-0.0186 0.2207,-0.0586 0.0533,-0.04 0.10487,-0.0966 0.15821,-0.16992 l 0.4707,-0.64063 c -0.42,-0.42 -0.90255,-0.74403 -1.44922,-0.9707 -0.54,-0.23333 -1.16752,-0.34961 -1.88086,-0.34961 z m 14.29688,0 c -0.73334,0 -1.3938,0.13062 -1.98047,0.39062 -0.58667,0.25334 -1.08357,0.60722 -1.49024,1.06055 -0.40666,0.44667 -0.71944,0.97651 -0.93945,1.58985 -0.21333,0.61333 -0.32031,1.27184 -0.32031,1.97851 0,0.87333 0.11937,1.64698 0.35937,2.32031 0.24,0.67334 0.57334,1.24117 1,1.70118 0.43334,0.45333 0.94458,0.79906 1.53125,1.03906 0.59334,0.23333 1.23946,0.34961 1.93946,0.34961 0.36666,0 0.73604,-0.0329 1.10937,-0.0996 0.37334,-0.06 0.73341,-0.15263 1.08008,-0.2793 0.35333,-0.12667 0.68357,-0.28713 0.99023,-0.48047 0.30667,-0.2 0.56907,-0.43255 0.78907,-0.69922 l -0.5,-0.65039 c -0.08,-0.11333 -0.19319,-0.16992 -0.33985,-0.16992 -0.11334,0 -0.25015,0.0535 -0.41015,0.16016 -0.15334,0.1 -0.34479,0.21008 -0.57813,0.33008 -0.23333,0.11999 -0.51513,0.23317 -0.84179,0.33984 -0.32,0.1 -0.70177,0.15039 -1.14844,0.15039 -0.48,0 -0.91412,-0.0771 -1.30078,-0.23047 -0.38667,-0.16 -0.72,-0.3976 -1,-0.71094 -0.28,-0.32 -0.50017,-0.71612 -0.66016,-1.18945 -0.16001,-0.47333 -0.24643,-1.02992 -0.25977,-1.66992 l 6.76954,0 c 0.16666,0 0.27984,-0.0473 0.33984,-0.14063 0.06,-0.0933 0.0898,-0.27859 0.0898,-0.55859 0,-0.72 -0.10502,-1.35992 -0.31836,-1.91992 -0.21334,-0.56667 -0.51062,-1.04188 -0.89062,-1.42188 -0.37333,-0.38666 -0.81985,-0.6789 -1.33985,-0.8789 -0.51332,-0.20667 -1.07301,-0.31055 -1.67968,-0.31055 z m 10.58594,0 c -0.76667,0 -1.44573,0.13062 -2.03907,0.39062 -0.58666,0.26 -1.08357,0.62318 -1.49023,1.08985 -0.4,0.46 -0.70659,1.01039 -0.91992,1.65039 -0.20667,0.64 -0.31055,1.33651 -0.31055,2.08984 0,0.82667 0.11318,1.56232 0.33984,2.20899 0.22667,0.64666 0.53946,1.19396 0.93946,1.64062 0.4,0.44 0.87015,0.77643 1.41015,1.00977 0.54667,0.23333 1.13815,0.34961 1.77149,0.34961 0.36666,0 0.72479,-0.0298 1.07812,-0.0898 0.35334,-0.06 0.69172,-0.15263 1.01172,-0.27929 0.32667,-0.13334 0.63016,-0.2969 0.91016,-0.49024 0.28,-0.19333 0.53,-0.42588 0.75,-0.69922 l -0.5,-0.65039 c -0.08,-0.11333 -0.19513,-0.16992 -0.3418,-0.16992 -0.12,0 -0.24247,0.0535 -0.36914,0.16016 -0.12,0.1 -0.27427,0.21317 -0.46094,0.33984 -0.18,0.12667 -0.40945,0.24294 -0.68945,0.34961 -0.28,0.1 -0.63698,0.15039 -1.07031,0.15039 -0.45334,0 -0.86185,-0.0833 -1.22852,-0.25 -0.36,-0.17333 -0.67164,-0.42023 -0.93164,-0.74023 -0.25333,-0.32667 -0.44984,-0.72589 -0.58984,-1.19922 -0.14,-0.48 -0.20899,-1.02729 -0.20899,-1.64063 0,-0.58666 0.0628,-1.11651 0.18946,-1.58984 0.13333,-0.47333 0.32674,-0.87761 0.58007,-1.21094 0.26,-0.33333 0.58094,-0.58643 0.96094,-0.75976 0.38,-0.18 0.81836,-0.26954 1.31836,-0.26954 0.37333,0 0.68807,0.0422 0.94141,0.12891 0.26,0.08 0.47705,0.17148 0.65039,0.27149 0.18,0.1 0.32922,0.19263 0.44922,0.27929 0.12,0.08 0.23007,0.11914 0.33007,0.11914 0.0933,0 0.16737,-0.0186 0.22071,-0.0586 0.0533,-0.04 0.10487,-0.0966 0.1582,-0.16992 l 0.4707,-0.64063 c -0.42,-0.42 -0.90255,-0.74403 -1.44922,-0.9707 -0.54,-0.23333 -1.16752,-0.34961 -1.88085,-0.34961 z m 62.92382,0 c -0.57334,0 -1.08263,0.0802 -1.52929,0.24023 -0.44667,0.16 -0.8242,0.37706 -1.13086,0.65039 -0.30666,0.26667 -0.53922,0.57946 -0.69922,0.93946 -0.16,0.35333 -0.24024,0.72271 -0.24024,1.10937 0,0.43334 0.074,0.80466 0.22071,1.11133 0.15332,0.3 0.35294,0.5531 0.59961,0.75977 0.24666,0.20666 0.5265,0.37953 0.83984,0.51953 0.31999,0.13333 0.64404,0.25271 0.9707,0.35937 0.33334,0.10667 0.65541,0.21055 0.96875,0.31055 0.32,0.0933 0.6049,0.20651 0.85157,0.33984 0.24666,0.12667 0.44317,0.28404 0.58984,0.47071 0.15333,0.18 0.22851,0.40945 0.22851,0.68945 0,0.22667 -0.0422,0.44062 -0.1289,0.64062 -0.08,0.2 -0.20753,0.37597 -0.38086,0.5293 -0.17333,0.15333 -0.38844,0.27776 -0.64844,0.3711 -0.25999,0.0867 -0.56348,0.1289 -0.91015,0.1289 -0.40667,0 -0.74816,-0.0453 -1.02149,-0.13867 -0.27333,-0.0933 -0.50589,-0.19721 -0.69922,-0.31055 -0.18667,-0.11333 -0.34713,-0.21721 -0.48047,-0.31054 -0.13333,-0.0933 -0.2589,-0.14063 -0.3789,-0.14063 -0.11334,0 -0.20792,0.0236 -0.28125,0.0703 -0.0733,0.0467 -0.13612,0.11451 -0.18946,0.20118 l -0.41992,0.67968 c 0.4,0.36 0.88565,0.65729 1.45899,0.89063 0.57333,0.22666 1.21521,0.33984 1.92187,0.33984 0.62001,0 1.16535,-0.0833 1.63867,-0.25 0.47334,-0.16667 0.87451,-0.39497 1.20118,-0.68164 0.32666,-0.29333 0.57161,-0.63596 0.73828,-1.0293 0.16666,-0.4 0.25,-0.83411 0.25,-1.30078 0,-0.40666 -0.0752,-0.75239 -0.22852,-1.03906 -0.14667,-0.29333 -0.34318,-0.54023 -0.58984,-0.74023 -0.24667,-0.2 -0.52652,-0.36667 -0.83985,-0.5 -0.31334,-0.13334 -0.63737,-0.25271 -0.9707,-0.35938 -0.32667,-0.11333 -0.64761,-0.21721 -0.96094,-0.31055 -0.31334,-0.1 -0.59317,-0.21317 -0.83984,-0.33984 -0.24667,-0.12667 -0.44628,-0.27589 -0.59961,-0.44922 -0.14667,-0.17333 -0.2207,-0.39039 -0.2207,-0.65039 0,-0.20667 0.0442,-0.39698 0.13086,-0.57031 0.0933,-0.18 0.22395,-0.33737 0.39062,-0.47071 0.17334,-0.13333 0.37915,-0.23526 0.61914,-0.30859 0.24,-0.08 0.51055,-0.12109 0.81055,-0.12109 0.34667,0 0.64706,0.0411 0.90039,0.12109 0.25333,0.0733 0.46844,0.15667 0.64844,0.25 0.18667,0.0867 0.34403,0.16495 0.4707,0.23828 0.12667,0.0733 0.23985,0.11133 0.33984,0.11133 0.16667,0 0.2911,-0.074 0.3711,-0.2207 l 0.39843,-0.65039 c -0.38667,-0.36667 -0.84557,-0.65271 -1.3789,-0.85938 -0.52666,-0.21333 -1.12435,-0.32031 -1.79102,-0.32031 z m 9.69336,0 c -0.73333,0 -1.3938,0.13062 -1.98047,0.39062 -0.58666,0.25334 -1.08356,0.60722 -1.49023,1.06055 -0.40667,0.44667 -0.71945,0.97651 -0.93945,1.58985 -0.21334,0.61333 -0.32032,1.27184 -0.32032,1.97851 0,0.87333 0.11938,1.64698 0.35938,2.32031 0.24,0.67334 0.57333,1.24118 1,1.70118 0.43333,0.45333 0.94458,0.79906 1.53125,1.03906 0.59333,0.23333 1.23945,0.34961 1.93945,0.34961 0.36667,0 0.73604,-0.0329 1.10938,-0.0996 0.37333,-0.06 0.73341,-0.15263 1.08007,-0.2793 0.35334,-0.12667 0.68357,-0.28713 0.99024,-0.48047 0.30667,-0.2 0.56906,-0.43255 0.78906,-0.69922 l -0.5,-0.65039 c -0.08,-0.11333 -0.19318,-0.16992 -0.33984,-0.16992 -0.11334,0 -0.25016,0.0535 -0.41016,0.16016 -0.15333,0.1 -0.34479,0.21007 -0.57812,0.33008 -0.23334,0.11999 -0.51513,0.23317 -0.8418,0.33984 -0.32,0.1 -0.70177,0.15039 -1.14844,0.15039 -0.48,0 -0.91411,-0.0771 -1.30078,-0.23047 -0.38667,-0.16 -0.72,-0.3976 -1,-0.71094 -0.28,-0.32 -0.50015,-0.71612 -0.66016,-1.18945 -0.15999,-0.47333 -0.24643,-1.02992 -0.25976,-1.66992 l 6.76953,0 c 0.16667,0 0.27984,-0.0473 0.33984,-0.14063 0.06,-0.0933 0.0898,-0.27859 0.0898,-0.55859 0,-0.72 -0.10503,-1.35992 -0.31836,-1.91992 -0.21333,-0.56667 -0.51063,-1.04188 -0.89063,-1.42188 -0.37333,-0.38666 -0.81984,-0.6789 -1.33984,-0.8789 -0.51333,-0.20667 -1.07302,-0.31055 -1.67969,-0.31055 z m 10.94532,0 c -0.61334,0 -1.15249,0.14612 -1.61915,0.43945 -0.46667,0.29334 -0.88643,0.67086 -1.25976,1.13086 l -0.13086,-1.03906 c -0.06,-0.24667 -0.21542,-0.37109 -0.46875,-0.37109 l -1.07031,0 0,10.13086 1.78906,0 0,-7.55079 c 0.31333,-0.40666 0.65791,-0.72565 1.03125,-0.95898 0.37333,-0.24 0.77874,-0.36133 1.21875,-0.36133 0.62666,0 1.10302,0.19961 1.42969,0.59961 0.32666,0.4 0.49023,1.00698 0.49023,1.82031 l 0,6.45118 1.79102,0 0,-6.45118 c 0,-0.4 0.0566,-0.74883 0.16992,-1.04882 0.11999,-0.30667 0.28047,-0.55977 0.48047,-0.75977 0.2,-0.2 0.42946,-0.35117 0.68945,-0.45117 0.26667,-0.10667 0.5465,-0.16016 0.83984,-0.16016 0.65334,0 1.15334,0.20776 1.5,0.6211 0.34667,0.40666 0.51954,1.00549 0.51954,1.79882 l 0,6.45118 1.79101,0 0,-6.45118 c 0,-0.61333 -0.0771,-1.15557 -0.23047,-1.6289 -0.15332,-0.48 -0.37658,-0.88427 -0.66992,-1.21094 -0.28666,-0.32667 -0.64055,-0.57357 -1.06055,-0.74024 -0.41333,-0.17333 -0.88658,-0.25976 -1.41992,-0.25976 -0.33333,0 -0.66357,0.0411 -0.99023,0.12109 -0.32,0.08 -0.62349,0.20558 -0.91016,0.37891 -0.28666,0.17333 -0.54596,0.39349 -0.7793,0.66016 -0.22667,0.26666 -0.41388,0.5845 -0.56054,0.95117 -0.18667,-0.64667 -0.49326,-1.16102 -0.91992,-1.54102 -0.42,-0.38 -0.97039,-0.57031 -1.65039,-0.57031 z m 58.11914,0 c -0.74667,0 -1.41954,0.12443 -2.01954,0.37109 -0.59333,0.24667 -1.09953,0.5955 -1.51953,1.04883 -0.42,0.45333 -0.74403,1.00373 -0.9707,1.65039 -0.22,0.64 -0.33008,1.35706 -0.33008,2.15039 0,0.8 0.11008,1.52016 0.33008,2.16016 0.22667,0.64 0.5507,1.18534 0.9707,1.63867 0.42,0.45333 0.9262,0.80412 1.51953,1.05078 0.6,0.24 1.27287,0.35938 2.01954,0.35938 0.74,0 1.40666,-0.11938 2,-0.35938 0.59333,-0.24666 1.09953,-0.59745 1.51953,-1.05078 0.42,-0.45333 0.74093,-0.99867 0.96093,-1.63867 0.22667,-0.64 0.33985,-1.36016 0.33985,-2.16016 0,-0.79333 -0.11318,-1.51039 -0.33985,-2.15039 -0.22,-0.64666 -0.54093,-1.19706 -0.96093,-1.65039 -0.42,-0.45333 -0.9262,-0.80216 -1.51953,-1.04883 -0.59334,-0.24666 -1.26,-0.37109 -2,-0.37109 z m 11.24804,0 c -0.76666,0 -1.44573,0.13062 -2.03906,0.39062 -0.58667,0.26 -1.08357,0.62318 -1.49023,1.08985 -0.4,0.46 -0.70659,1.01039 -0.91993,1.65039 -0.20666,0.64 -0.31054,1.33651 -0.31054,2.08984 0,0.82667 0.11317,1.56232 0.33984,2.20899 0.22667,0.64666 0.53945,1.19396 0.93945,1.64062 0.4,0.44 0.87016,0.77643 1.41016,1.00977 0.54667,0.23333 1.13815,0.34961 1.77148,0.34961 0.36667,0 0.7248,-0.0298 1.07813,-0.0898 0.35333,-0.06 0.69172,-0.15263 1.01172,-0.27929 0.32666,-0.13334 0.63015,-0.2969 0.91015,-0.49024 0.28,-0.19333 0.53,-0.42588 0.75,-0.69922 l -0.5,-0.65039 c -0.08,-0.11333 -0.19513,-0.16992 -0.34179,-0.16992 -0.12,0 -0.24248,0.0535 -0.36914,0.16016 -0.12,0.1 -0.27427,0.21317 -0.46094,0.33984 -0.18,0.12667 -0.40945,0.24294 -0.68945,0.34961 -0.28,0.1 -0.63698,0.15039 -1.07032,0.15039 -0.45333,0 -0.86185,-0.0833 -1.22851,-0.25 -0.36,-0.17333 -0.67164,-0.42023 -0.93164,-0.74023 -0.25334,-0.32667 -0.44985,-0.72589 -0.58985,-1.19922 -0.14,-0.48 -0.20898,-1.02729 -0.20898,-1.64063 0,-0.58666 0.0628,-1.11651 0.18945,-1.58984 0.13334,-0.47333 0.32675,-0.87761 0.58008,-1.21094 0.26,-0.33333 0.58094,-0.58643 0.96094,-0.75976 0.38,-0.18 0.81836,-0.26954 1.31836,-0.26954 0.37333,0 0.68807,0.0422 0.9414,0.12891 0.26,0.08 0.47706,0.17149 0.65039,0.27149 0.18,0.1 0.32922,0.19263 0.44922,0.27929 0.12,0.08 0.23008,0.11914 0.33008,0.11914 0.0933,0 0.16737,-0.0186 0.2207,-0.0586 0.0533,-0.04 0.10487,-0.0966 0.15821,-0.16992 l 0.4707,-0.64063 c -0.42,-0.42 -0.90255,-0.74403 -1.44922,-0.9707 -0.54,-0.23333 -1.16752,-0.34961 -1.88086,-0.34961 z M 334.3314,75.21091 c -0.12,0 -0.22388,0.033 -0.31055,0.0996 -0.08,0.0667 -0.13659,0.15 -0.16992,0.25 l -2.14063,6.56055 c -0.0733,0.23333 -0.14232,0.46279 -0.20898,0.68945 -0.0667,0.22 -0.12636,0.44016 -0.17969,0.66016 -0.0333,-0.22 -0.0744,-0.44016 -0.12109,-0.66016 -0.0467,-0.22666 -0.0951,-0.45612 -0.14844,-0.68945 l -1.94141,-6.51953 c -0.0333,-0.1 -0.0992,-0.18839 -0.19922,-0.26172 -0.0933,-0.0733 -0.20961,-0.10937 -0.34961,-0.10937 l -1.40039,0 3.2793,10.13086 1.33984,0 c 0.20667,-1e-5 0.34039,-0.11318 0.4004,-0.33985 l 2.27929,-6.86133 c 0.0467,-0.15333 0.0878,-0.30875 0.1211,-0.46875 0.04,-0.16 0.076,-0.31737 0.10937,-0.4707 0.0333,0.15333 0.0663,0.3107 0.0996,0.4707 0.0333,0.15334 0.0775,0.30565 0.13086,0.45899 l 2.24023,6.87109 c 0.0667,0.22667 0.18605,0.33985 0.35938,0.33985 l 1.41016,0 3.27929,-10.13086 -1.33984,0 c -0.12667,0 -0.23675,0.036 -0.33008,0.10937 -0.0933,0.0667 -0.15612,0.15505 -0.18945,0.26172 l -1.98047,6.51953 c -0.06,0.24 -0.11659,0.47255 -0.16992,0.69922 -0.0467,0.22 -0.0889,0.44016 -0.12891,0.66016 -0.0533,-0.22 -0.10992,-0.44326 -0.16992,-0.66993 -0.06,-0.22666 -0.12474,-0.45612 -0.19141,-0.68945 l -2.08984,-6.56055 c -0.0333,-0.1 -0.093,-0.18333 -0.17969,-0.25 -0.0867,-0.0667 -0.19674,-0.0996 -0.33008,-0.0996 l -0.77929,0 z m 229.17968,0 c -0.12,0 -0.22388,0.033 -0.31054,0.0996 -0.08,0.0667 -0.13659,0.15 -0.16993,0.25 l -2.14062,6.56055 c -0.0733,0.23333 -0.14232,0.46279 -0.20898,0.68945 -0.0667,0.22 -0.12636,0.44016 -0.17969,0.66016 -0.0333,-0.22 -0.0744,-0.44016 -0.1211,-0.66016 -0.0467,-0.22666 -0.0951,-0.45612 -0.14843,-0.68945 l -1.94141,-6.51953 c -0.0333,-0.1 -0.0992,-0.18839 -0.19922,-0.26172 -0.0933,-0.0733 -0.20961,-0.10937 -0.34961,-0.10937 l -1.40039,0 3.2793,10.13086 1.33984,0 c 0.20667,-1e-5 0.34039,-0.11318 0.40039,-0.33985 l 2.2793,-6.86133 c 0.0467,-0.15333 0.0878,-0.30875 0.12109,-0.46875 0.04,-0.16 0.076,-0.31737 0.10938,-0.4707 0.0333,0.15333 0.0663,0.3107 0.0996,0.4707 0.0333,0.15334 0.0775,0.30565 0.13086,0.45899 l 2.24023,6.87109 c 0.0667,0.22667 0.18604,0.33985 0.35938,0.33985 l 1.41015,0 3.2793,-10.13086 -1.33984,0 c -0.12667,0 -0.23675,0.036 -0.33008,0.10937 -0.0933,0.0667 -0.15612,0.15505 -0.18946,0.26172 l -1.98046,6.51953 c -0.06,0.24 -0.11659,0.47255 -0.16993,0.69922 -0.0467,0.22 -0.0889,0.44016 -0.1289,0.66016 -0.0533,-0.22 -0.10992,-0.44326 -0.16992,-0.66993 -0.06,-0.22666 -0.12474,-0.45612 -0.19141,-0.68945 l -2.08984,-6.56055 c -0.0333,-0.1 -0.093,-0.18333 -0.17969,-0.25 -0.0867,-0.0667 -0.19675,-0.0996 -0.33008,-0.0996 l -0.7793,0 z m -383.9707,0.0195 4.18164,9.54101 -1.85156,4.01953 1.32031,0 c 0.18667,0 0.32349,-0.0411 0.41016,-0.12109 0.0933,-0.08 0.17047,-0.18503 0.23047,-0.31836 l 5.65039,-13.12109 -1.41016,0 c -0.12,0 -0.23008,0.036 -0.33008,0.10937 -0.0933,0.0667 -0.16117,0.15505 -0.20117,0.26172 l -2.62891,6.36914 c -0.11333,0.3 -0.21411,0.60039 -0.30078,0.90039 -0.0333,-0.15333 -0.0725,-0.29945 -0.11914,-0.43945 -0.0467,-0.14667 -0.0971,-0.29784 -0.15039,-0.45117 l -2.70898,-6.37891 c -0.0333,-0.0933 -0.0981,-0.17667 -0.19141,-0.25 -0.0867,-0.08 -0.20604,-0.12109 -0.35937,-0.12109 l -1.54102,0 z m 24.96094,0 4.18164,9.54101 -1.85156,4.01953 1.32031,0 c 0.18666,0 0.32349,-0.0411 0.41015,-0.12109 0.0933,-0.08 0.17047,-0.18503 0.23047,-0.31836 l 5.65039,-13.12109 -1.41015,0 c -0.12,0 -0.23008,0.036 -0.33008,0.10937 -0.0933,0.0667 -0.16117,0.15505 -0.20117,0.26172 l -2.62891,6.36914 c -0.11333,0.3 -0.21411,0.60039 -0.30078,0.90039 -0.0333,-0.15333 -0.0725,-0.29945 -0.11914,-0.43945 -0.0467,-0.14667 -0.0971,-0.29784 -0.15039,-0.45117 l -2.70899,-6.37891 c -0.0333,-0.0933 -0.0981,-0.17667 -0.1914,-0.25 -0.0867,-0.08 -0.20604,-0.12109 -0.35938,-0.12109 l -1.54101,0 z m 98.08593,0 4.18165,9.54101 -1.85157,4.01953 1.32032,0 c 0.18666,0 0.32349,-0.0411 0.41015,-0.12109 0.0933,-0.08 0.17047,-0.18503 0.23047,-0.31836 l 5.65039,-13.12109 -1.41015,0 c -0.12,0 -0.23009,0.036 -0.33008,0.10937 -0.0933,0.0667 -0.16118,0.15505 -0.20118,0.26172 l -2.6289,6.36914 c -0.11333,0.3 -0.21411,0.60039 -0.30078,0.90039 -0.0333,-0.15333 -0.0725,-0.29945 -0.11914,-0.43945 -0.0467,-0.14667 -0.0971,-0.29784 -0.15039,-0.45117 l -2.70899,-6.37891 c -0.0333,-0.0933 -0.0981,-0.17667 -0.1914,-0.25 -0.0867,-0.08 -0.20604,-0.12109 -0.35938,-0.12109 l -1.54102,0 z m 16.22266,0 0,10.13086 1.7793,0 0,-10.13086 -1.7793,0 z m 23.9336,0 4.18164,9.54101 -1.85157,4.01953 1.32032,0 c 0.18666,0 0.32349,-0.0411 0.41015,-0.12109 0.0933,-0.08 0.17047,-0.18503 0.23047,-0.31836 l 5.65039,-13.12109 -1.41016,0 c -0.11999,0 -0.23008,0.036 -0.33007,0.10937 -0.0933,0.0667 -0.16118,0.15505 -0.20117,0.26172 l -2.62891,6.36914 c -0.11333,0.3 -0.21411,0.60039 -0.30078,0.90039 -0.0333,-0.15333 -0.0725,-0.29945 -0.11914,-0.43945 -0.0467,-0.14667 -0.0971,-0.29784 -0.15039,-0.45117 L 344.8353,75.6015 c -0.0333,-0.0933 -0.0981,-0.17667 -0.1914,-0.25 -0.0867,-0.08 -0.20604,-0.12109 -0.35938,-0.12109 l -1.54101,0 z m 20.87109,0 0,10.13086 1.7793,0 0,-10.13086 -1.7793,0 z m 24.26367,0 0,1.40039 5.44922,0 -5.51953,7.34961 c -0.08,0.10666 -0.13969,0.21984 -0.17969,0.33984 -0.04,0.11333 -0.0606,0.21411 -0.0606,0.30078 l 0,0.74024 7.62891,0 0,-1.39063 -5.53906,0 5.49023,-7.30078 c 0.0733,-0.0867 0.12992,-0.18859 0.16992,-0.30859 0.0467,-0.12001 0.0703,-0.24443 0.0703,-0.3711 l 0,-0.75976 -7.50977,0 z m 19.79883,0 0,10.13086 1.7793,0 0,-10.13086 -1.7793,0 z m 9.30273,0 0,1.40039 5.44922,0 -5.51953,7.34961 c -0.08,0.10666 -0.13969,0.21984 -0.17969,0.33984 -0.04,0.11333 -0.0605,0.21411 -0.0605,0.30078 l 0,0.74024 7.6289,0 0,-1.39063 -5.53906,0 5.49023,-7.30078 c 0.0733,-0.0867 0.12993,-0.18859 0.16993,-0.30859 0.0467,-0.12001 0.0703,-0.24443 0.0703,-0.3711 l 0,-0.75976 -7.50977,0 z M 290.16538,76.3808 c 0.40666,0 0.76984,0.069 1.08984,0.20898 0.32001,0.13333 0.59056,0.32675 0.81055,0.58008 0.22667,0.24667 0.39643,0.54396 0.50977,0.89062 0.12,0.34 0.17968,0.71753 0.17968,1.13086 l -5.53906,0 c 0.12,-0.88 0.42659,-1.56721 0.91992,-2.06054 0.49334,-0.5 1.16929,-0.75 2.0293,-0.75 z m 82.34375,0 c 0.40666,0 0.76984,0.069 1.08984,0.20898 0.32001,0.13333 0.59056,0.32675 0.81055,0.58008 0.22667,0.24667 0.39643,0.54396 0.50977,0.89062 0.12,0.34 0.17968,0.71753 0.17968,1.13086 l -5.53906,0 c 0.12,-0.88 0.42659,-1.56721 0.91992,-2.06054 0.49334,-0.5 1.16929,-0.75 2.0293,-0.75 z m 83.20312,0 c 0.40667,0 0.76985,0.069 1.08985,0.20898 0.32,0.13333 0.59055,0.32675 0.81055,0.58008 0.22666,0.24667 0.39643,0.54396 0.50976,0.89062 0.12,0.34 0.17969,0.71753 0.17969,1.13086 l -5.53906,0 c 0.12,-0.88 0.42658,-1.56721 0.91992,-2.06054 0.49333,-0.5 1.1693,-0.75 2.02929,-0.75 z m -298.24023,0.0898 c 1,0 1.7469,0.33643 2.24023,1.00977 0.49334,0.67333 0.74024,1.61364 0.74024,2.82031 0,1.2 -0.2469,2.13721 -0.74024,2.81055 -0.49333,0.66666 -1.24023,1 -2.24023,1 -1.01333,-1e-5 -1.76953,-0.33334 -2.26953,-1 -0.49333,-0.67334 -0.74024,-1.61055 -0.74024,-2.81055 0,-0.6 0.0597,-1.13604 0.17969,-1.60938 0.12667,-0.48 0.31388,-0.88427 0.56055,-1.21093 0.25333,-0.32667 0.56612,-0.57667 0.93945,-0.75 0.38,-0.17334 0.82341,-0.25977 1.33008,-0.25977 z m 367.26563,0 c 1,0 1.7469,0.33643 2.24023,1.00977 0.49333,0.67333 0.74023,1.61364 0.74023,2.82031 0,1.2 -0.2469,2.13721 -0.74023,2.81055 -0.49333,0.66666 -1.24023,1 -2.24023,1 -1.01334,-1e-5 -1.76954,-0.33334 -2.26954,-1 -0.49333,-0.67334 -0.74023,-1.61055 -0.74023,-2.81055 0,-0.6 0.0597,-1.13604 0.17969,-1.60938 0.12666,-0.48 0.31388,-0.88427 0.56054,-1.21093 0.25334,-0.32667 0.56612,-0.57667 0.93946,-0.75 0.38,-0.17334 0.82341,-0.25977 1.33008,-0.25977 z m -264.71094,0.0195 c 0.40667,0 0.76985,0.0709 1.08984,0.21094 0.32,0.14 0.59055,0.36325 0.81055,0.66992 0.22001,0.3 0.38667,0.68682 0.5,1.16016 0.12,0.47333 0.17969,1.03922 0.17969,1.69922 0,1.24666 -0.2531,2.20752 -0.75977,2.88086 -0.50667,0.67333 -1.23302,1.00976 -2.17969,1.00976 -0.47999,0 -0.9172,-0.0895 -1.31054,-0.26953 -0.38667,-0.18 -0.74055,-0.49164 -1.06055,-0.93164 l 0,-4.89844 c 0.36667,-0.48667 0.76784,-0.86419 1.20117,-1.13086 0.44,-0.26666 0.9493,-0.40039 1.5293,-0.40039 z m 176.13281,0 c 0.40667,0 0.76984,0.0709 1.08984,0.21094 0.32,0.14 0.59055,0.36325 0.81055,0.66992 0.22,0.3 0.38667,0.68682 0.5,1.16016 0.12,0.47333 0.17969,1.03922 0.17969,1.69922 0,1.24666 -0.2531,2.20752 -0.75977,2.88086 -0.50666,0.67333 -1.23302,1.00976 -2.17968,1.00976 -0.48,0 -0.91722,-0.0895 -1.31055,-0.26953 -0.38667,-0.18 -0.74055,-0.49164 -1.06055,-0.93164 l 0,-4.89844 c 0.36667,-0.48667 0.76784,-0.86419 1.20117,-1.13086 0.44,-0.26666 0.9493,-0.40039 1.5293,-0.40039 z m -198.87305,4.31055 0,2.09961 c -0.2,0.21333 -0.40776,0.40674 -0.62109,0.58008 -0.20667,0.16666 -0.42682,0.30968 -0.66016,0.42968 -0.22666,0.11334 -0.46851,0.20482 -0.72851,0.27149 -0.26,0.06 -0.548,0.0898 -0.86133,0.0898 -0.23333,0 -0.45349,-0.0267 -0.66016,-0.0801 -0.2,-0.06 -0.37596,-0.15148 -0.52929,-0.27148 -0.14667,-0.12667 -0.26295,-0.28518 -0.34961,-0.47852 -0.0867,-0.19333 -0.13086,-0.42474 -0.13086,-0.6914 0,-0.28 0.0802,-0.5331 0.24023,-0.75977 0.16667,-0.22667 0.43102,-0.42318 0.79102,-0.58984 0.36666,-0.16667 0.83682,-0.30039 1.41015,-0.40039 0.58,-0.10667 1.27961,-0.17256 2.09961,-0.19922 z m 34.92188,0 0,2.09961 c -0.2,0.21333 -0.40776,0.40674 -0.6211,0.58008 -0.20666,0.16666 -0.42682,0.30968 -0.66015,0.42968 -0.22667,0.11334 -0.46852,0.20482 -0.72852,0.27149 -0.26,0.06 -0.54799,0.0898 -0.86133,0.0898 -0.23333,0 -0.45348,-0.0267 -0.66015,-0.0801 -0.2,-0.06 -0.37596,-0.15148 -0.5293,-0.27148 -0.14666,-0.12667 -0.26294,-0.28518 -0.34961,-0.47852 -0.0867,-0.19333 -0.13086,-0.42474 -0.13086,-0.6914 0,-0.28 0.0802,-0.5331 0.24024,-0.75977 0.16666,-0.22667 0.43101,-0.42318 0.79101,-0.58984 0.36667,-0.16667 0.83683,-0.30039 1.41016,-0.40039 0.58,-0.10667 1.27961,-0.17256 2.09961,-0.19922 z m 280.78125,0 0,2.09961 c -0.2,0.21333 -0.40776,0.40674 -0.62109,0.58008 -0.20667,0.16666 -0.42683,0.30968 -0.66016,0.42968 -0.22667,0.11334 -0.46852,0.20482 -0.72852,0.27149 -0.26,0.06 -0.54799,0.0898 -0.86132,0.0898 -0.23334,0 -0.45349,-0.0267 -0.66016,-0.0801 -0.2,-0.06 -0.37596,-0.15148 -0.5293,-0.27148 -0.14666,-0.12667 -0.26294,-0.28518 -0.34961,-0.47852 -0.0867,-0.19333 -0.13086,-0.42474 -0.13086,-0.6914 0,-0.28 0.0802,-0.5331 0.24024,-0.75977 0.16666,-0.22667 0.43101,-0.42318 0.79101,-0.58984 0.36667,-0.16667 0.83683,-0.30039 1.41016,-0.40039 0.58,-0.10667 1.27961,-0.17256 2.09961,-0.19922 z"
     style="font-style:normal;font-variant:normal;font-weight:500;font-stretch:normal;font-size:medium;line-height:125%;font-family:Lato;-inkscape-font-specification:'Lato, Medium';text-align:start;letter-spacing:0px;word-spacing:0px;writing-mode:lr-tb;text-anchor:start;fill:#000000;fill-opacity:1;stroke:none;stroke-width:1px;stroke-linecap:butt;stroke-linejoin:miter;stroke-opacity:1" />
</svg>
