<?xml version="1.0" encoding="UTF-8" standalone="no"?>
<svg
   xmlns:dc="http://purl.org/dc/elements/1.1/"
   xmlns:cc="http://creativecommons.org/ns#"
   xmlns:rdf="http://www.w3.org/1999/02/22-rdf-syntax-ns#"
   xmlns:svg="http://www.w3.org/2000/svg"
   xmlns="http://www.w3.org/2000/svg"
   xmlns:sodipodi="http://sodipodi.sourceforge.net/DTD/sodipodi-0.dtd"
   xmlns:inkscape="http://www.inkscape.org/namespaces/inkscape"
   version="1.1"
   id="svg2"
   viewBox="0 0 160.58484 173.10001"
   height="173.10001"
   width="160.58484"
   inkscape:version="0.91 r13725"
   sodipodi:docname="hebankowy-logo.svg">
  <sodipodi:namedview
     pagecolor="#ffffff"
     bordercolor="#666666"
     borderopacity="1"
     objecttolerance="10"
     gridtolerance="10"
     guidetolerance="10"
     inkscape:pageopacity="0"
     inkscape:pageshadow="2"
     inkscape:window-width="2560"
     inkscape:window-height="1407"
     id="namedview3400"
     showgrid="false"
     inkscape:zoom="5.0816915"
     inkscape:cx="60.985727"
     inkscape:cy="89.251039"
     inkscape:window-x="0"
     inkscape:window-y="33"
     inkscape:window-maximized="1"
     inkscape:current-layer="layer1" />
  <defs
     id="defs4" />
  <metadata
     id="metadata7">
    <rdf:RDF>
      <cc:Work
         rdf:about="">
        <dc:format>image/svg+xml</dc:format>
        <dc:type
           rdf:resource="http://purl.org/dc/dcmitype/StillImage" />
        <dc:title />
      </cc:Work>
    </rdf:RDF>
  </metadata>
  <g
     id="g3402">
    <g
       id="layer1"
       transform="translate(-3.4048862,-893.58407)">
      <flowRoot
         xml:space="preserve"
         id="flowRoot3336"
         style="font-style:normal;font-weight:normal;font-size:40px;line-height:125%;font-family:sans-serif;letter-spacing:0px;word-spacing:0px;fill:#000000;fill-opacity:1;stroke:none;stroke-width:1px;stroke-linecap:butt;stroke-linejoin:miter;stroke-opacity:1"><flowRegion
           id="flowRegion3338"><rect
             id="rect3340"
             width="25.714285"
             height="117.14286"
             x="448.57144"
             y="443.79077" /></flowRegion><flowPara
           id="flowPara3342" /></flowRoot>      <path
         style="font-style:normal;font-variant:normal;font-weight:normal;font-stretch:normal;font-size:medium;line-height:69.99999881%;font-family:Lato;-inkscape-font-specification:'Lato, Normal';text-align:start;letter-spacing:-5.60634136px;word-spacing:0px;writing-mode:lr-tb;text-anchor:start;fill:#000000;fill-opacity:1;stroke:none;stroke-width:1px;stroke-linecap:butt;stroke-linejoin:miter;stroke-opacity:1"
         d="m 4.0713826,893.58407 0,52.5 0,2.73828 0,52.49995 6.3281254,0 0,-18.15034 1.802734,0 c 0.706924,0 1.224788,0.0867 1.554687,0.26172 0.353462,0.15 0.707084,0.48867 1.060547,1.01367 l 11.769531,15.56245 c 0.282771,0.5 0.613209,0.8489 0.990235,1.0489 0.40059,0.175 0.872087,0.2636 1.414062,0.2636 l 5.619141,0 -13.996094,-18.74995 c -0.306334,-0.5 -0.636772,-0.9375 -0.990234,-1.3125 -0.329898,-0.39999 -0.706704,-0.75077 -1.13086,-1.05078 0.73049,-0.475 1.412597,-1.13828 2.048828,-1.98828 l 13.185547,-14.88672 -5.691406,0 c -0.612668,0 -1.107348,0.12501 -1.484375,0.375 -0.353462,0.225 -0.695493,0.5496 -1.025391,0.97461 l -11.310547,12.86328 c -0.353461,0.425 -0.695491,0.71132 -1.02539,0.86133 -0.306334,0.12499 -0.694733,0.1875 -1.166015,0.1875 l -1.625,0 0,-29.77344 0,-2.73828 0,-25.23828 c 1.343156,-1.625 2.815606,-2.91132 4.417968,-3.86133 1.625926,-0.95 3.380493,-1.42578 5.265625,-1.42578 2.521364,0 4.395758,0.80039 5.621094,2.40039 1.2489,1.575 1.873047,3.80078 1.873047,6.67578 l 0,24.1875 6.326171,0 0,-24.1875 c 0,-2.15 -0.258932,-4.11367 -0.777343,-5.88867 -0.518411,-1.775 -1.283617,-3.28711 -2.296875,-4.53711 -0.989694,-1.275 -2.239942,-2.25078 -3.748047,-2.92578 -1.484541,-0.7 -3.204332,-1.04883 -5.160156,-1.04883 -2.427108,0 -4.570074,0.52422 -6.431641,1.57422 -1.861568,1.02501 -3.558174,2.40001 -5.089843,4.125 l 0,-22.34961 -6.3281254,0 z m 65.8828124,0 0,55.23828 4.064453,0 c 0.895437,0 1.436487,-0.47577 1.625,-1.42578 l 0.318359,-3.44922 c 1.201772,1.72501 2.60467,3.06173 4.207032,4.01172 1.625925,0.92501 3.616241,1.38672 5.972656,1.38672 2.379979,0 4.524897,-0.48594 6.433594,-1.46094 1.908695,-1.00001 3.522202,-2.38906 4.841796,-4.16406 1.343157,-1.8 2.369251,-3.96133 3.076175,-6.48633 0.70692,-2.525 1.06054,-5.32539 1.06054,-8.40039 0,-2.875 -0.31884,-5.46173 -0.95507,-7.76172 -0.61267,-2.30001 -1.507344,-4.25156 -2.685551,-5.85156 -1.178209,-1.625 -2.615881,-2.86094 -4.3125,-3.71094 -1.673055,-0.85 -3.559041,-1.27539 -5.65625,-1.27539 -2.474235,0 -4.665523,0.55038 -6.574219,1.65039 -1.908696,1.09999 -3.605302,2.58594 -5.089843,4.46094 l 0,-22.76172 -6.326172,0 z m 47.259765,16.57422 c -2.78056,0 -5.31193,0.5 -7.59766,1.5 -2.28572,1 -4.41905,2.51406 -6.39843,4.53906 l 1.13085,2.13672 c 0.21208,0.35 0.47101,0.65039 0.77735,0.90039 0.30633,0.225 0.67155,0.33789 1.0957,0.33789 0.54198,0 1.08497,-0.20156 1.62695,-0.60156 0.56554,-0.425 1.22447,-0.88672 1.97852,-1.38672 0.77762,-0.52499 1.68583,-0.98671 2.72266,-1.38672 1.06038,-0.425 2.36665,-0.63867 3.92187,-0.63867 2.3093,0 4.06581,0.76211 5.26758,2.28711 1.20177,1.5 1.80273,3.72578 1.80273,6.67578 l 0,2.96289 c -4.07659,0.1 -7.51812,0.49921 -10.32226,1.19922 -2.80413,0.67499 -5.07656,1.55 -6.82031,2.625 -1.74375,1.075 -3.00559,2.31289 -3.78321,3.71289 -0.77762,1.37501 -1.16601,2.8125 -1.16601,4.3125 0,1.72499 0.25893,3.225 0.77734,4.5 0.54198,1.25 1.26082,2.28827 2.15625,3.11328 0.91901,0.82499 1.99146,1.44999 3.2168,1.875 1.22533,0.39999 2.53353,0.59961 3.92383,0.59961 1.36671,0 2.60341,-0.13711 3.71093,-0.41211 1.13108,-0.25 2.18036,-0.61289 3.14649,-1.08789 0.98969,-0.5 1.93073,-1.10078 2.82617,-1.80078 0.919,-0.725 1.8504,-1.5375 2.79297,-2.4375 l 0.70703,3.5625 c 0.18851,0.625 0.44744,1.05039 0.77734,1.27539 0.3299,0.20001 0.8014,0.30078 1.41407,0.30078 l 2.79297,0 0,-24.30078 c -1e-5,-2.12499 -0.27053,-4.07461 -0.8125,-5.84961 -0.54198,-1.775 -1.34392,-3.28711 -2.4043,-4.53711 -1.0604,-1.25001 -2.3686,-2.22579 -3.92383,-2.92578 -1.55523,-0.70001 -3.33493,-1.05078 -5.33789,-1.05078 z m -64.427734,0.0762 c -2.592057,0 -4.924402,0.48789 -6.998047,1.46289 -2.073645,0.95 -3.830165,2.27461 -5.267578,3.97461 -1.437413,1.675 -2.544649,3.66289 -3.322266,5.96289 -0.754053,2.30001 -1.130859,4.77384 -1.130859,7.42383 0,3.275 0.423175,6.17616 1.271484,8.70117 0.84831,2.52499 2.027051,4.64999 3.535157,6.375 1.531669,1.7 3.334557,2.99844 5.408203,3.89844 2.097209,0.875 4.383186,1.3125 6.857422,1.3125 1.296028,0 2.604236,-0.125 3.923828,-0.375 1.319592,-0.225 2.591071,-0.57383 3.816406,-1.04883 1.2489,-0.47499 2.416049,-1.07577 3.5,-1.80078 1.083951,-0.75 2.013399,-1.625 2.791016,-2.625 l -1.767579,-2.4375 c -0.282769,-0.42499 -0.68276,-0.63672 -1.201171,-0.63672 -0.400591,0 -0.88368,0.19962 -1.449219,0.59961 -0.541976,0.375 -1.224084,0.78828 -2.048828,1.23828 -0.824746,0.45001 -1.81606,0.87344 -2.970703,1.27344 -1.131079,0.375 -2.485655,0.5625 -4.064453,0.5625 -1.696619,0 -3.22703,-0.28633 -4.59375,-0.86133 -1.366721,-0.6 -2.545463,-1.48711 -3.535157,-2.66211 -0.989694,-1.2 -1.768445,-2.68789 -2.333984,-4.46289 -0.565541,-1.775 -0.870842,-3.86367 -0.917969,-6.26367 l 23.929688,0 c 0.589104,0 0.989094,-0.17344 1.201172,-0.52344 0.212076,-0.34999 0.318359,-1.05156 0.318359,-2.10156 0,-2.70001 -0.376807,-5.09922 -1.130859,-7.19922 -0.754053,-2.125 -1.803329,-3.89922 -3.146485,-5.32422 -1.319593,-1.45 -2.898324,-2.55078 -4.736328,-3.30078 -1.814439,-0.775 -3.793163,-1.16211 -5.9375,-1.16211 z m 98.828124,0 c -2.52136,0 -4.74937,0.5625 -6.68164,1.6875 -1.93225,1.12501 -3.67524,2.59883 -5.23047,4.42383 l -0.49414,-4.125 c -0.21207,-0.925 -0.76667,-1.38672 -1.66211,-1.38672 l -3.78125,0 0,37.98828 6.32617,0 0,-27.97656 c 1.34316,-1.625 2.8156,-2.91132 4.41797,-3.86133 1.62592,-0.95 3.38245,-1.42578 5.26758,-1.42578 2.52137,0 4.39381,0.80039 5.61914,2.40039 1.2489,1.575 1.87305,3.80078 1.87305,6.67578 l 0,24.1875 6.32812,0 0,-24.1875 c 0,-2.15 -0.25894,-4.11367 -0.77734,-5.88867 -0.51842,-1.775 -1.28557,-3.28711 -2.29883,-4.53711 -0.98969,-1.275 -2.23799,-2.25078 -3.74609,-2.92578 -1.48454,-0.7 -3.20433,-1.04883 -5.16016,-1.04883 z m -98.687499,4.91211 c 1.437413,0 2.722437,0.26211 3.853516,0.78711 1.131079,0.50001 2.085664,1.22579 2.863281,2.17578 0.801181,0.925 1.402144,2.03789 1.802734,3.33789 0.424154,1.275 0.634766,2.68633 0.634766,4.23633 l -19.582031,0 c 0.424154,-3.3 1.508205,-5.87461 3.251953,-7.72461 1.743746,-1.875 4.136006,-2.8125 7.175781,-2.8125 z m 32.931641,0.41211 c 2.945518,0 5.20831,1.10078 6.787109,3.30078 1.602362,2.175 2.404297,5.58633 2.404297,10.23633 0,5 -0.896624,8.76406 -2.6875,11.28906 -1.790875,2.525 -4.370561,3.78711 -7.740235,3.78711 -1.64949,0 -3.170262,-0.33867 -4.560546,-1.01367 -1.366721,-0.675 -2.626607,-1.83632 -3.78125,-3.48633 l 0,-18.375 c 1.272464,-1.825 2.675362,-3.23828 4.207031,-4.23828 1.531669,-1 3.321012,-1.5 5.371094,-1.5 z m 37.683588,16.16211 0,7.875 c -0.70692,0.8 -1.43735,1.52579 -2.1914,2.17578 -0.7305,0.625 -1.50924,1.16328 -2.33399,1.61328 -0.80117,0.42501 -1.66107,0.76172 -2.58007,1.01172 -0.919,0.22499 -1.93155,0.33789 -3.03907,0.33789 -0.82474,0 -1.60153,-0.10078 -2.33203,-0.30078 -0.70692,-0.225 -1.33302,-0.56172 -1.875,-1.01172 -0.51841,-0.475 -0.93,-1.07579 -1.23633,-1.80078 -0.30633,-0.725 -0.45898,-1.58789 -0.45898,-2.58789 0,-1.05 0.28212,-1.99961 0.84766,-2.84961 0.5891,-0.85 1.5205,-1.58789 2.79296,-2.21289 1.29603,-0.625 2.95591,-1.125 4.98243,-1.5 2.05008,-0.4 4.52544,-0.65 7.42382,-0.75 z m -70.67187,31.01367 c -2.639184,0 -5.019851,0.46171 -7.140625,1.38672 -2.097209,0.92499 -3.888505,2.2375 -5.373046,3.9375 -1.484542,1.7 -2.626554,3.7625 -3.427735,6.1875 -0.777617,2.4 -1.166015,5.0875 -1.166015,8.0625 0,3.00001 0.388398,5.69961 1.166015,8.09961 0.801181,2.4 1.943193,4.45039 3.427735,6.15039 1.484541,1.69999 3.275837,3.0125 5.373046,3.93752 2.120774,0.9 4.501441,1.3496 7.140625,1.3496 0.98928,0 1.92863,-0.084 2.84375,-0.2129 l 0,52.1895 6.291016,0 0,-54.45122 c 1.227504,-0.77868 2.339281,-1.70475 3.306641,-2.8125 1.484541,-1.7 2.614961,-3.75039 3.392578,-6.15039 0.801181,-2.4 1.201172,-5.0996 1.201172,-8.09961 0,-2.975 -0.399991,-5.6625 -1.201172,-8.0625 -0.777617,-2.425 -1.908037,-4.4875 -3.392578,-6.1875 -1.484542,-1.7 -3.275839,-3.01251 -5.373047,-3.9375 -2.09721,-0.92501 -4.452739,-1.38672 -7.06836,-1.38672 z m 45.798829,0.52539 c -0.424156,0 -0.789372,0.125 -1.095704,0.375 -0.282772,0.25001 -0.483745,0.56251 -0.601562,0.9375 l -7.564453,24.59961 c -0.259206,0.875 -0.506546,1.73788 -0.742188,2.58789 -0.235641,0.82499 -0.448205,1.64961 -0.636719,2.47461 -0.11782,-0.825 -0.258878,-1.64962 -0.423828,-2.47461 -0.164948,-0.85001 -0.340783,-1.71289 -0.529296,-2.58789 l -6.857422,-24.45117 c -0.117821,-0.375 -0.353569,-0.69962 -0.707032,-0.97461 -0.329897,-0.275 -0.743434,-0.41211 -1.238281,-0.41211 l -4.947265,0 11.59375,37.98823 4.736328,0 c 0.730488,0 1.201985,-0.4253 1.414062,-1.2753 l 8.058594,-25.72465 c 0.164949,-0.57499 0.306011,-1.16366 0.423828,-1.76367 0.141389,-0.6 0.270858,-1.18673 0.388672,-1.76172 0.117827,0.57499 0.235707,1.16172 0.353517,1.76172 0.11783,0.575 0.27047,1.1496 0.45898,1.72461 l 7.91797,25.76371 c 0.23564,0.85 0.66077,1.2753 1.27344,1.2753 l 4.98242,0 11.59375,-37.98823 -4.73633,0 c -0.44772,0 -0.83612,0.13711 -1.16601,0.41211 -0.3299,0.25 -0.55406,0.57461 -0.67188,0.97461 l -6.99805,24.45117 c -0.21208,0.90001 -0.41304,1.77501 -0.60156,2.625 -0.16495,0.825 -0.3176,1.6496 -0.45898,2.47461 -0.18852,-0.82501 -0.38948,-1.66173 -0.60157,-2.51172 -0.21208,-0.85001 -0.43623,-1.71289 -0.67187,-2.58789 l -7.38672,-24.59961 c -0.11782,-0.37499 -0.33038,-0.68749 -0.63672,-0.9375 -0.30633,-0.25 -0.69472,-0.375 -1.16601,-0.375 l -2.755861,0 z m 29.613281,0.0742 14.77539,35.77539 -6.53906,15.07424 4.66601,0 c 0.6598,0 1.14289,-0.1492 1.44922,-0.4492 0.3299,-0.3 0.60043,-0.7012 0.8125,-1.2012 l 19.9707,-49.19923 -4.98437,0 c -0.42415,0 -0.81256,0.13711 -1.16602,0.41211 -0.3299,0.25 -0.56564,0.57461 -0.70703,0.97461 l -9.29687,23.88867 c -0.4006,1.12501 -0.75226,2.25 -1.0586,3.375 -0.11782,-0.57501 -0.26083,-1.12539 -0.42578,-1.65039 -0.16495,-0.55 -0.34078,-1.11251 -0.52929,-1.6875 l -9.57813,-23.92578 c -0.11781,-0.35 -0.34197,-0.6625 -0.67187,-0.9375 -0.30634,-0.3 -0.73148,-0.44922 -1.27344,-0.44922 l -5.44336,0 z m -75.41211,4.65039 c 3.534622,0 6.172269,1.26212 7.916016,3.78711 1.743747,2.525 2.617187,6.04922 2.617187,10.57422 10e-7,4.5 -0.87344,8.01407 -2.617187,10.53906 -1.743747,2.5 -4.381394,3.75 -7.916016,3.75 -3.58175,0 -6.258079,-1.25 -8.02539,-3.75 -1.743747,-2.52499 -2.615235,-6.03906 -2.615235,-10.53906 0,-2.25 0.212564,-4.26211 0.636719,-6.03711 0.447719,-1.79999 1.106642,-3.3121 1.978516,-4.53711 0.895438,-1.225 2.004626,-2.1625 3.324219,-2.8125 1.343156,-0.64999 2.910296,-0.97461 4.701171,-0.97461 z m -16.517578,47.17384 c -2.544927,0 -4.805767,0.6008 -6.785156,1.8008 -1.979389,1.2 -3.735909,2.7867 -5.267578,4.7617 l -0.529297,-4.5 c -0.212077,-0.925 -0.766671,-1.3867 -1.662109,-1.3867 l -3.78125,0 0,50.8496 6.326171,0 0,-16.7988 c 1.201772,1.4249 2.579533,2.5238 4.134766,3.2988 1.578798,0.775 3.464784,1.1621 5.65625,1.1621 2.403543,0 4.560053,-0.5 6.46875,-1.5 1.93226,-1.025 3.557361,-2.4121 4.876953,-4.1621 1.343156,-1.775 2.369247,-3.8617 3.076172,-6.2617 0.706925,-2.425 1.060547,-5.0379 1.060547,-7.8379 0,-3.15 -0.318846,-5.9383 -0.955078,-8.3633 -0.636232,-2.425 -1.544449,-4.4492 -2.722656,-6.0742 -1.178208,-1.65 -2.602336,-2.8879 -4.275391,-3.7129 -1.673055,-0.85 -3.547448,-1.2754 -5.621094,-1.2754 z m -2.048828,5.4004 c 1.437413,0 2.720483,0.2621 3.851563,0.7871 1.131079,0.525 2.085664,1.3637 2.863281,2.5137 0.777617,1.125 1.366987,2.5746 1.767578,4.3496 0.424154,1.775 0.636719,3.9 0.636719,6.375 0,4.675 -0.896626,8.2758 -2.6875,10.8008 -1.790876,2.525 -4.35897,3.7871 -7.705078,3.7871 -1.696619,0 -3.240575,-0.3387 -4.63086,-1.0137 -1.36672,-0.675 -2.615014,-1.8364 -3.746094,-3.4863 l 0,-18.375 c 1.296029,-1.825 2.710518,-3.2383 4.242188,-4.2383 1.555233,-1 3.358122,-1.5 5.408203,-1.5 z m -26.9101558,24.4121 c -0.6126679,0 -1.1884934,0.125 -1.7304688,0.375 -0.5419754,0.2501 -1.0134719,0.5887 -1.4140625,1.0137 -0.3770263,0.4249 -0.6842803,0.9249 -0.9199218,1.5 -0.2120774,0.5749 -0.3183594,1.1878 -0.3183594,1.8379 0,0.6749 0.106282,1.2999 0.3183594,1.875 0.2356415,0.5499 0.5428955,1.0358 0.9199218,1.4609 0.4005906,0.425 0.8720871,0.7516 1.4140625,0.9766 0.5419754,0.25 1.1178009,0.375 1.7304688,0.375 0.6126678,0 1.1904465,-0.125 1.7324219,-0.375 0.5419755,-0.225 1.0134719,-0.5516 1.4140629,-0.9766 0.40059,-0.4251 0.719436,-0.911 0.955078,-1.4609 0.235641,-0.5751 0.353515,-1.2001 0.353515,-1.875 0,-0.6501 -0.117874,-1.263 -0.353515,-1.8379 -0.235642,-0.5751 -0.554488,-1.0751 -0.955078,-1.5 -0.400591,-0.425 -0.8720874,-0.7636 -1.4140629,-1.0137 -0.5419754,-0.25 -1.1197541,-0.375 -1.7324219,-0.375 z"
         id="path3432"
         inkscape:connector-curvature="0" />
      <flowRoot
         xml:space="preserve"
         id="flowRoot3423"
         style="fill:black;stroke:none;stroke-opacity:1;stroke-width:1px;stroke-linejoin:miter;stroke-linecap:butt;fill-opacity:1;font-family:sans-serif;font-style:normal;font-weight:normal;font-size:40px;line-height:125%;letter-spacing:0px;word-spacing:0px"><flowRegion
           id="flowRegion3425"><rect
             id="rect3427"
             width="80.681793"
             height="66.906853"
             x="-110.78988"
             y="30.430977" /></flowRegion><flowPara
           id="flowPara3429"></flowPara></flowRoot>    </g>
  </g>
</svg>
