<?xml version="1.0" encoding="UTF-8" standalone="no"?>
<!-- Generator: Adobe Illustrator 19.0.0, SVG Export Plug-In . SVG Version: 6.00 Build 0)  -->

<svg
   xmlns:dc="http://purl.org/dc/elements/1.1/"
   xmlns:cc="http://creativecommons.org/ns#"
   xmlns:rdf="http://www.w3.org/1999/02/22-rdf-syntax-ns#"
   xmlns:svg="http://www.w3.org/2000/svg"
   xmlns="http://www.w3.org/2000/svg"
   xmlns:sodipodi="http://sodipodi.sourceforge.net/DTD/sodipodi-0.dtd"
   xmlns:inkscape="http://www.inkscape.org/namespaces/inkscape"
   version="1.1"
   id="Capa_1"
   x="0px"
   y="0px"
   viewBox="0 0 463 463"
   style="enable-background:new 0 0 463 463;"
   xml:space="preserve"
   inkscape:version="0.91 r13725"
   sodipodi:docname="meadow.svg"><metadata
     id="metadata39"><rdf:RDF><cc:Work
         rdf:about=""><dc:format>image/svg+xml</dc:format><dc:type
           rdf:resource="http://purl.org/dc/dcmitype/StillImage" /></cc:Work></rdf:RDF></metadata><defs
     id="defs37" /><sodipodi:namedview
     pagecolor="#ffffff"
     bordercolor="#666666"
     borderopacity="1"
     objecttolerance="10"
     gridtolerance="10"
     guidetolerance="10"
     inkscape:pageopacity="0"
     inkscape:pageshadow="2"
     inkscape:window-width="986"
     inkscape:window-height="695"
     id="namedview35"
     showgrid="false"
     inkscape:zoom="0.50971922"
     inkscape:cx="231.5"
     inkscape:cy="231.5"
     inkscape:window-x="0"
     inkscape:window-y="34"
     inkscape:window-maximized="0"
     inkscape:current-layer="Capa_1" /><path
     d="M 317.577,86.767 C 293.319,30.814 262.75,0 231.5,0 200.25,0 169.681,30.814 145.423,86.767 124.807,134.319 112,192.843 112,239.5 c 0,59.349 43.286,109.338 101.426,118.135 L 208.405,448 199.5,448 C 195.358,448 -0.26271186,461.16732 -0.26271186,465.30932 -0.26271186,469.45132 195.358,463 199.5,463 l 64,0 c 4.142,0 203.68644,6.45132 203.68644,2.30932 C 467.18644,461.16732 267.642,448 263.5,448 l -8.905,0 -5.02,-90.361 c 27.112,-4.119 52,-17.477 70.556,-37.982 C 340.037,297.659 351,269.192 351,239.5 351,192.843 338.193,134.319 317.577,86.767 Z M 223.428,448 231.484,302.999 c 0.005,0 0.011,10e-4 0.016,10e-4 0.005,0 0.011,-10e-4 0.016,-10e-4 L 239.572,448 Z m 85.58,-138.408 c -15.904,17.575 -37.125,29.125 -60.271,32.971 l -2.826,-50.868 38.892,-38.892 c 2.929,-2.929 2.929,-7.678 0,-10.606 -2.929,-2.929 -7.678,-2.929 -10.606,0 l -29.402,29.402 -1.831,-32.956 17.839,-17.839 c 2.929,-2.929 2.929,-7.678 0,-10.606 -2.929,-2.929 -7.678,-2.929 -10.606,0 l -8.349,8.35 -2.859,-51.462 c -0.221,-3.975 -3.508,-7.084 -7.488,-7.084 -3.98,0 -7.268,3.109 -7.488,7.084 l -4.543,81.778 -30.665,-30.665 c -2.929,-2.929 -7.678,-2.929 -10.606,0 -2.929,2.929 -2.929,7.678 0,10.606 l 40.155,40.155 -4.09,73.625 C 164.145,334.302 127,290.917 127,239.5 127,195.44 139.633,137.831 159.185,92.733 180.603,43.333 206.96,15 231.5,15 256.04,15 282.397,43.333 303.815,92.733 323.367,137.831 336,195.44 336,239.5 c 0,25.965 -9.586,50.857 -26.992,70.092 z"
     id="path3"
     inkscape:connector-curvature="0"
     sodipodi:nodetypes="ssssccsssssscccssccscccsccsccccsccccsccsccccscscss" /><g
     id="g5" /><g
     id="g7" /><g
     id="g9" /><g
     id="g11" /><g
     id="g13" /><g
     id="g15" /><g
     id="g17" /><g
     id="g19" /><g
     id="g21" /><g
     id="g23" /><g
     id="g25" /><g
     id="g27" /><g
     id="g29" /><g
     id="g31" /><g
     id="g33" /></svg>