<?xml version="1.0" encoding="iso-8859-1"?>
<!-- Generator: Adobe Illustrator 17.1.0, SVG Export Plug-In . SVG Version: 6.00 Build 0)  -->
<!DOCTYPE svg PUBLIC "-//W3C//DTD SVG 1.1//EN" "http://www.w3.org/Graphics/SVG/1.1/DTD/svg11.dtd">
<svg xmlns="http://www.w3.org/2000/svg" xmlns:xlink="http://www.w3.org/1999/xlink" version="1.1" id="Capa_1" x="0px" y="0px" viewBox="0 0 206.148 206.148" style="enable-background:new 0 0 206.148 206.148;" xml:space="preserve" width="512px" height="512px">
<path d="M187.574,206.148h-46.28c-1.381,0-2.5-1.119-2.5-2.5V77.808c0-0.848,0.43-1.638,1.142-2.099  c0.713-0.46,1.61-0.528,2.383-0.181l15.583,7.003c0.043-0.002,0.086-0.003,0.13-0.003h22.021c1.381,0,2.5,1.119,2.5,2.5v8.583  l6.046,2.717c0.898,0.403,1.476,1.296,1.476,2.28v105.04C190.074,205.029,188.955,206.148,187.574,206.148z M143.794,201.148h41.28  V100.225l-41.28-18.553V201.148z M169.018,87.527l8.534,3.835v-3.835H169.018z M129.161,206.148h-52c-1.381,0-2.5-1.119-2.5-2.5  V55.968c0-1.381,1.119-2.5,2.5-2.5h3.566v-11.54c0-1.381,1.119-2.5,2.5-2.5h3.645l4.753-20.595c0.262-1.134,1.271-1.938,2.436-1.938  h6.601V2.5c0-1.381,1.119-2.5,2.5-2.5s2.5,1.119,2.5,2.5v14.395h6.6c1.164,0,2.174,0.804,2.436,1.938l4.753,20.595h3.645  c1.381,0,2.5,1.119,2.5,2.5v11.54h3.567c1.381,0,2.5,1.119,2.5,2.5v147.68C131.661,205.029,130.542,206.148,129.161,206.148z   M79.661,201.148h47V58.468h-47V201.148z M85.727,53.468h34.866v-9.04H85.727V53.468z M92.004,39.428h22.314l-4.046-17.533H96.05  L92.004,39.428z M64.854,206.148h-46.28c-1.381,0-2.5-1.119-2.5-2.5v-97.414c0-1.381,1.119-2.5,2.5-2.5h46.28  c1.381,0,2.5,1.119,2.5,2.5v97.414C67.354,205.029,66.235,206.148,64.854,206.148z M21.074,201.148h41.28v-92.414h-41.28V201.148z   M178.258,190.149c-1.381,0-2.5-1.119-2.5-2.5v-5.782c0-1.381,1.119-2.5,2.5-2.5s2.5,1.119,2.5,2.5v5.782  C180.758,189.03,179.638,190.149,178.258,190.149z M169.042,190.149c-1.381,0-2.5-1.119-2.5-2.5v-5.782c0-1.381,1.119-2.5,2.5-2.5  s2.5,1.119,2.5,2.5v5.782C171.542,189.03,170.423,190.149,169.042,190.149z M159.826,190.149c-1.381,0-2.5-1.119-2.5-2.5v-5.782  c0-1.381,1.119-2.5,2.5-2.5s2.5,1.119,2.5,2.5v5.782C162.326,189.03,161.207,190.149,159.826,190.149z M150.611,190.149  c-1.381,0-2.5-1.119-2.5-2.5v-5.782c0-1.381,1.119-2.5,2.5-2.5s2.5,1.119,2.5,2.5v5.782  C153.111,189.03,151.992,190.149,150.611,190.149z M118.01,190.149c-1.381,0-2.5-1.119-2.5-2.5v-5.782c0-1.381,1.119-2.5,2.5-2.5  s2.5,1.119,2.5,2.5v5.782C120.51,189.03,119.39,190.149,118.01,190.149z M107.771,190.149c-1.381,0-2.5-1.119-2.5-2.5v-5.782  c0-1.381,1.119-2.5,2.5-2.5s2.5,1.119,2.5,2.5v5.782C110.271,189.03,109.152,190.149,107.771,190.149z M97.533,190.149  c-1.381,0-2.5-1.119-2.5-2.5v-5.782c0-1.381,1.119-2.5,2.5-2.5s2.5,1.119,2.5,2.5v5.782  C100.033,189.03,98.914,190.149,97.533,190.149z M87.296,190.149c-1.381,0-2.5-1.119-2.5-2.5v-5.782c0-1.381,1.119-2.5,2.5-2.5  s2.5,1.119,2.5,2.5v5.782C89.796,189.03,88.677,190.149,87.296,190.149z M55.537,190.149c-1.381,0-2.5-1.119-2.5-2.5v-5.782  c0-1.381,1.119-2.5,2.5-2.5s2.5,1.119,2.5,2.5v5.782C58.037,189.03,56.918,190.149,55.537,190.149z M46.322,190.149  c-1.381,0-2.5-1.119-2.5-2.5v-5.782c0-1.381,1.119-2.5,2.5-2.5s2.5,1.119,2.5,2.5v5.782  C48.822,189.03,47.703,190.149,46.322,190.149z M37.106,190.149c-1.381,0-2.5-1.119-2.5-2.5v-5.782c0-1.381,1.119-2.5,2.5-2.5  s2.5,1.119,2.5,2.5v5.782C39.606,189.03,38.487,190.149,37.106,190.149z M27.89,190.149c-1.381,0-2.5-1.119-2.5-2.5v-5.782  c0-1.381,1.119-2.5,2.5-2.5s2.5,1.119,2.5,2.5v5.782C30.39,189.03,29.271,190.149,27.89,190.149z M178.258,173.527  c-1.381,0-2.5-1.119-2.5-2.5v-5.781c0-1.381,1.119-2.5,2.5-2.5s2.5,1.119,2.5,2.5v5.781  C180.758,172.408,179.638,173.527,178.258,173.527z M169.042,173.527c-1.381,0-2.5-1.119-2.5-2.5v-5.781c0-1.381,1.119-2.5,2.5-2.5  s2.5,1.119,2.5,2.5v5.781C171.542,172.408,170.423,173.527,169.042,173.527z M159.826,173.527c-1.381,0-2.5-1.119-2.5-2.5v-5.781  c0-1.381,1.119-2.5,2.5-2.5s2.5,1.119,2.5,2.5v5.781C162.326,172.408,161.207,173.527,159.826,173.527z M150.611,173.527  c-1.381,0-2.5-1.119-2.5-2.5v-5.781c0-1.381,1.119-2.5,2.5-2.5s2.5,1.119,2.5,2.5v5.781  C153.111,172.408,151.992,173.527,150.611,173.527z M118.01,173.527c-1.381,0-2.5-1.119-2.5-2.5v-5.781c0-1.381,1.119-2.5,2.5-2.5  s2.5,1.119,2.5,2.5v5.781C120.51,172.408,119.39,173.527,118.01,173.527z M107.771,173.527c-1.381,0-2.5-1.119-2.5-2.5v-5.781  c0-1.381,1.119-2.5,2.5-2.5s2.5,1.119,2.5,2.5v5.781C110.271,172.408,109.152,173.527,107.771,173.527z M97.533,173.527  c-1.381,0-2.5-1.119-2.5-2.5v-5.781c0-1.381,1.119-2.5,2.5-2.5s2.5,1.119,2.5,2.5v5.781  C100.033,172.408,98.914,173.527,97.533,173.527z M87.296,173.527c-1.381,0-2.5-1.119-2.5-2.5v-5.781c0-1.381,1.119-2.5,2.5-2.5  s2.5,1.119,2.5,2.5v5.781C89.796,172.408,88.677,173.527,87.296,173.527z M55.537,173.527c-1.381,0-2.5-1.119-2.5-2.5v-5.781  c0-1.381,1.119-2.5,2.5-2.5s2.5,1.119,2.5,2.5v5.781C58.037,172.408,56.918,173.527,55.537,173.527z M46.322,173.527  c-1.381,0-2.5-1.119-2.5-2.5v-5.781c0-1.381,1.119-2.5,2.5-2.5s2.5,1.119,2.5,2.5v5.781  C48.822,172.408,47.703,173.527,46.322,173.527z M37.106,173.527c-1.381,0-2.5-1.119-2.5-2.5v-5.781c0-1.381,1.119-2.5,2.5-2.5  s2.5,1.119,2.5,2.5v5.781C39.606,172.408,38.487,173.527,37.106,173.527z M27.89,173.527c-1.381,0-2.5-1.119-2.5-2.5v-5.781  c0-1.381,1.119-2.5,2.5-2.5s2.5,1.119,2.5,2.5v5.781C30.39,172.408,29.271,173.527,27.89,173.527z M178.258,156.905  c-1.381,0-2.5-1.119-2.5-2.5v-5.782c0-1.381,1.119-2.5,2.5-2.5s2.5,1.119,2.5,2.5v5.782  C180.758,155.786,179.638,156.905,178.258,156.905z M169.042,156.905c-1.381,0-2.5-1.119-2.5-2.5v-5.782c0-1.381,1.119-2.5,2.5-2.5  s2.5,1.119,2.5,2.5v5.782C171.542,155.786,170.423,156.905,169.042,156.905z M159.826,156.905c-1.381,0-2.5-1.119-2.5-2.5v-5.782  c0-1.381,1.119-2.5,2.5-2.5s2.5,1.119,2.5,2.5v5.782C162.326,155.786,161.207,156.905,159.826,156.905z M150.611,156.905  c-1.381,0-2.5-1.119-2.5-2.5v-5.782c0-1.381,1.119-2.5,2.5-2.5s2.5,1.119,2.5,2.5v5.782  C153.111,155.786,151.992,156.905,150.611,156.905z M118.01,156.905c-1.381,0-2.5-1.119-2.5-2.5v-5.782c0-1.381,1.119-2.5,2.5-2.5  s2.5,1.119,2.5,2.5v5.782C120.51,155.786,119.39,156.905,118.01,156.905z M107.771,156.905c-1.381,0-2.5-1.119-2.5-2.5v-5.782  c0-1.381,1.119-2.5,2.5-2.5s2.5,1.119,2.5,2.5v5.782C110.271,155.786,109.152,156.905,107.771,156.905z M97.533,156.905  c-1.381,0-2.5-1.119-2.5-2.5v-5.782c0-1.381,1.119-2.5,2.5-2.5s2.5,1.119,2.5,2.5v5.782  C100.033,155.786,98.914,156.905,97.533,156.905z M87.296,156.905c-1.381,0-2.5-1.119-2.5-2.5v-5.782c0-1.381,1.119-2.5,2.5-2.5  s2.5,1.119,2.5,2.5v5.782C89.796,155.786,88.677,156.905,87.296,156.905z M55.537,156.905c-1.381,0-2.5-1.119-2.5-2.5v-5.782  c0-1.381,1.119-2.5,2.5-2.5s2.5,1.119,2.5,2.5v5.782C58.037,155.786,56.918,156.905,55.537,156.905z M46.322,156.905  c-1.381,0-2.5-1.119-2.5-2.5v-5.782c0-1.381,1.119-2.5,2.5-2.5s2.5,1.119,2.5,2.5v5.782  C48.822,155.786,47.703,156.905,46.322,156.905z M37.106,156.905c-1.381,0-2.5-1.119-2.5-2.5v-5.782c0-1.381,1.119-2.5,2.5-2.5  s2.5,1.119,2.5,2.5v5.782C39.606,155.786,38.487,156.905,37.106,156.905z M27.89,156.905c-1.381,0-2.5-1.119-2.5-2.5v-5.782  c0-1.381,1.119-2.5,2.5-2.5s2.5,1.119,2.5,2.5v5.782C30.39,155.786,29.271,156.905,27.89,156.905z M178.258,140.283  c-1.381,0-2.5-1.119-2.5-2.5v-5.781c0-1.381,1.119-2.5,2.5-2.5s2.5,1.119,2.5,2.5v5.781  C180.758,139.164,179.638,140.283,178.258,140.283z M169.042,140.283c-1.381,0-2.5-1.119-2.5-2.5v-5.781c0-1.381,1.119-2.5,2.5-2.5  s2.5,1.119,2.5,2.5v5.781C171.542,139.164,170.423,140.283,169.042,140.283z M159.826,140.283c-1.381,0-2.5-1.119-2.5-2.5v-5.781  c0-1.381,1.119-2.5,2.5-2.5s2.5,1.119,2.5,2.5v5.781C162.326,139.164,161.207,140.283,159.826,140.283z M150.611,140.283  c-1.381,0-2.5-1.119-2.5-2.5v-5.781c0-1.381,1.119-2.5,2.5-2.5s2.5,1.119,2.5,2.5v5.781  C153.111,139.164,151.992,140.283,150.611,140.283z M118.01,140.283c-1.381,0-2.5-1.119-2.5-2.5v-5.781c0-1.381,1.119-2.5,2.5-2.5  s2.5,1.119,2.5,2.5v5.781C120.51,139.164,119.39,140.283,118.01,140.283z M107.771,140.283c-1.381,0-2.5-1.119-2.5-2.5v-5.781  c0-1.381,1.119-2.5,2.5-2.5s2.5,1.119,2.5,2.5v5.781C110.271,139.164,109.152,140.283,107.771,140.283z M97.533,140.283  c-1.381,0-2.5-1.119-2.5-2.5v-5.781c0-1.381,1.119-2.5,2.5-2.5s2.5,1.119,2.5,2.5v5.781  C100.033,139.164,98.914,140.283,97.533,140.283z M87.296,140.283c-1.381,0-2.5-1.119-2.5-2.5v-5.781c0-1.381,1.119-2.5,2.5-2.5  s2.5,1.119,2.5,2.5v5.781C89.796,139.164,88.677,140.283,87.296,140.283z M55.537,140.283c-1.381,0-2.5-1.119-2.5-2.5v-5.781  c0-1.381,1.119-2.5,2.5-2.5s2.5,1.119,2.5,2.5v5.781C58.037,139.164,56.918,140.283,55.537,140.283z M46.322,140.283  c-1.381,0-2.5-1.119-2.5-2.5v-5.781c0-1.381,1.119-2.5,2.5-2.5s2.5,1.119,2.5,2.5v5.781  C48.822,139.164,47.703,140.283,46.322,140.283z M37.106,140.283c-1.381,0-2.5-1.119-2.5-2.5v-5.781c0-1.381,1.119-2.5,2.5-2.5  s2.5,1.119,2.5,2.5v5.781C39.606,139.164,38.487,140.283,37.106,140.283z M27.89,140.283c-1.381,0-2.5-1.119-2.5-2.5v-5.781  c0-1.381,1.119-2.5,2.5-2.5s2.5,1.119,2.5,2.5v5.781C30.39,139.164,29.271,140.283,27.89,140.283z M178.258,123.662  c-1.381,0-2.5-1.119-2.5-2.5v-5.782c0-1.381,1.119-2.5,2.5-2.5s2.5,1.119,2.5,2.5v5.782  C180.758,122.542,179.638,123.662,178.258,123.662z M169.042,123.662c-1.381,0-2.5-1.119-2.5-2.5v-5.782c0-1.381,1.119-2.5,2.5-2.5  s2.5,1.119,2.5,2.5v5.782C171.542,122.542,170.423,123.662,169.042,123.662z M159.826,123.662c-1.381,0-2.5-1.119-2.5-2.5v-5.782  c0-1.381,1.119-2.5,2.5-2.5s2.5,1.119,2.5,2.5v5.782C162.326,122.542,161.207,123.662,159.826,123.662z M150.611,123.662  c-1.381,0-2.5-1.119-2.5-2.5v-5.782c0-1.381,1.119-2.5,2.5-2.5s2.5,1.119,2.5,2.5v5.782  C153.111,122.542,151.992,123.662,150.611,123.662z M118.01,123.662c-1.381,0-2.5-1.119-2.5-2.5v-5.782c0-1.381,1.119-2.5,2.5-2.5  s2.5,1.119,2.5,2.5v5.782C120.51,122.542,119.39,123.662,118.01,123.662z M107.771,123.662c-1.381,0-2.5-1.119-2.5-2.5v-5.782  c0-1.381,1.119-2.5,2.5-2.5s2.5,1.119,2.5,2.5v5.782C110.271,122.542,109.152,123.662,107.771,123.662z M97.533,123.662  c-1.381,0-2.5-1.119-2.5-2.5v-5.782c0-1.381,1.119-2.5,2.5-2.5s2.5,1.119,2.5,2.5v5.782  C100.033,122.542,98.914,123.662,97.533,123.662z M87.296,123.662c-1.381,0-2.5-1.119-2.5-2.5v-5.782c0-1.381,1.119-2.5,2.5-2.5  s2.5,1.119,2.5,2.5v5.782C89.796,122.542,88.677,123.662,87.296,123.662z M55.537,123.662c-1.381,0-2.5-1.119-2.5-2.5v-5.782  c0-1.381,1.119-2.5,2.5-2.5s2.5,1.119,2.5,2.5v5.782C58.037,122.542,56.918,123.662,55.537,123.662z M46.322,123.662  c-1.381,0-2.5-1.119-2.5-2.5v-5.782c0-1.381,1.119-2.5,2.5-2.5s2.5,1.119,2.5,2.5v5.782  C48.822,122.542,47.703,123.662,46.322,123.662z M37.106,123.662c-1.381,0-2.5-1.119-2.5-2.5v-5.782c0-1.381,1.119-2.5,2.5-2.5  s2.5,1.119,2.5,2.5v5.782C39.606,122.542,38.487,123.662,37.106,123.662z M27.89,123.662c-1.381,0-2.5-1.119-2.5-2.5v-5.782  c0-1.381,1.119-2.5,2.5-2.5s2.5,1.119,2.5,2.5v5.782C30.39,122.542,29.271,123.662,27.89,123.662z M169.042,107.04  c-1.381,0-2.5-1.119-2.5-2.5v-5.782c0-1.381,1.119-2.5,2.5-2.5s2.5,1.119,2.5,2.5v5.782  C171.542,105.921,170.423,107.04,169.042,107.04z M159.826,107.04c-1.381,0-2.5-1.119-2.5-2.5v-5.782c0-1.381,1.119-2.5,2.5-2.5  s2.5,1.119,2.5,2.5v5.782C162.326,105.921,161.207,107.04,159.826,107.04z M150.611,107.04c-1.381,0-2.5-1.119-2.5-2.5v-5.782  c0-1.381,1.119-2.5,2.5-2.5s2.5,1.119,2.5,2.5v5.782C153.111,105.921,151.992,107.04,150.611,107.04z M118.01,107.04  c-1.381,0-2.5-1.119-2.5-2.5v-5.782c0-1.381,1.119-2.5,2.5-2.5s2.5,1.119,2.5,2.5v5.782C120.51,105.921,119.39,107.04,118.01,107.04  z M107.771,107.04c-1.381,0-2.5-1.119-2.5-2.5v-5.782c0-1.381,1.119-2.5,2.5-2.5s2.5,1.119,2.5,2.5v5.782  C110.271,105.921,109.152,107.04,107.771,107.04z M97.533,107.04c-1.381,0-2.5-1.119-2.5-2.5v-5.782c0-1.381,1.119-2.5,2.5-2.5  s2.5,1.119,2.5,2.5v5.782C100.033,105.921,98.914,107.04,97.533,107.04z M87.296,107.04c-1.381,0-2.5-1.119-2.5-2.5v-5.782  c0-1.381,1.119-2.5,2.5-2.5s2.5,1.119,2.5,2.5v5.782C89.796,105.921,88.677,107.04,87.296,107.04z M118.01,90.418  c-1.381,0-2.5-1.119-2.5-2.5v-5.781c0-1.381,1.119-2.5,2.5-2.5s2.5,1.119,2.5,2.5v5.781C120.51,89.299,119.39,90.418,118.01,90.418z   M107.771,90.418c-1.381,0-2.5-1.119-2.5-2.5v-5.781c0-1.381,1.119-2.5,2.5-2.5s2.5,1.119,2.5,2.5v5.781  C110.271,89.299,109.152,90.418,107.771,90.418z M97.533,90.418c-1.381,0-2.5-1.119-2.5-2.5v-5.781c0-1.381,1.119-2.5,2.5-2.5  s2.5,1.119,2.5,2.5v5.781C100.033,89.299,98.914,90.418,97.533,90.418z M87.296,90.418c-1.381,0-2.5-1.119-2.5-2.5v-5.781  c0-1.381,1.119-2.5,2.5-2.5s2.5,1.119,2.5,2.5v5.781C89.796,89.299,88.677,90.418,87.296,90.418z M118.01,73.796  c-1.381,0-2.5-1.119-2.5-2.5v-5.782c0-1.381,1.119-2.5,2.5-2.5s2.5,1.119,2.5,2.5v5.782C120.51,72.677,119.39,73.796,118.01,73.796z   M107.771,73.796c-1.381,0-2.5-1.119-2.5-2.5v-5.782c0-1.381,1.119-2.5,2.5-2.5s2.5,1.119,2.5,2.5v5.782  C110.271,72.677,109.152,73.796,107.771,73.796z M97.533,73.796c-1.381,0-2.5-1.119-2.5-2.5v-5.782c0-1.381,1.119-2.5,2.5-2.5  s2.5,1.119,2.5,2.5v5.782C100.033,72.677,98.914,73.796,97.533,73.796z M87.296,73.796c-1.381,0-2.5-1.119-2.5-2.5v-5.782  c0-1.381,1.119-2.5,2.5-2.5s2.5,1.119,2.5,2.5v5.782C89.796,72.677,88.677,73.796,87.296,73.796z" fill="#141414"/>
<g>
</g>
<g>
</g>
<g>
</g>
<g>
</g>
<g>
</g>
<g>
</g>
<g>
</g>
<g>
</g>
<g>
</g>
<g>
</g>
<g>
</g>
<g>
</g>
<g>
</g>
<g>
</g>
<g>
</g>
</svg>
