<?xml version="1.0" encoding="iso-8859-1"?>
<!-- Generator: Adobe Illustrator 19.1.0, SVG Export Plug-In . SVG Version: 6.00 Build 0)  -->
<svg xmlns="http://www.w3.org/2000/svg" xmlns:xlink="http://www.w3.org/1999/xlink" version="1.1" id="Capa_1" x="0px" y="0px" viewBox="0 0 251.362 251.362" style="enable-background:new 0 0 251.362 251.362;" xml:space="preserve" width="512px" height="512px">
<g>
	<g id="Layer_1_17_">
		<path d="M180.112,81.74c0.116-0.848,0.154-1.657,0.154-2.466c0-12.174-9.901-22.114-22.114-22.114h-0.347    c-1.965-12.29-12.598-21.691-25.428-21.691c-3.622,0-7.204,0.809-10.518,2.273c-7.089-8.091-17.414-12.868-28.24-12.868    c-17.799,0-32.94,12.444-36.677,29.473c-15.025-1.117-27.97,10.402-29.203,25.042C12.329,80.121,0,92.874,0,108.477    c0,16.027,13.061,29.049,29.088,29.049c4.97,0,9.747-1.233,14.062-3.622c4.854,6.28,12.136,10.402,20.111,11.211    c0.963,0.077,1.926,0.116,2.89,0.116c1.002,0,1.965-0.039,2.928-0.116c7.859-0.771,14.871-4.662,19.649-10.672    c3.121,8.014,5.432,17.645,5.432,28.664v30.86c-0.424-0.347-0.848-0.616-1.31-0.848c-0.886-8.437-8.052-15.025-16.721-15.025    c-5.625,0-10.826,2.928-13.908,7.513c-1.348-0.578-2.812-0.886-4.315-0.886c-5.471,0-10.017,3.853-11.134,8.977    c-3.044,0.732-5.818,2.427-7.859,4.816c-1.348-0.385-2.735-0.578-4.161-0.578c-8.283,0-15.064,6.742-15.064,15.064    c0,3.583,1.503,11.943,15.064,11.943c2.158,0,4.276-0.462,6.203-1.31c5.278,3.352,12.406,3.198,17.53-0.193    c2.62,1.734,5.702,2.697,8.938,2.697h2.735c2.312,0,6.126,0,9.131-2.504c1.734,0.616,3.544,0.925,5.394,0.925    c0.193,0,0.347,0,0.539-0.039h0.039c0.616,0.424,1.31,0.655,2.08,0.655c4.662,0,8.437-1.348,10.633-2.35    c2.196,1.04,5.972,2.35,10.556,2.35c2.119,0,3.814-1.695,3.814-3.776c0-2.119-1.695-3.814-3.814-3.814    c-2.851,0-5.278-0.771-6.781-1.387v-53.086c0-12.984,3.198-24.041,7.166-32.786v-0.039c0.193-0.039,0.385-0.154,0.578-0.231    c5.278,4.777,12.136,7.474,19.263,7.474c8.245,0,15.834-3.429,21.19-9.362c5.394,5.933,12.984,9.362,21.19,9.362    c15.796,0,28.664-12.829,28.664-28.625C199.799,96.418,191.709,85.515,180.112,81.74z M84.682,216.972    c-1.541,0-3.082-0.424-4.546-1.271c-0.886-0.501-1.926-0.655-2.928-0.385c-0.963,0.27-1.811,0.925-2.312,1.811    c-0.501,0.963-1.156,1.426-4.739,1.426l-2.735-0.039c-2.35,0-4.546-0.925-6.203-2.658c-0.732-0.732-1.734-1.156-2.735-1.156    c-1.04,0-2.042,0.424-2.735,1.156c-3.159,3.275-8.553,3.506-11.943,0.424c-1.348-1.194-3.313-1.31-4.739-0.308    c-1.271,0.925-2.774,1.387-4.315,1.387c-7.436,0-7.436-2.851-7.436-4.354c0-4.122,3.352-7.474,7.436-7.474    c1.271,0,2.504,0.347,3.66,1.002c0.925,0.539,2.003,0.655,2.967,0.347c1.002-0.27,1.849-0.963,2.312-1.888    c1.31-2.543,3.853-4.122,6.241-4.161c1.233,0.154,2.504-0.308,3.313-1.233c0.732-0.848,1.079-1.926,0.925-3.005    c0,0-0.039-0.462-0.077-0.501c0-2.08,1.695-3.776,3.814-3.776c1.503,0,2.427,0.886,2.89,1.426c0.886,1.079,2.312,1.58,3.699,1.271    c1.348-0.27,2.466-1.31,2.851-2.658c1.156-3.891,4.777-6.627,8.784-6.627c5.086,0,9.246,4.122,9.246,8.977    c-0.039,0.116-0.077,0.539-0.077,0.655c-0.077,1.657,0.925,3.198,2.504,3.776c3.66,1.31,6.126,4.777,6.126,8.63    C93.928,212.85,89.767,216.972,84.682,216.972z M97.973,142.076c-0.539-1.734-1.117-7.821-1.695-9.401    c1.117,0.039,2.235,0.039,3.352-0.039C99.052,134.251,98.474,140.339,97.973,142.076z M171.136,129.94    c-7.359,0-14.062-3.776-17.915-10.094c-1.387-2.273-5.124-2.273-6.511,0c-3.853,6.318-10.556,10.094-17.953,10.094    c-5.972,0-11.712-2.581-15.719-7.089c-0.077-0.077-0.154-0.154-0.231-0.193c5.201-9.015,10.287-14.024,10.402-14.101    c1.503-1.464,1.58-3.853,0.116-5.394c-1.464-1.503-3.853-1.541-5.355-0.077c-0.578,0.539-8.245,8.014-14.756,21.228    c-3.352,0.963-6.973,1.079-10.441,0.231c-6.511-13.369-14.293-20.92-14.833-21.459c-1.503-1.464-3.891-1.425-5.355,0.077    c-1.464,1.541-1.425,3.93,0.116,5.394c0.116,0.116,6.588,6.472,12.367,17.722c-3.352,6.357-9.593,10.556-16.721,11.25    c-1.425,0.154-2.928,0.154-4.354,0c-6.858-0.655-13.022-4.7-16.489-10.749c-0.539-0.925-1.464-1.618-2.504-1.811    c-0.27-0.077-0.539-0.077-0.771-0.077c-0.848,0-1.618,0.27-2.312,0.732c-3.737,2.851-8.168,4.315-12.829,4.315    c-11.866,0-21.498-9.632-21.498-21.459c0-11.866,9.632-21.498,21.498-21.498c0.693,0,1.387,0.039,2.08,0.116    c1.079,0.077,2.196-0.462,3.005-1.233c0.809-0.771,1.194-2.003,1.117-3.121c0-0.347-0.039-0.693-0.039-1.04    c0-12.329,11.519-22.114,24.041-19.379c1.04,0.231,2.158,0,3.005-0.616c0.886-0.616,1.464-1.58,1.58-2.658    C65.572,43.91,78.363,32.506,93.62,32.506c9.516,0,18.531,4.585,24.156,12.329c1.194,1.58,3.39,2.003,5.086,0.963    c2.89-1.772,6.164-2.697,9.516-2.697c10.017,0,18.146,8.129,18.146,17.876v0.385c0,1.156,0.501,2.235,1.425,2.967    c0.886,0.732,2.042,1.002,3.159,0.771c9.439-2.003,17.568,5.201,17.568,14.178c0,1.271-0.231,2.581-0.693,4.122    c-0.308,1.04-0.154,2.158,0.424,3.082c0.539,0.925,1.503,1.58,2.543,1.772c9.978,1.811,17.221,10.518,17.221,20.65    C192.171,120.497,182.732,129.94,171.136,129.94z M222.607,195.783h1.618l0.039-0.116    C223.725,195.548,223.147,195.59,222.607,195.783z M237.594,184.379l0.886-1.965l12.56-28.356    c0.848-1.888-0.039-4.161-1.926-5.008c-1.926-0.848-4.161,0.039-5.008,1.926l-12.02,27.123h-45.693    c-2.08,0-3.776,1.734-3.776,3.814s1.695,3.814,3.776,3.814h11.982l-5.509,10.055h-69.464c-2.119,0-3.814,1.695-3.814,3.814    c0,2.08,1.695,3.776,3.814,3.776h16.682l-8.437,16.258c-0.963,1.888-0.231,4.161,1.618,5.124c0.578,0.308,1.194,0.462,1.772,0.462    c1.348,0,2.697-0.771,3.39-2.08l10.21-19.764h72.893l12.329,21.19c0.693,1.233,1.965,1.926,3.275,1.926    c0.655,0,1.31-0.193,1.926-0.539c1.811-1.04,2.427-3.352,1.348-5.163l-10.826-18.724c0.231-0.27,0.424-0.578,0.578-0.925    L237.594,184.379z M224.264,195.667c-0.539-0.116-1.117-0.077-1.657,0.116h-21.074l5.509-10.055h21.652L224.264,195.667z     M222.607,195.783h1.618l0.039-0.116C223.725,195.548,223.147,195.59,222.607,195.783z M237.594,184.379    c0.462-0.539,0.809-1.233,0.886-1.965L237.594,184.379z" fill="#141414"/>
	</g>
</g>
<g>
</g>
<g>
</g>
<g>
</g>
<g>
</g>
<g>
</g>
<g>
</g>
<g>
</g>
<g>
</g>
<g>
</g>
<g>
</g>
<g>
</g>
<g>
</g>
<g>
</g>
<g>
</g>
<g>
</g>
</svg>
