<?xml version="1.0" encoding="iso-8859-1"?>
<!DOCTYPE svg PUBLIC "-//W3C//DTD SVG 1.1//EN" "http://www.w3.org/Graphics/SVG/1.1/DTD/svg11.dtd">
<svg xmlns="http://www.w3.org/2000/svg" xmlns:xlink="http://www.w3.org/1999/xlink" version="1.1" viewBox="0 0 430 430" enable-background="new 0 0 430 430" width="512px" height="512px">
  <path d="M412,410h-16V54.09C396,31.984,378.016,14,355.91,14h-67.432v-4c0-5.523-4.478-10-10-10s-10,4.477-10,10v4H161.521v-4  c0-5.523-4.477-10-10-10s-10,4.477-10,10v4H74.09C51.984,14,34,31.984,34,54.09V410H18c-5.523,0-10,4.477-10,10s4.477,10,10,10h52  c5.523,0,10-4.477,10-10s-4.477-10-10-10H54V54.09C54,43.012,63.012,34,74.09,34h67.432v314c0,5.523,4.477,10,10,10h126.958  c5.522,0,10-4.477,10-10V34h67.432C366.988,34,376,43.012,376,54.09V410h-16c-5.522,0-10,4.477-10,10s4.478,10,10,10h52  c5.522,0,10-4.477,10-10S417.523,410,412,410z M161.521,338v-13.383h106.958V338H161.521z M268.479,304.617H161.521V34h106.958  V304.617z" fill="#141414"/>
</svg>
