<?xml version="1.0" encoding="iso-8859-1"?>
<svg xmlns="http://www.w3.org/2000/svg" xmlns:xlink="http://www.w3.org/1999/xlink" version="1.1" viewBox="0 0 30 30" enable-background="new 0 0 30 30" width="512px" height="512px">
  <g>
    <g>
      <path fill-rule="evenodd" d="m15,4c-0.553,0-1,0.447-1,1v4c0,0.553 0.447,1 1,1 0.553,0 1-0.447 1-1v-4c0-0.553-0.447-1-1-1zm0,8c-0.553,0-1,0.447-1,1v4c0,0.553 0.447,1 1,1 0.553,0 1-0.447 1-1v-4c0-0.553-0.447-1-1-1zm11-11c0-0.553-0.447-1-1-1h-19c-0.553,0-1,0.447-1,1l-5,28c0,0.553 0.447,1 1,1h28c0.553,0 1-0.447 1-1l-4-28zm-24,27l5-26h17l4,26h-26zm13-8c-0.553,0-1,0.447-1,1v4c0,0.553 0.447,1 1,1 0.553,0 1-0.447 1-1v-4c0-0.553-0.447-1-1-1z" fill="#141414"/>
    </g>
  </g>
</svg>
