<?xml version="1.0" encoding="iso-8859-1"?>
<!-- Generator: Adobe Illustrator 19.1.0, SVG Export Plug-In . SVG Version: 6.00 Build 0)  -->
<svg xmlns="http://www.w3.org/2000/svg" xmlns:xlink="http://www.w3.org/1999/xlink" version="1.1" id="Capa_1" x="0px" y="0px" viewBox="0 0 63.414 63.414" style="enable-background:new 0 0 63.414 63.414;" xml:space="preserve" width="512px" height="512px">
<g>
	<g>
		<polygon points="1.414,36 0,37.414 26,63.414 27.414,62 15.121,49.707 27.707,37.121 27.707,45.707 29.707,45.707 29.707,34.707     28.707,33.707 17.707,33.707 17.707,35.707 26.293,35.707 13.707,48.293   " fill="#141414"/>
		<polygon points="33.707,17.707 33.707,28.707 34.707,29.707 45.707,29.707 45.707,27.707 37.121,27.707 49.707,15.121 62,27.414     63.414,26 37.414,0 36,1.414 48.293,13.707 35.707,26.293 35.707,17.707   " fill="#141414"/>
	</g>
</g>
<g>
</g>
<g>
</g>
<g>
</g>
<g>
</g>
<g>
</g>
<g>
</g>
<g>
</g>
<g>
</g>
<g>
</g>
<g>
</g>
<g>
</g>
<g>
</g>
<g>
</g>
<g>
</g>
<g>
</g>
</svg>
