<?xml version="1.0" encoding="iso-8859-1"?>
<!-- Generator: Adobe Illustrator 19.0.0, SVG Export Plug-In . SVG Version: 6.00 Build 0)  -->
<svg xmlns="http://www.w3.org/2000/svg" xmlns:xlink="http://www.w3.org/1999/xlink" version="1.1" id="Layer_1" x="0px" y="0px" viewBox="0 0 512.001 512.001" style="enable-background:new 0 0 512.001 512.001;" xml:space="preserve" width="512px" height="512px">
<g>
	<g>
		<path d="M482.383,155.825l-24.334-12.166l-7.61-15.222c-0.645-1.291-1.617-2.391-2.818-3.191l-23.768-15.844l-8.165-36.745    l8.21-16.42c2.049-4.097,0.388-9.079-3.709-11.128c-3.539-1.77-7.74-0.766-10.137,2.184l-2.971-13.37V17.14    c0-4.581-3.713-8.294-8.294-8.294c-4.58,0-8.294,3.712-8.294,8.294v17.693c0,0.605,0.066,1.209,0.198,1.799l13.201,59.406    l-15.099-37.746c-0.623-1.558-1.703-2.89-3.1-3.821l-12.814-8.543l5.232-5.232c3.239-3.24,3.239-8.491,0-11.73    c-3.239-3.238-8.491-3.238-11.73,0l-3.535,3.535V8.294c0-4.581-3.713-8.294-8.294-8.294c-4.58,0-8.294,3.712-8.294,8.294V43.68    c0,2.773,1.386,5.363,3.693,6.9l24.396,16.265l15.353,38.383l-3.176,6.351l-36.553-21.932c-1.91-1.145-4.2-1.474-6.354-0.914    c-2.154,0.56-3.993,1.963-5.103,3.894c-0.543,0.944-5.213,9.584-1.879,21.729c3.066,11.17,11.715,21.369,25.74,30.38    c-2.913,9.999-7.828,30.007-7.27,49.574c0.247,8.638-1.826,15.049-5.837,18.056c-4.935,3.701-12.896,2.236-18.707,0.356    c-22.515-7.284-36.435-5.004-54.059-2.118c-3.665,0.599-7.456,1.221-11.567,1.795c-23.627,3.295-60.147-1.743-89.492-5.792    c-8.429-1.163-16.391-2.263-23.41-3.079c-32.829-3.807-88.162,11.782-97.341,41.151c-7.828,25.052,6.817,42.231,22.323,60.419    c4.774,5.599,9.71,11.39,14.256,17.684c1.956,2.708,2.474,5.181,1.676,8.016c-3.425,12.188-27.82,26.439-42.389,32.557    c-2.414,1.01-4.209,3.101-4.844,5.639l-26.54,106.16c-0.165,0.659-0.248,1.334-0.248,2.011v26.54c0,4.581,3.713,8.294,8.294,8.294    h17.693c2.658,0,5.155-1.274,6.715-3.426c1.56-2.152,1.994-4.922,1.168-7.448l-9.116-27.869c2.7-6.845,6.007-14.659,9.883-22.78    c15.152-31.742,31.968-53.69,48.633-63.471c13.21-7.754,23.931-11.877,31.742-14.077v42.311c0,1.503,0.409,2.978,1.182,4.266    l53.08,88.466c1.498,2.499,4.199,4.027,7.112,4.027h26.54c3.822,0,7.149-2.611,8.057-6.324c0.907-3.713-0.839-7.565-4.231-9.329    l-33.488-17.414l-17.139-72.672l10.461-51.398c9.373,3.703,21.547,6.743,36.34,6.743c4.92,0,11.242-0.575,18.561-1.24    c10.5-0.954,23.748-2.155,36.623-1.795l-36.604,125.11c-0.588,2.009-0.394,4.167,0.542,6.039l8.847,17.693    c1.404,2.809,4.276,4.585,7.418,4.585h26.54c3.543,0,6.695-2.25,7.845-5.602c1.15-3.351,0.044-7.063-2.753-9.237l-26.039-20.254    c2.163-11.074,11.487-44.991,50.304-104.003l60.394,134.208c1.339,2.976,4.299,4.89,7.563,4.89h17.693    c3.198,0,6.112-1.839,7.488-4.726c1.376-2.887,0.968-6.309-1.047-8.792l-38.925-47.981c-0.041-0.05-0.082-0.099-0.123-0.148    l-6.519-14.488l1.705-39.434c0.041-0.954-0.083-1.909-0.366-2.821c-0.091-0.292-7.055-23.057-7.042-46.674l21.461-9.964    c6.284-2.917,11.111-8.053,13.593-14.46c3.426-8.844,7.143-15.789,10.467-19.558l1.035-1.163    c9.215-10.317,30.317-33.974,31.899-93.882c6.648-0.573,13.706-2.405,21.168-5.544h24.828c3.57,0,6.739-2.284,7.868-5.671    l5.813-17.44C495.114,170.179,490.942,160.106,482.383,155.825z M158.49,408.297l6.962,29.519l-14.924-24.873v-43.831    c5.132-2.016,9.614-5.593,12.777-10.337l6.458-9.686l-11.327,55.65C158.196,405.915,158.215,407.128,158.49,408.297z     M287.246,382.76l6.61-22.592c2.344,0.419,4.622,0.926,6.805,1.544C295.777,369.079,291.3,376.11,287.246,382.76z M476.353,174.01    l-3.923,11.769h-20.562c-1.156,0-2.298,0.242-3.355,0.709c-12.831,5.675-29.354,10.051-43.381-6.604    c-2.95-3.503-8.182-3.95-11.686-1.002c-3.503,2.951-3.952,8.183-1.002,11.686c6.833,8.114,14.654,13.413,23.417,15.901    c-1.222,54.594-19.682,75.273-27.72,84.273l-1.101,1.237c-5.881,6.664-10.586,17.024-13.497,24.541    c-0.923,2.385-2.739,4.305-5.11,5.406l-12.599,5.85c0.057-0.266,0.106-0.537,0.168-0.803c1.027-4.463-1.759-8.915-6.223-9.941    c-4.461-1.031-8.915,1.758-9.943,6.223c-6.9,29.989,2.672,66.143,4.897,73.847l-0.22,5.101l-35.475-78.835    c-1.879-4.177-6.79-6.038-10.967-4.16c-4.177,1.88-6.039,6.791-4.16,10.968l6.458,14.352c-20.043-4.439-43.305-2.331-61.455-0.681    c-6.918,0.628-12.892,1.172-17.06,1.172c-30.254,0-46.743-14.84-47.396-15.44c-1.777-1.673-4.202-2.484-6.626-2.2    c-2.425,0.276-4.605,1.608-5.958,3.639l-12.37,18.555c-1.744,2.615-4.445,4.335-7.412,4.72    c-9.907,1.282-26.327,5.516-48.288,18.408c-17.816,10.457-32.727,29.853-44.42,50.042l11.448-45.791    c11.46-5.277,42.323-21.173,48.089-41.651c2.176-7.73,0.725-15.416-4.194-22.231c-4.936-6.836-10.094-12.884-15.081-18.733    c-15.462-18.137-23.973-29.156-19.113-44.71c5.369-17.179,48.512-33.234,79.592-29.622c6.844,0.795,14.72,1.882,23.059,3.033    c30.359,4.19,68.144,9.403,94.052,5.788c4.307-0.6,8.195-1.237,11.955-1.853c16.606-2.723,27.578-4.516,46.271,1.53    c17.283,5.59,27.899,1.528,33.761-2.866c8.445-6.33,12.874-17.625,12.468-31.802c-0.682-23.894,8.293-49.84,8.381-50.094    c1.334-3.796-0.25-8.001-3.754-9.976c-15.59-8.783-21.456-16.979-23.406-23.013l32.761,19.657    c1.983,1.189,4.369,1.497,6.586,0.852c2.218-0.646,4.066-2.188,5.099-4.254l8.847-17.693c0.164-0.327,0.296-0.665,0.415-1.006    l1.765,7.943c0.463,2.088,1.716,3.916,3.496,5.101l24.708,16.472l7.861,15.724c0.802,1.605,2.103,2.906,3.709,3.708l26.805,13.403    C476.188,171.273,476.785,172.714,476.353,174.01z" fill="#141414"/>
	</g>
</g>
<g>
	<g>
		<path d="M418.14,134.589c-6.123,0-11.105,4.982-11.105,11.105s4.981,11.105,11.105,11.105s11.105-4.982,11.105-11.105    S424.263,134.589,418.14,134.589z" fill="#141414"/>
	</g>
</g>
<g>
</g>
<g>
</g>
<g>
</g>
<g>
</g>
<g>
</g>
<g>
</g>
<g>
</g>
<g>
</g>
<g>
</g>
<g>
</g>
<g>
</g>
<g>
</g>
<g>
</g>
<g>
</g>
<g>
</g>
</svg>
